<svg width="260" height="100" viewBox="0 0 260 100" fill="none" xmlns="http://www.w3.org/2000/svg">
<path d="M49.9714 19.1044C49.9714 19.1044 65.8617 16.0726 71.1147 36.1596C71.1147 36.1596 73.8726 43.487 68.6195 57.1309C68.6195 57.1309 81.3579 59.5313 78.206 67.8692C78.206 67.8692 74.923 78.7341 54.8304 80.2502C54.8304 80.2502 25.1509 82.0188 13.857 69.2591C13.857 69.2591 9.26061 63.5741 15.3015 55.9939C15.3015 55.9939 2.169 50.1826 7.02799 43.2342C7.02799 43.2342 6.10871 40.7076 12.1496 41.5919C12.1496 41.5919 12.0184 21.8838 31.0603 20.1153C50.1025 18.3467 49.9714 19.1044 49.9714 19.1044Z" fill="white" stroke="#373737" stroke-width="3" stroke-miterlimit="10" stroke-linecap="round" stroke-linejoin="round"/>
<path d="M46.0232 6.00057C63.9443 5.95707 58.7129 8.4222 58.7129 8.4222C58.7129 8.4222 67.3611 10.7843 71.2047 14.9955L66.934 14.2767C66.934 14.2767 72.6995 17.2552 76.65 23.8288L73.1266 23.007C73.1266 23.007 74.7281 26.0886 75.5823 32.5592L72.486 28.348C72.486 28.348 73.8091 30.6987 74.4498 34.6018C74.4498 34.6018 74.6215 33.381 69.6032 28.1427C70.4574 36.3596 68.9626 34.5109 68.9626 34.5109C68.9626 34.5109 68.5355 30.1971 61.3821 24.856C61.3821 24.856 62.0227 24.4449 62.77 31.4293C62.77 31.4293 60.7414 28.04 52.1998 24.4449C52.1998 24.4449 52.8404 24.5476 54.869 31.1212C54.869 31.1212 49.1954 27.3208 41.2947 24.7533C41.2947 24.7533 42.5907 25.0614 44.7259 31.2239C44.7259 31.2239 40.2417 27.9373 32.4476 25.3695C32.4476 25.3695 34.3692 26.8074 36.0776 32.8672C36.0776 32.8672 32.3407 30.6078 25.7209 27.7319C25.7209 27.7319 28.7106 31.532 29.4579 37.0787C29.4579 37.0787 28.7388 33.243 19.8488 32.0457C19.8488 32.0457 23.6924 29.786 22.8382 51.0474C22.8382 51.0474 15.0441 43.0359 7.57023 42.1113C11.5207 39.1328 10.8801 39.4408 10.8801 39.4408L7.46329 39.7489L9.38523 33.6891L5.75522 33.5864C2.87246 34.8189 9.17168 27.0128 9.17168 27.0128L6.18232 27.8346C6.18232 27.8346 8.63797 20.5422 13.6559 17.3579C13.6559 17.3579 12.5885 16.5364 10.0259 17.4606C7.46329 18.3851 18.1404 7.90844 33.0879 7.39501C33.0879 7.39501 28.1017 6.04406 46.0232 6.00057Z" fill="#373737" stroke="#373737" stroke-width="3" stroke-miterlimit="10" stroke-linecap="round" stroke-linejoin="round"/>
<path d="M74.321 67.4061C71.6309 69.6047 70.4493 69.7492 70.4493 69.7492C70.4493 69.7492 62.77 73.9519 54.2284 73.8492C54.2284 73.8492 56.1938 73.3639 57.0143 72.3704C58.276 70.8425 58.3094 68.6053 55.8511 68.9163C55.8511 68.9163 53.8929 69.0219 52.8251 70.5626C52.8251 70.5626 50.6118 67.7792 48.3697 69.5252C48.3697 69.5252 47.852 70.7611 48.4841 71.9495C48.853 72.6428 50.0104 73.5074 50.6399 73.9993C50.6399 73.9993 37.4656 75.2871 27.6429 61.4211C27.6429 61.4211 31.7059 67.7442 40.5678 66.9227C40.5678 66.9227 44.3387 66.893 48.3393 66.2321C51.0807 65.7794 56.791 64.0917 63.7841 66.7841C66.9635 68.0081 65.4432 68.5216 70.2518 69.744" fill="#373737"/>
<path d="M74.321 67.4061C71.6309 69.6047 70.4493 69.7492 70.4493 69.7492C70.4493 69.7492 62.77 73.9519 54.2284 73.8492C54.2284 73.8492 56.1938 73.3639 57.0143 72.3704C58.276 70.8425 58.3094 68.6053 55.8511 68.9163C55.8511 68.9163 53.8929 69.0219 52.8251 70.5626C52.8251 70.5626 50.6118 67.7792 48.3697 69.5252C48.3697 69.5252 47.852 70.7611 48.4841 71.9495C48.853 72.6428 50.0104 73.5074 50.6399 73.9993C50.6399 73.9993 37.4656 75.2871 27.6429 61.4211C27.6429 61.4211 31.7059 67.7442 40.5678 66.9227C40.5678 66.9227 44.3387 66.893 48.3393 66.2321C51.0807 65.7794 56.791 64.0917 63.7841 66.7841C66.9635 68.0081 65.4432 68.5216 70.2518 69.744" stroke="#373737" stroke-width="3" stroke-miterlimit="10" stroke-linecap="round" stroke-linejoin="round"/>
<path d="M61.8853 59.2709C61.8853 59.2709 63.7599 54.6225 61.0105 54.1817C61.0105 54.1817 58.3446 52.3784 56.387 57.708" stroke="#373737" stroke-width="3" stroke-miterlimit="10" stroke-linejoin="round"/>
<path d="M48.9929 33.0488C49.0923 32.6943 47.9563 32.0909 46.4552 31.7014C44.9541 31.3123 43.6568 31.2842 43.5574 31.6387C43.458 31.9935 44.5941 32.5965 46.0951 32.986C47.5962 33.3755 48.8935 33.4036 48.9929 33.0488Z" fill="#68C40C" stroke="#373737" stroke-width="3" stroke-miterlimit="10" stroke-linejoin="round"/>
<path d="M65.4301 32.6482C65.2989 32.1782 64.1929 32.0552 62.9597 32.3741C61.7268 32.6926 60.8337 33.3323 60.9648 33.8026C61.0963 34.2725 62.2023 34.3955 63.4352 34.0766C64.6684 33.7581 65.5615 33.1184 65.4301 32.6482Z" fill="#68C40C" stroke="#373737" stroke-width="3" stroke-miterlimit="10" stroke-linejoin="round"/>
<path d="M56.387 48.0117C59.448 51.0475 68.2232 50.4418 70.6703 48.5568C73.4677 46.402 73.0344 41.9322 71.3512 40.351C70.0055 39.0871 61.9413 37.4467 57.9568 39.4635C54.4912 41.2173 54.8222 46.4603 56.387 48.0117Z" stroke="#373737" stroke-width="3" stroke-miterlimit="10" stroke-linejoin="round"/>
<path d="M31.4459 47.7945C34.2218 50.2279 40.6662 49.6373 46.2754 49.6373C51.4928 49.6373 53.8987 41.6853 48.9992 38.516C44.8613 35.8397 33.8709 37.7348 31.6726 38.9078C28.0481 40.8419 29.5708 46.1509 31.4459 47.7945Z" stroke="#373737" stroke-width="3" stroke-miterlimit="10" stroke-linejoin="round"/>
<path d="M29.4488 43.991C29.4488 43.991 22.9658 44.0603 18.0672 45.7926" stroke="#373737" stroke-width="3" stroke-miterlimit="10" stroke-linejoin="round"/>
<path d="M56.0289 42.1198C56.0289 42.1198 54.9798 41.1496 51.6664 41.6345" stroke="#373737" stroke-width="3" stroke-miterlimit="10" stroke-linejoin="round"/>
<path d="M43.5512 43.8009C43.5512 42.7011 42.9409 41.8093 42.1881 41.8093C41.4353 41.8093 40.8251 42.7011 40.8251 43.8009C40.8251 44.901 41.4353 45.7925 42.1881 45.7925C42.9409 45.7925 43.5512 44.901 43.5512 43.8009Z" fill="white" stroke="#373737" stroke-width="3" stroke-miterlimit="10" stroke-linejoin="round"/>
<path d="M65.4431 43.9562C65.4431 42.942 64.9401 42.1199 64.3201 42.1199C63.7 42.1199 63.1974 42.942 63.1974 43.9562C63.1974 44.9703 63.7 45.7924 64.3201 45.7924C64.9401 45.7924 65.4431 44.9703 65.4431 43.9562Z" fill="white" stroke="#373737" stroke-width="3" stroke-miterlimit="10" stroke-linejoin="round"/>
<path d="M12.3389 47.2982C12.3389 47.2982 16.6292 45.5264 17.4481 50.8831" stroke="#373737" stroke-width="3" stroke-miterlimit="10" stroke-linecap="round" stroke-linejoin="round"/>
<path d="M15.8578 48.6497C15.8578 48.6497 12.3566 50.5356 15.8225 53.1767" stroke="#373737" stroke-width="3" stroke-miterlimit="10" stroke-linecap="round" stroke-linejoin="round"/>
<path d="M52.656 74.6831C52.656 74.6831 50.5489 74.2138 49.5639 72.0286C48.6649 70.0337 50.6353 69.3823 51.6151 69.7001C52.2985 69.9219 52.7077 70.7735 53.366 71.6162C53.366 71.6162 55.0292 70.0115 56.2948 69.9032C56.2948 69.9032 59.1449 69.7057 58.3159 72.0852C58.3159 72.0852 56.9881 74.7684 52.656 74.6831Z" fill="white" stroke="white" stroke-width="3" stroke-miterlimit="10" stroke-linecap="round" stroke-linejoin="round"/>
<path d="M96.226 22.6738L106.651 17.7585" stroke="#373737" stroke-width="3" stroke-miterlimit="10" stroke-linecap="round" stroke-linejoin="round"/>
<path d="M95.7131 38.282L106.586 36.9121" stroke="#373737" stroke-width="3" stroke-miterlimit="10" stroke-linecap="round" stroke-linejoin="round"/>
<path d="M96.226 48.8152L105.449 53.6863" stroke="#373737" stroke-width="3" stroke-miterlimit="10" stroke-linecap="round" stroke-linejoin="round"/>
<path d="M123.902 91.4747C123.902 89.041 119.167 87.0684 113.326 87.0684C107.485 87.0684 102.749 89.041 102.749 91.4747C102.749 93.9085 107.485 95.8815 113.326 95.8815C119.167 95.8815 123.902 93.9085 123.902 91.4747Z" fill="white" stroke="#373737" stroke-width="3" stroke-miterlimit="10" stroke-linecap="round" stroke-linejoin="round"/>
<path d="M115.681 84.0408L115.331 91.0133Z" fill="#373737"/>
<path d="M115.681 84.0408L115.331 91.0133" stroke="#373737" stroke-width="3" stroke-miterlimit="10" stroke-linecap="round" stroke-linejoin="round"/>
<path d="M119.133 78.5159C119.133 78.5159 119.57 80.4133 118.031 82.9203C116.719 85.0577 114.557 86.5506 113.39 87.0683L97.4513 77.3229C97.4513 77.3229 96.7537 74.8875 98.1966 72.5908C99.6394 70.294 103.222 68.136 103.222 68.136L119.133 78.5159Z" fill="white" stroke="#373737" stroke-width="3" stroke-miterlimit="10" stroke-linecap="round" stroke-linejoin="round"/>
<path d="M102.749 67.7406L97.8022 64.9072C97.8022 64.9072 95.2547 65.8559 93.665 68.2639C92.075 70.6718 92.1545 74.3433 92.1545 74.3433L97.4513 77.2555C97.4513 77.2555 96.8486 75.242 98.8082 72.1319C100.768 69.0219 102.749 67.7406 102.749 67.7406Z" fill="#373737" stroke="#373737" stroke-width="3" stroke-miterlimit="10" stroke-linecap="round" stroke-linejoin="round"/>
<path d="M168.769 22.7402L158.343 17.825" stroke="#1E1E1E" stroke-width="3" stroke-miterlimit="10" stroke-linecap="round" stroke-linejoin="round"/>
<path d="M169.216 36.3816L158.343 35.0117" stroke="#1E1E1E" stroke-width="3" stroke-miterlimit="10" stroke-linecap="round" stroke-linejoin="round"/>
<path d="M167.567 47.9802L158.343 52.8513" stroke="#1E1E1E" stroke-width="3" stroke-miterlimit="10" stroke-linecap="round" stroke-linejoin="round"/>
<path d="M144.478 91.4747C144.478 89.041 149.213 87.0684 155.055 87.0684C160.896 87.0684 165.631 89.041 165.631 91.4747C165.631 93.9085 160.896 95.8815 155.055 95.8815C149.213 95.8815 144.478 93.9085 144.478 91.4747Z" fill="white" stroke="#1E1E1E" stroke-width="3" stroke-miterlimit="10" stroke-linecap="round"/>
<path d="M152.699 84.0408L153.05 91.0133Z" fill="#1E1E1E"/>
<path d="M152.699 84.0408L153.05 91.0133" stroke="#1E1E1E" stroke-width="3" stroke-miterlimit="10" stroke-linecap="round" stroke-linejoin="round"/>
<path d="M149.248 78.5159C149.248 78.5159 148.81 80.4133 150.349 82.9203C151.662 85.0577 153.824 86.5506 154.99 87.0683L170.929 77.3229C170.929 77.3229 171.627 74.8875 170.184 72.5908C168.741 70.294 165.158 68.136 165.158 68.136L149.248 78.5159Z" fill="white" stroke="#1E1E1E" stroke-width="3" stroke-miterlimit="10" stroke-linecap="round" stroke-linejoin="round"/>
<path d="M165.631 67.7406L170.578 64.9072C170.578 64.9072 173.126 65.8559 174.716 68.2639C176.305 70.6718 176.226 74.3433 176.226 74.3433L170.929 77.2555C170.929 77.2555 171.532 75.242 169.572 72.1319C167.613 69.0219 165.631 67.7406 165.631 67.7406Z" fill="#1E1E1E" stroke="#1E1E1E" stroke-width="3" stroke-miterlimit="10" stroke-linecap="round" stroke-linejoin="round"/>
<path d="M252.893 41.0194C252.387 48.4606 251.151 54.8459 247.862 57.6096C244.573 60.3733 244.639 57.9118 244.498 58.3591C244.232 59.1993 243.674 61.5006 239.319 69.933C238.801 70.935 238.203 71.8507 237.53 72.6875C232.537 78.8942 223.437 80.7573 212.838 81.1648C200.81 81.6275 192.765 70.9824 190.615 64.4477C188.502 58.0272 190.615 50.0614 190.615 47.0717C190.615 39.055 187.986 34.8572 190.615 30.4247C201.204 12.5677 206.245 16.7974 220.582 16.7974C234.918 16.7974 253.51 31.9522 252.893 41.0194Z" fill="white" stroke="#1E1E1E" stroke-width="3" stroke-miterlimit="10" stroke-linecap="round" stroke-linejoin="round"/>
<path d="M200.97 40.019C200.97 40.019 200.842 40.746 200.849 41.6486C200.852 42.0715 200.885 42.5329 200.975 42.9763C201.08 43.4904 201.262 43.98 201.563 44.3567" stroke="#1E1E1E" stroke-width="3" stroke-miterlimit="10" stroke-linecap="round"/>
<path d="M218.979 41.6865C218.979 41.6865 218.85 42.4135 218.857 43.3158C218.86 43.739 218.893 44.2004 218.984 44.6438C219.088 45.1579 219.27 45.6475 219.571 46.0239" stroke="#1E1E1E" stroke-width="3" stroke-miterlimit="10" stroke-linecap="round"/>
<path d="M203.472 41.8533C203.472 41.8533 203.194 43.4214 203.476 44.8103C203.581 45.3247 203.763 45.8142 204.064 46.1906" stroke="#1E1E1E" stroke-width="3" stroke-miterlimit="10" stroke-linecap="round"/>
<path d="M224.147 41.6865C224.147 41.6865 223.869 43.2546 224.152 44.6438C224.257 45.1579 224.439 45.6475 224.74 46.0239" stroke="#1E1E1E" stroke-width="3" stroke-miterlimit="10" stroke-linecap="round"/>
<path d="M198.97 41.8533C198.97 41.8533 198.692 43.4214 198.975 44.8103C199.079 45.3247 199.261 45.8142 199.562 46.1906" stroke="#1E1E1E" stroke-width="3" stroke-miterlimit="10" stroke-linecap="round"/>
<path d="M220.979 40.1858C220.979 40.1858 220.701 41.7539 220.984 43.1431C221.089 43.6572 221.27 44.1468 221.572 44.5232" stroke="#1E1E1E" stroke-width="3" stroke-miterlimit="10" stroke-linecap="round"/>
<path d="M197.756 49.6847C197.756 46.834 199.483 44.5232 201.612 44.5232C203.742 44.5232 205.469 46.834 205.469 49.6847C205.469 52.5351 203.742 54.8458 201.612 54.8458C199.483 54.8458 197.756 52.5351 197.756 49.6847Z" fill="#1E1E1E" stroke="#1E1E1E" stroke-width="3" stroke-miterlimit="10"/>
<path d="M218.523 50.5831C218.523 47.3011 220.249 44.6404 222.379 44.6404C224.509 44.6404 226.235 47.3011 226.235 50.5831C226.235 53.8652 224.509 56.5259 222.379 56.5259C220.249 56.5259 218.523 53.8652 218.523 50.5831Z" fill="#1E1E1E" stroke="#1E1E1E" stroke-width="3" stroke-miterlimit="10"/>
<path d="M217.468 36.2343C217.468 36.2343 224.839 30.596 230.732 41.1862" stroke="#1E1E1E" stroke-width="3" stroke-miterlimit="10" stroke-linecap="round"/>
<path d="M196.024 37.3298C196.024 37.3298 196.787 35.316 198.847 34.7349C201.612 33.9549 202.472 35.3742 203.53 36.733" stroke="#1E1E1E" stroke-width="3" stroke-miterlimit="10" stroke-linecap="round" stroke-linejoin="round"/>
<path d="M221.046 47.3403C221.046 46.5986 221.651 45.9976 222.398 45.9976C223.146 45.9976 223.751 46.5986 223.751 47.3403C223.751 48.0817 223.146 48.6828 222.398 48.6828C221.651 48.6828 221.046 48.0817 221.046 47.3403Z" fill="white"/>
<path d="M220.552 52.3474C220.568 51.3689 221.295 50.5876 222.175 50.602C223.054 50.6164 223.755 51.4209 223.739 52.3994C223.723 53.3775 222.996 54.1591 222.117 54.1447C221.237 54.1303 220.537 53.3255 220.552 52.3474Z" fill="white"/>
<path d="M199.369 47.3403C199.369 46.5986 199.975 45.9976 200.722 45.9976C201.469 45.9976 202.075 46.5986 202.075 47.3403C202.075 48.0817 201.469 48.6828 200.722 48.6828C199.975 48.6828 199.369 48.0817 199.369 47.3403Z" fill="white"/>
<path d="M199.877 51.6802C199.892 50.7479 200.618 50.0039 201.497 50.0183C202.377 50.0327 203.078 50.8002 203.063 51.7322C203.048 52.6646 202.322 53.4086 201.442 53.3942C200.562 53.3798 199.861 52.6126 199.877 51.6802Z" fill="white"/>
<path d="M209.219 55.8311C209.219 55.8311 208.488 57.1644 207.265 57.7412C206.041 58.3181 205.059 58.0771 204.797 59.2822C204.536 60.487 206.219 62.5606 206.219 62.5606" stroke="#1E1E1E" stroke-width="3" stroke-miterlimit="10" stroke-linecap="round" stroke-linejoin="round"/>
<path d="M237.208 12.672C237.208 12.672 231.885 4.18561 218.062 6.35479L220.319 9.0629C220.319 9.0629 208.14 6.04639 193.787 13.6233L198.126 14.142C198.126 14.142 187.306 15.8641 184.242 25.2796L189.194 23.5941C189.194 23.5941 184.304 28.1074 183.469 32.9657L188.806 28.2395C188.806 28.2395 183.804 34.3464 184.11 38.2933C184.11 38.2933 185.648 35.7275 188.143 34.5986C188.143 34.5986 187.825 37.1638 187.476 40.8635C187.476 40.8635 191.791 34.2107 194.965 31.8672C194.965 31.8672 194.447 32.4618 193.469 36.3845C193.469 36.3845 200.451 29.8694 204.011 27.8824C204.011 27.8824 202.224 30.4335 200.849 33.8114C200.849 33.8114 211.631 26.3346 213.501 26.9877C213.501 26.9877 211.617 29.4495 209.902 33.3179C209.902 33.3179 219.485 27.4164 219.105 28.8527C219.105 28.8527 218.019 30.7992 217.503 34.7909C217.503 34.7909 225.263 29.0832 225.873 30.1824C225.873 30.1824 225.712 33.9661 224.779 37.0369C224.779 37.0369 231.918 30.0414 232.407 32.2799C232.407 32.2799 231.82 36.653 231.961 42.5908C231.961 42.5908 240.254 36.5706 239.345 38.4134C239.345 38.4134 236.813 44.1194 238.417 53.3602C238.417 53.3602 241.127 49.3227 243.371 46.8788C244.513 45.6351 245.534 44.8041 246.015 45.1279C246.015 45.1279 249.979 47.1764 248.582 59.804C248.582 59.804 251.259 48.3334 251.323 44.4608C251.323 44.4608 252.95 47.3919 253.51 49.2488C253.51 49.2488 255.395 40.0864 253.569 35.1843C251.742 30.2821 251.649 30.7086 248.878 26.9906L253.464 29.9051C253.464 29.9051 249.809 15.005 237.208 12.672Z" fill="#1E1E1E" stroke="#1E1E1E" stroke-width="3" stroke-miterlimit="10" stroke-linecap="round" stroke-linejoin="round"/>
<path d="M207.099 69.6948C207.099 69.6948 211.064 74.2327 212.462 74.2327C213.861 74.2327 216.098 68.2451 216.098 68.2451L207.099 69.6948Z" fill="white" stroke="#1E1E1E" stroke-width="3" stroke-miterlimit="10" stroke-linecap="round" stroke-linejoin="round"/>
<path d="M209.252 69.3091C209.252 69.3091 206.751 69.4824 206.012 69.4343C205.273 69.3863 204.757 69.3529 204.757 69.3529" stroke="#1E1E1E" stroke-width="3" stroke-miterlimit="10" stroke-linecap="round" stroke-linejoin="round"/>
<path d="M243.298 48.6431C243.298 48.6431 240.212 48.3167 239.915 52.7385" stroke="#1E1E1E" stroke-width="3" stroke-miterlimit="10" stroke-linecap="round"/>
<path d="M241.339 50.7798C241.339 50.7798 242.474 51.2223 242.884 52.5215C243.137 53.3231 243.115 54.4513 242.378 56.0028" stroke="#1E1E1E" stroke-width="3" stroke-miterlimit="10" stroke-linecap="round"/>
<path d="M238.184 46.2225C238.184 46.2225 247.294 41.5041 246.286 54.235" stroke="#1E1E1E" stroke-width="3" stroke-miterlimit="10" stroke-linecap="round" stroke-linejoin="round"/>
<rect x="-69.5" y="-729.5" width="389" height="1225" stroke="black" stroke-opacity="0.5"/>
</svg>
