<?xml version="1.0" encoding="UTF-8"?>
<svg id="_レイヤー_1" data-name="レイヤー_1" xmlns="http://www.w3.org/2000/svg" viewBox="0 0 2538.82 615.43">
  <defs>
    <style>
      .cls-1 {
        fill: #48a57b;
      }

      .cls-2 {
        fill: #ff8368;
      }

      .cls-3 {
        fill: #eeff95;
      }
    </style>
  </defs>
  <path class="cls-1" d="M917.37,85.47c1.11-.44,2.12-1.14,3.22-1.67,1.08-.53,2.34-.75,3.4-1.32,1.05-.57,2.25-.75,3.23-1.27,1.05-.56,2.17-1.02,3.11-1.6,1-.62,1.55-1.89,2.39-2.65.83-.76,1.65-1.58,2.28-2.59.64-1.02,1.42-1.98,1.96-3.03.55-1.07.59-2.37,1.04-3.47.45-1.11,1.09-2.15,1.44-3.28.35-1.15.28-2.39.53-3.55.25-1.17.97-2.26,1.12-3.44.15-1.19-.27-2.42-.23-3.61.04-1.19-.27-2.35-.34-3.54-.07-1.19.22-2.39.04-3.57-.17-1.18-.41-2.33-.69-3.49-.27-1.16.06-2.51-.32-3.64-.38-1.13-1.31-2.07-1.79-3.17-.47-1.09-1.34-1.97-1.91-3.03-.56-1.04-.8-2.27-1.46-3.27-.65-.99-1.12-2.13-1.86-3.08-.73-.93-1.71-1.67-2.53-2.56-.91-.98-2.29-1.44-3.24-2.29-1.06-.93-1.56-2.58-2.73-2.99-1.2-.41-2.45.29-3.84.81-1.03.39-1.97,1.01-3.14,2.09-.58.54-2.07.74-2.87.6-1.26-.21-2.45-.55-3.63-.61-1.27-.06-2.47.23-3.66.36-1.25.13-2.65-.44-3.81-.09-1.18.36-2.04,1.57-3.13,2.16-1.06.57-2.44.76-3.41,1.56-.92.76-1.49,1.96-2.33,2.93-.77.89-1.42,1.93-2.12,3-.68,1.05-1.88,1.75-2.61,2.78-.73,1.03-1.29,2.18-2.01,3.2-.73,1.03-.85,2.46-1.52,3.51-.68,1.07-1.35,2.08-1.9,3.19-.57,1.14-1.53,2.07-1.89,3.26-.36,1.19-.26,2.46-.34,3.73-.08,1.21-.52,2.46-.29,3.76,0,1.17.2,2.12.18,2.98-.03,1.14.56,2,.67,2.92.14,1.17.09,2.37.24,3.54.15,1.18-.56,2.5-.34,3.65.23,1.18,1.09,2.2,1.47,3.3.39,1.12.74,2.26,1.36,3.27.6.99,1.3,1.97,2.19,2.81.81.76,2.02,1.05,3.13,1.66,1.02.56,2.14.66,3.34.95,1.17.29,2.04,1.76,3.16,2.09,1.21.35,2.43.24,3.3.99.98.84,1.93,1.7,2.94,2.22,1.12.57,2.43.57,3.58.8,1.19.24,2.4.71,3.61.64,1.19-.07,2.43-.32,3.62-.62,1.15-.29,2.25-.89,3.4-1.34Z"/>
  <path class="cls-2" d="M360.24,188.91c1.07.37,2.27.35,3.32.74.62.23,1.84,1,2.26.66.97-.76,2.05-1.27,3.11-1.93,1.05-.65,1.84-1.73,2.92-2.35,1.08-.61,2.13-1.3,3.18-1.94,1.07-.65,2.44-.91,3.42-1.65.99-.75,1.85-1.78,2.69-2.69.82-.9,1.39-2.08,2.01-3.2.58-1.03.67-2.31,1.03-3.58.36-1.28,1.69-2.26,2.14-3.53.45-1.27.95-2.57,1.31-3.85.37-1.31-.27-2.82-.17-4.15.07-1.03.26-2.13.36-3.25.1-1.07.44-2.14.5-3.23.06-1.11.88-2.24.84-3.29-.04-1.14-1.63-2.05-1.87-3.05-.27-1.13.41-2.65-.23-3.46-.72-.92-1.6-1.72-2.33-2.65-.72-.92-2.04-1.37-2.78-2.29-.74-.91-1.04-2.2-1.81-3.08-.78-.88-1.76-1.58-2.59-2.41-.83-.83-1.71-1.61-2.61-2.37-.9-.76-2.03-1.18-3-1.83-.97-.65-2.08-.95-3.14-1.47-1.04-.51-1.97-1.12-3.11-1.48-1.09-.35-2.16-.66-3.35-.86-1.19-.2-2.36-.37-3.57-.44-1.21-.07-2.39.37-3.61.38-1.21,0-2.43-.81-3.64-.76-1.21.05-2.42.33-3.63.37-1.22.04-2.39-.34-3.6-.34-.02-.26-.07.06-.09-.2-1.13.32-2.46-.38-3.66-.14-1.2.23-2.25,1.14-3.38,1.47-1.19.35-2.03,1.15-2.98,1.83-1.02.73-2.24,1.09-3.12,1.87-.94.83-1.91,1.57-2.7,2.44-.84.92-1.52,1.93-2.2,2.9-.71,1.02-1.46,1.99-2,3.04-.53,1.02-1.4,1.91-1.78,2.96-.39,1.07.34,2.46.11,3.55-.24,1.11-1.04,2.1-1.13,3.21-.1,1.12-.09,2.26-.04,3.39.04,1.12.98,2.12,1.16,3.24.2,1.25.16,2.48.52,3.7.35,1.21.99,2.26,1.48,3.44.48,1.16.84,2.33,1.45,3.44.61,1.1,1.16,2.2,1.88,3.25.72,1.04,1.63,1.88,2.45,2.84.82.96,1.18,2.33,2.1,3.21.91.88,2.19,1.31,3.19,2.09,1,.78,1.59,2.13,2.66,2.8.95.6,1.98,1.12,2.98,1.64,1,.52,2.37.22,3.41.68,1.03.45,1.71,1.74,2.77,2.14,1.05.4,2.36.09,3.43.46,1.06.37,2.18.55,3.25.9,1.07.35,2.13.74,3.2,1.09,1.07.35,1.93,1.34,2.99,1.7Z"/>
  <path class="cls-3" d="M1846.04,327.52c-.5-1.17-2.09-1.75-2.71-2.72-.67-1.06-1.55-1.83-2.33-2.69-.84-.92-1.39-2.02-2.33-2.75-.97-.75-1.97-1.41-3.01-2-1.06-.6-2.08-1.29-3.17-1.76-1.12-.48-2.18-1.17-3.3-1.57-1.16-.41-2.31-.82-3.43-1.19-1.19-.39-2.49-.28-3.57-.69-1.24,0-2.39-.28-3.47-.26-1.26.03-2.41.17-3.48.25-1.27.09-2.36.63-3.4.79-1.28.2-2.56-.2-3.55.14-1.18.41-1.72,1.76-2.61,2.42-.91.66-2.23.86-2.99,1.82-.65.83-1.51,1.69-2.16,2.78-.59,1-1.15,1.99-1.78,2.97-.63.97-1.04,2.08-1.68,3.05-.64.97-.94,2.15-1.56,3.13-.63.98-1.32,1.9-1.91,2.9-.65,1.1-.9,2.47-1.48,3.66-.6,1.24-1.38,2.25-1.46,3.51-.09,1.27-.08,2.53-.13,3.8-.05,1.27.17,2.53.16,3.8-.01,1.27-.61,2.53-.59,3.8.01,1.27-.18,2.54-.14,3.81.04,1.27.07,2.54.12,3.81.05,1.21.15,2.42.37,3.55.23,1.18,1.52,2.01,1.91,3.09.41,1.12-.15,2.64.41,3.66.57,1.04,1.22,2.1,1.94,3.03.72.93,1.85,1.55,2.69,2.37.85.82,1.97,1.28,2.92,1.98.94.7,2.04,1.06,3.07,1.64,1.02.58,1.75,1.71,2.83,2.16,1.08.46,2.03,1.44,3.15,1.78,1.13.34,2.54-.37,3.69-.15,1.16.22,2.34-.18,3.5-.09,1.19.09,2.31,1.36,3.47,1.31,1.19-.05,2.33-.67,3.47-.87,1.18-.2,2.6.42,3.7.06,1.17-.39,2.34-.92,3.42-1.41,1.12-.5,2.06-1.45,3.08-2.05,1.06-.62,2-1.42,2.95-2.15.97-.74,1.34-2.11,2.19-2.95.86-.85,1.9-1.46,2.64-2.42.74-.95,1.3-1.97,1.92-3.02.6-1.03,1.52-1.89,2.01-3.02.47-1.09-.13-2.53.23-3.71.34-1.13,1.57-2.02,1.8-3.23.22-1.16.87-2.31.99-3.54.16-1.66,1.47-3,2.35-4.55.64-1.13,1.42-2.4,1.75-3.63.34-1.24.36-2.73.38-4.01.02-1.28-.81-2.57-1.09-3.82-.28-1.24-.44-2.59-1.02-3.74-.58-1.13-1.38-2.22-2.24-3.19-1.08-1.21-1.92-2.46-2.52-3.87Z"/>
  <g>
    <path d="M1684.61,230.79c-.26-1.7,1.53-3.71,1.46-5.54-.06-1.77-1.81-3.55-1.79-5.33.01-1.82,2.05-3.63,2.02-5.34-.03-2.09-2.43-3.6-2.89-5.33-.51-1.92-.04-3.97-.81-5.68-.79-1.75-1.88-3.34-2.64-5.13-.73-1.7-1.58-3.51-2.01-5.48-.27-1.24-.08-3.04-.78-4.88-.54-1.41-1.89-2.65-2.59-4.26-.64-1.46-.31-3.42-1.02-4.95-.69-1.49-3.08-2.19-3.79-3.66-.74-1.52-.98-3.25-1.68-4.66-.79-1.59.24-3.97-.42-5.3-.93-1.87-3.98-2.29-4.46-3.31-.64-1.33-.39-3.23-1.51-4.6-.98-1.19-1.65-2.85-2.86-4.02-1.15-1.11-2.47-2.13-3.73-3.19-1.25-1.05-3.31-1.1-4.58-2.07-1.34-1.03-1.37-3.74-2.62-4.64-1.45-1.06-2.99-1.76-4.14-2.6-2.01-1.46-3.75-1.86-4.08-2.39-.75-1.21-1.73-2.67-3.01-3.91-1.08-1.05-2.47-2.03-3.81-3.07-1.24-.96-2.18-2.53-3.55-3.44-1.33-.89-3.28-.91-4.66-1.74-1.41-.84-2.56-2.13-3.94-2.89-1.48-.81-3.37-.73-4.72-1.42-1.6-.81-2.76-2.17-4.05-2.75-2.25-1.03-4.28-.29-4.88-.43-1.61-.35-2.89-2.14-4.49-2.55-1.6-.41-3.24-.63-4.83-1.07-1.59-.44-3.1-1.16-4.69-1.61-1.59-.45-3.47.14-5.06-.31-1.59-.45-3.02-1.47-4.61-1.89-1.6-.42-3.32-.3-4.93-.68s-2.93-2.09-4.55-2.4c-1.62-.32-3.28-.66-4.91-.9-1.55-.22-3.23.36-4.79.17-1.56-.19-3.02-1.49-4.59-1.64-1.57-.15-3.21.19-4.78.1-1.57-.09-3.19,1.02-4.76,1-1.58-.01-3.1.65-4.66.72-1.58.08-3.06.31-4.62.5-1.67.2-3.67-1.9-5.34-1.63-1.66.27-2.86,3.13-4.52,3.45-1.65.33-3.57-.66-5.21-.28-1.64.38-3.27.83-4.9,1.24-1.64.41-3.23.98-4.86,1.41-1.63.43-3.13,1.35-4.75,1.79-1.63.45-3.59-.32-5.21.13-1.75.48-3.71.37-5.51.88-1.78.51-3.53,1.32-5.26,1.93-1.77.62-3.62,1.3-5.24,2.11-1.68.84-2.71,2.82-4.13,3.95-1.21.96-3.34.81-4.99,1.76-1.41.81-2.74,1.95-4.35,2.79-1.49.77-2.28,3.02-3.85,3.84-1.52.79-2.9,1.81-4.42,2.67-1.51.85-4.28-.35-5.72.59-1.47.96-1.99,3.28-3.3,4.35-1.37,1.12-3.32,1.64-4.43,2.91-1.18,1.34-1.57,3.34-2.69,4.67-1.15,1.37-2.18,2.8-3.28,4.15-1.13,1.39-2.2,2.78-3.28,4.14-1.11,1.41-2.11,2.85-3.16,4.23-1.08,1.43-2.32,2.7-3.34,4.1-1.06,1.46-1.55,3.26-2.54,4.67-1.04,1.48-3.52,1.91-4.47,3.34-1.01,1.5-1.05,3.6-1.97,5.03-.99,1.53-3.27,2.19-4.16,3.64-.97,1.57-.71,3.79-1.56,5.24-.94,1.61-2.48,2.77-3.28,4.22-.92,1.67-1.52,3.37-2.26,4.8-.92,1.78-1.32,3.56-1.96,4.93-1.03,2.2-2.17,3.69-2.51,4.71-.55,1.65-.98,3.34-1.49,5.01-.51,1.66-.92,3.36-1.38,5.04-.46,1.68.58,3.72.17,5.41-.41,1.69-1.35,3.23-1.69,4.93-.34,1.71-1.27,3.29-1.54,5.01-.27,1.72-.82,3.41-1.01,5.13-.18,1.63-.8,3.25-.92,4.9-.12,1.64-.54,3.31-.59,4.96-.05,1.65,1.66,3.32,1.69,4.97.03,1.65-.38,3.3-.27,4.94.12,1.65.02,3.32.24,4.95.22,1.64,1.18,3.13,1.52,4.74.36,1.69-.65,3.7-.24,5.39.41,1.68,2.81,2.85,3.26,4.52.45,1.67-1.27,3.95-.79,5.61.48,1.66,2.94,2.74,3.45,4.4.5,1.66.36,3.51.88,5.16.51,1.65,1.09,3.29,1.6,4.94.52,1.65,1.66,3.12,2.17,4.77.51,1.66-.61,3.81-.12,5.47.49,1.66,1.12,3.27,1.58,4.94.48,1.74,2.24,2.98,2.74,4.53.54,1.68-.15,3.72.47,5.27.64,1.59.63,3.55,1.43,5.08.76,1.47,2.89,2.25,3.86,3.75.88,1.36,1.38,3.1,2.49,4.54.98,1.28,2.59,2.17,3.77,3.56,1.05,1.22,3.02,1.71,4.25,3.05.73.79,1.99,1.87,3.88,3.08,1.45.93,1.95,3.6,3.38,4.53,1.92,1.25,4.48,1.37,5.09,2.18,1.05,1.41.71,3.96,1.79,4.99,1.25,1.19,3.47,1.17,4.77,1.99,1.41.89,2.62,2.13,4.07,2.77,1.48.65,2.77,1.85,4.3,2.44,1.48.57,2.91,1.13,4.43,1.81,1.42.64,3.86-.56,5.3.34,1.29.81,2.43,2.16,3.74,3.29.34.3,1.83.99,4.2,2.03,1.29.56,2.56,1.75,4.2,2.44,1.4.59,2.43,2.38,3.99,3.02,1.46.6,3.21.64,4.71,1.24,1.51.61,3.32.45,4.79,1.03,1.56.62,2.85,1.77,4.27,2.33,1.66.65,3.18,1.26,4.5,1.75,2.37.89,4.22,1.05,4.73,1.16,1.3.29,3.3-.52,5.41-.16,1.59.27,3.08,2.3,4.95,2.59,1.69.26,3.49.35,5.28.62,1.75.26,3.61-.11,5.34.13,1.81.25,3.62.23,5.29.45,1.93.25,3.78-.13,5.32.06,2.64.31,4.45,1.71,5.15,1.72,1.38.03,3.17.3,4.97.04,1.57-.23,2.97-1.97,4.58-2.29,1.7-.34,3.44-.22,4.88-.52,2.42-.5,4.09.38,4.65.52,1.54.39,3.36.53,4.81.41,1.53-.13,2.43-2.58,3.8-3.19,1.37-.61,2.48-1.09,3.64-2.09,1.13-.97,2.8-1.29,3.66-2.55-.12,1.28-.91,2.82-1.15,4.78-.18,1.49-1.04,3.05-1.27,4.81-.21,1.56,1.35,3.44,1.12,5.14-.22,1.59-.67,3.21-.91,4.87-.23,1.62.37,3.39.13,5.02-.24,1.64-2.31,3.01-2.55,4.62-.25,1.67,1.35,3.6,1.1,5.18-.27,1.71-2.53,3.03-2.78,4.56-.29,1.79,1.12,3.72.86,5.16-.37,2.09-.33,3.9-.58,4.98-.39,1.71-1.77,3.2-2.19,4.91-.42,1.71-.39,3.55-.85,5.24-.47,1.7-2.49,2.93-3.03,4.6-.54,1.68-1.58,3.11-2.21,4.74-.64,1.64.35,3.95-.4,5.53-.76,1.59-1.13,3.46-2.03,4.97-.9,1.51-3.76,1.68-4.82,3.09-1.05,1.39-1.2,3.46-2.43,4.75-.98,1.03-2.07,2.65-3.67,4.04-1.28,1.12-3.46,1.4-4.92,2.59-1.41,1.15-1.52,3.98-2.92,5.07-1.54,1.21-4.26.76-5.54,1.74-2.28,1.73-3.26,4.04-3.69,4.28-1.44.79-3.62.22-5.13.99-1.47.75-2.82,1.74-4.34,2.44-1.51.7-2.84,1.79-4.38,2.43-1.55.65-3.42.36-4.97.93-1.59.58-2.77,2.2-4.35,2.68-1.63.49-3.4.24-4.99.6-1.61.37-2.99,1.97-4.64,2.27-1.63.3-3.5-.9-5.16-.68-1.65.22-3.25.56-4.91.7-1.66.13-3.26,1.22-4.93,1.25-1.66.04-3.33-.52-5-.58-1.66-.07-3.27-.54-4.93-.72-1.65-.18-3.33-.03-4.97-.33-1.77-.33-3.79.64-5.56.28-1.76-.36-3.43-1.22-5.19-1.61-1.75-.39-3.32-1.61-5.07-2.03s-3.39-1.22-5.13-1.68c-1.74-.46-3.92.68-5.65.19-1.73-.49-3.23-1.82-4.95-2.34-1.31-.4-1.89-2.42-3.17-3.21-1.25-.77-2.5-1.32-3.56-2.22-1.26-1.06-3.54-.87-4.34-1.75-.86-.96-2.23-2.12-3.36-3.66-.89-1.21,0-3.85-.98-5.27-.9-1.3-1.89-2.6-2.8-3.97-.91-1.36-1.63-2.86-2.51-4.18-.95-1.42-2.58-2.32-3.43-3.56-.87-1.28-1.78-2.59-2.45-4.18-.6-1.45-.56-3.15-1.01-4.78-.43-1.54-.83-3.08-1.15-4.71-.31-1.59-2.04-2.97-2.27-4.6-.23-1.63-.37-3.3-.54-4.91-.18-1.67-.29-3.33-.42-4.91-.14-1.73-.63-3.35-.74-4.87-.13-1.84-.54-3.44-.68-4.84-.29-2.82.66-5.76.02-5.76-1.14,0-2.83,1.41-5,1.73-1.47.22-3.32-.51-5.17-.18-1.54.28-3.15.97-4.91,1.31-1.58.31-3.05,1.62-4.77,1.97-1.6.33-3.33.33-5.03.68-1.62.34-3.55-.64-5.23-.28-1.63.34-2.79,3.06-4.46,3.42-1.64.34-3.34.48-5.01.83-1.65.34-3.7-1.21-5.36-.87-1.66.34-3.24,1.03-4.89,1.36-1.67.34-3.26.96-4.9,1.29-1.68.33-3.4.31-5.03.62-1.69.32-3.09,2.04-4.72,2.33-1.71.31-3.34.87-4.95,1.14-1.73.29-3.63-.79-5.22-.55-1.78.26-3.42.72-4.98.9-1.86.22-3.49,1.46-4.98,1.53-1.57.08-2.34.22-2.89,1.46-.55,1.24-.08,1.85.93,3.05,1.21,1.45,2.71,2.61,4.03,3.86,2,1.9,3.61,3.5,4.1,3.93,1.55,1.37,2.06,3.53,3.5,4.89,1.17,1.1,3.05,1.99,3.36,4.64.2,1.75.81,3.49,1.07,5.33.25,1.77,1.09,3.45,1.4,5.26.31,1.78-.34,3.73.03,5.51.37,1.78,1.64,3.32,2.08,5.07.45,1.78-1.56,4.24-1.03,5.94.55,1.77,3.64,2.62,4.28,4.27.53,1.37-.95,3.69-.28,5.21.61,1.4,1.84,2.6,2.53,4.06.66,1.41,2.73,2.15,3.44,3.57.71,1.42.22,3.44.95,4.81.76,1.42.87,3.19,1.62,4.52.82,1.44,1.79,2.75,2.58,4,.62.99,1.7,2.36,2.94,3.74.96,1.07,1.88,2.44,3.03,3.59,1.09,1.09,3.05,1.36,4.16,2.4,1.2,1.13,2.31,2.25,3.37,3.19,1.49,1.31,3.04,1.97,3.85,2.56,1.46,1.07,1.79,3.63,3.21,4.76,1.42,1.13,3.65,1.26,5.06,2.4,1.42,1.15,2.43,2.81,3.86,3.93,1.44,1.12,2.91,2.26,4.4,3.3,1.5,1.04,2.9,2.37,4.47,3.28,1.43.83,2.98,1.33,4.32,2.24,1.36.92,3.71.41,5.04,1.36,1.33.95,1.85,3.05,3.2,3.97,1.35.92,2.99,1.38,4.41,2.22,1.4.81,3.29.51,4.81,1.19,1.41.63,2.84,1.38,4.42,2.04,1.46.61,2.33,2.81,3.88,3.44,1.5.61,2.71,1.98,4.23,2.61,1.52.63,3.19.86,4.68,1.49,1.54.65,3.89-.61,5.34.04,1.56.7,2.95,1.71,4.33,2.4.4.2,1.69,2.12,4.34,2.6,1.44.26,3.26-.26,5.09.04,1.57.26,3.38-.4,5.1-.13,1.63.25,2.97,2.71,4.63,2.95,1.69.25,3.66-1.67,5.26-1.45,1.77.24,3.36,1.04,4.88,1.23,2,.24,3.7.44,4.97.54,1.84.14,3.54.41,5.16.51,1.82.12,3.51.53,5.15.61,1.77.09,3.45.93,5.15.98,1.7.05,3.42-.16,5.2-.14,1.65.01,3.36-.43,5.19-.44,1.62,0,3.33-.27,5.18-.29,1.64-.01,3.39,1.24,5,1.09,1.63-.15,3.19-1.2,4.8-1.46,1.61-.26,2.95-1.9,4.55-2.24,1.59-.34,3.3-.1,4.89-.49,1.58-.39,3.5.55,5.08.14,1.58-.41,2.65-2.83,4.23-3.22,1.58-.4,3.55.8,5.14.44,1.59-.36,3.11-.97,4.72-1.26,1.62-.29,3.3-.42,4.9-.8,1.6-.38,2.93-1.81,4.51-2.26,1.58-.46,3.3-.44,4.86-.96,1.56-.52,3.04-1.29,4.58-1.86,1.55-.57,2.66-2.19,4.19-2.8,1.53-.62,3.6.1,5.11-.55,1.74-.75,3.87-1,5.5-2.04,1.6-1.02,1.85-4.1,3.41-5.19,1.58-1.1,4.38-.32,6-1.29,1.65-.99,3.38-1.31,5.17-1.95,1.77-.64,2.7-3.19,4.28-4.01,1.65-.86,3.86-.74,5.33-1.78,1.51-1.06,2.4-2.91,3.75-4.13,1.36-1.22,2.67-2.46,3.9-3.82,1.22-1.35,2.55-2.61,3.67-4.07,1.11-1.43,2.98-2.37,4.03-3.88.86-1.24,1.07-2.96,1.81-4.29.73-1.32,2.17-2.3,2.85-3.66.67-1.35-.52-3.64.17-4.99.68-1.35,1.04-2.96,1.79-4.26.64-1.11,3.75-1.53,5.15-3.31,1.14-1.45.85-4.24,2.02-5.61,1.6-1.89,4.45-2.23,5.13-2.94.58-.61.95-3.12,2.25-5.28.92-1.53,1.66-3.35,2.53-4.91,1.24-2.23,3.17-3.73,3.47-4.45.47-1.14.39-2.98,1.01-4.93.45-1.42.82-3.04,1.33-4.78.43-1.5.35-3.25.82-4.93.42-1.54,1.37-3.01,1.81-4.66.42-1.57.5-3.27.92-4.9.41-1.59.64-3.24,1.05-4.86.41-1.61.96-3.18,1.36-4.78.4-1.62,2.58-2.8,2.97-4.39.4-1.65-.89-3.67-.52-5.24.4-1.67.9-3.26,1.27-4.81.41-1.72,2.25-3,2.6-4.49.43-1.82-.19-3.69.12-5.08.65-2.81,1.97-4.45,2-4.71.16-1.14-.11-2.96.14-5.16.18-1.49,1.14-3.12,1.35-5.01.18-1.58-1.74-3.52-1.55-5.32.18-1.62,2.31-3.12,2.5-4.89.17-1.65-.38-3.43-.2-5.18.17-1.66-.91-3.5-.73-5.23.17-1.68,2.38-3.17,2.55-4.89.17-1.69.21-3.41.38-5.12.17-1.7-.48-3.48-.31-5.19.17-1.7.16-3.43.33-5.12.17-1.71,1.6-3.29,1.77-4.97.17-1.72.08-3.45.25-5.12.17-1.74-.54-3.53-.37-5.18.17-1.75,1.45-3.35,1.61-4.99.17-1.78-1.22-3.64-1.06-5.25.18-1.82-.41-3.6-.26-5.17.18-1.93,2.27-3.46,2.4-4.92.25-2.71.88-4.51.92-5.1.1-1.68-.58-3.45-.44-5.2.14-1.69.06-3.43.22-5.17.16-1.7-.95-3.55-.77-5.29.18-1.7,1.24-3.33,1.44-5.06.19-1.7-.12-3.48.08-5.21.2-1.71.83-3.38,1.03-5.1.2-1.71,0-3.48.2-5.19.2-1.72.05-3.47.25-5.19.2-1.72.53-3.42.72-5.12.19-1.73.28-3.45.45-5.15.18-1.73,1.77-3.31,1.92-5.01.16-1.74-1.2-3.58-1.07-5.28.14-1.75,1.89-3.36,1.99-5.05.1-1.76.15-3.5.21-5.18.05-1.6.31-3.32.41-5.12.1-1.67.69-3.37.78-5.12.09-1.71.09-3.48.13-5.19.04-1.75-.72-3.52-.78-5.19-.07-1.8-1.81-3.32-2.06-4.91ZM1602.84,248.53c-.17,1.7.88,3.54.71,5.26-.17,1.7-1.37,3.29-1.59,5.01-.21,1.7-.08,3.43-.39,5.13-.3,1.69.31,3.59-.13,5.26-.44,1.66-1.29,3.23-1.91,4.85-.61,1.59-2.5,2.55-3.32,4.09-.8,1.49.35,4.24-.69,5.66-.99,1.35-2.36,2.65-3.59,3.93-1.18,1.22-3.64,1.07-4.66,2.21-1.06,1.19-1.81,2.56-2.97,3.73-1.05,1.06-1.96,2.31-3.31,3.41-1.13.91-2.57,1.54-4.04,2.52-1.47.98-2.1,3.07-3.42,3.86-1.51.9-2.88,1.97-4.27,2.65-1.55.76-3.61.14-5.12.65-1.56.52-3.05,1.14-4.7,1.43-1.55.28-3.1,1.54-4.84,1.64-1.72.1-3.52-.42-5.11-.46-2.03-.05-4.03.41-5.25.39-1.81-.6-3.08-3.04-4.77-3.59-1.81-.58-4.08.48-5.78-.07-1.79-.58-3.67-.81-5.37-1.4-1.76-.61-3.16-2.19-4.87-2.84-1.42-.55-3.06-.97-4.35-1.85-1.27-.86-1.61-3.12-2.87-3.98-1.56-1.06-2.94-2.47-4.52-3.52-1.6-1.07-4.22-.76-5.52-2.12-.92-.97-2.6-2.35-3.79-4.15-1.01-1.52-.11-4.4-1.02-5.88-1.5-2.44-3.73-3.81-3.96-4.04-1.35-1.33-2.82-2.24-3.77-3.36-1.28-1.5-1.24-3.48-1.95-4.7-1-1.75-3.51-2.66-3.73-4.08-.26-1.71,1.9-3.41,2.08-5.12.16-1.51-.97-3.17-1.04-5.05-.07-1.86,1.42-3.76,1.43-5.65.01-1.88-.22-3.72-.07-5.59.15-1.88-.08-3.77.25-5.61.33-1.87,1.67-3.39,2.24-5.16.53-1.65-.01-3.64.6-5.24.61-1.62,1.91-2.93,2.61-4.49.71-1.58.3-3.7,1.11-5.21.82-1.52,2.96-2.25,3.9-3.68.95-1.44,1.77-2.89,2.85-4.23,1.08-1.34,1.47-3.28,2.7-4.5,1.21-1.21,2.86-1.96,4.23-3.03,1.33-1.05,2.91-1.72,4.41-2.64,1.44-.88,2.74-2.02,4.34-2.77,1.57-.73,2.67-2.64,4.29-3.27,1.61-.63,3.46-.76,5.11-1.31,1.65-.55,3.56-.26,5.23-.74,1.67-.48,3.43-.57,5.11-1.01.74-.19,2.55-1.8,4.95-1.62,1.5.11,3.16,1.13,4.94,1.33,1.64.18,3.14,1.94,4.78,2.15,1.76.23,3.48.16,4.98.39,2.21.34,4.33-1.05,5.26-.82,1.33.32,3.38.73,5.34,1.59,1.57.69,2.3,3.52,3.96,4.35,1.68.84,3.35,1.6,4.84,2.38,2.02,1.07,3.62,2.2,4.66,2.76,1.41.75,3.23,1.01,4.7,2.25,1.32,1.11,2.74,2.2,3.98,3.52,1.25,1.33,1.94,3.06,2.97,4.42,1.21,1.6,2.19,3.09,3.03,4.67.95,1.79,3.04,2.96,3.62,4.63.69,2,1.11,3.98,1.42,5.61.5,2.67.58,4.76.67,5.7.17,1.7.78,3.35,1,5.06.22,1.72.72,3.48.83,5.19.11,1.73-2.24,3.44-2.42,5.14Z"/>
    <path d="M290.53,444.92c.04-1.58-.27-3.32-.28-5.13,0-1.61-.04-3.34-.09-5.13-.05-1.63-1.13-3.29-1.23-5.06-.09-1.64-.97-3.27-1.11-5.03-.13-1.64-.69-3.27-.86-5.02-.17-1.64,1.94-3.59,1.72-5.33-.2-1.65-2.5-3.05-2.76-4.78-.24-1.64.21-3.42-.08-5.14-.27-1.64-.21-3.38-.53-5.08-.3-1.64-.23-3.39-.57-5.09-.34-1.64-.34-3.39-.71-5.08-.39-1.77-1.58-3.36-2.04-5.11-.47-1.75-1.41-3.36-1.92-5.09-.51-1.74-1.56-3.3-2.1-5.03-.54-1.73-1.21-3.42-1.75-5.14-.54-1.73.86-4.06.34-5.79-.47-1.55-1.9-2.8-2.38-4.35s-.9-3.1-1.38-4.65c-.48-1.54.1-3.42-.39-4.96-.48-1.54-2.19-2.7-2.67-4.25-.48-1.54-1.44-2.94-1.92-4.48-.21-.67-1.24-2.21-2.47-4.6-.72-1.4.02-3.84-.88-5.58-.79-1.52-3.46-2.2-4.28-3.84-.8-1.6-1.16-3.47-1.9-5.06-.79-1.69-2.11-3.14-2.75-4.69-.77-1.88-1.56-3.75-1.94-5.19-.41-1.58.1-3.36-.42-4.91-.52-1.54.65-3.73.05-5.26-.6-1.51-1.62-2.91-2.28-4.41-.66-1.49-2.48-2.46-3.18-3.94-.69-1.48-.81-3.23-1.51-4.7-.71-1.47-3.08-2.16-3.78-3.63-.7-1.48.44-3.81-.23-5.29-.45-1.02-.27-2.95-1.08-4.96-.56-1.39-1.31-2.91-1.98-4.62-.58-1.49-3.02-2.35-3.65-3.98-.59-1.54-1.45-3.02-2.06-4.6-.61-1.58.69-3.89.09-5.43-.62-1.62-3.07-2.49-3.64-3.99-.65-1.7-1.76-3.09-2.31-4.5-.76-1.96-.13-4.06-.57-5.17-.62-1.56-1.55-2.97-2.23-4.51-.68-1.53-1.75-2.87-2.47-4.38-.72-1.51-.39-3.53-1.12-5.04-.73-1.51-2.42-2.55-3.14-4.07-.72-1.51.08-3.73-.61-5.25-.71-1.58-3.07-2.42-3.79-4-.71-1.58-1.93-2.94-2.64-4.52-.71-1.58.13-3.86-.58-5.44s-1.2-3.26-1.91-4.84c-.7-1.58-.95-3.37-1.65-4.95-.7-1.59-2.15-2.84-2.84-4.43-.69-1.59-.66-3.49-1.35-5.08-.69-1.59-2.04-2.9-2.71-4.49-.71-1.67-.54-3.64-1.16-5.35-.62-1.71-3.55-2.6-4.14-4.32-.59-1.72.68-4.1.05-5.8-.64-1.7-.74-3.71-1.49-5.36-.77-1.69-3.47-2.47-4.29-4.14-.82-1.67-2.32-2.97-3.16-4.62-.84-1.65-.77-3.77-1.62-5.43-.85-1.65-1.18-3.57-2.01-5.23-.83-1.66-1.55-3.37-2.34-5.05-.79-1.68-.87-3.65-1.6-5.36-.63-1.49-2.28-2.58-2.78-4.13-.5-1.54.49-3.52.06-5.09-.44-1.57-3.11-2.51-3.55-4.08-.44-1.57,1.04-3.72.54-5.26-.51-1.55-3.34-2.19-3.98-3.68-.46-1.07-.85-2.68-1.68-4.29-.71-1.39-.97-3.09-1.7-4.36-1.22-2.11-2-5.16-2.43-5.16-2.45.3-2.08.16-4.96.7-1.44.27-2.59,3.13-4.34,3.51-1.56.34-3.21.5-4.82.91-1.64.42-3.55-.26-5.05.22-1.74.56-2.76,2.34-4.02,2.98-1.42.71-3.65-.29-5.07.33-1.45.64-2.64,1.83-4.09,2.41-1.46.59-2.89,1.26-4.35,1.83s-3.46-.21-4.93.37c-1.46.57-1.89,3.7-3.35,4.31-1.44.6-3.27.26-4.71.93-1.09.51-2.41,1.75-4.21,2.46-1.37.54-2.96.98-4.56,1.58-1.46.55-3.61-.59-5.13-.04-1.52.55-2.76,1.91-4.22,2.43-1.6.57-3.26.76-4.65,1.24-1.83.63-3.16,1.88-4.29,2.26-1.79.6-3.65.29-4.96.83-1.76.73-2.66,2.53-3.94,3.2-1.51.79-3.75-.2-5.25.58-1.28.67-2.36,1.82-4.13,2.54-1.31.54-2.09,3.12-3.9,3.71-1.9.62-4.28-.69-5.85-.13-1.95.7-3.42,2.01-4.9,2.6-1.68.67-3.29,1.8-3.65,3.09-.41,1.43,1.01,2.22,2.83,3.07,1.36.63,1.93,3.1,3.34,3.78,1.42.68,3.12.76,4.46,1.42,1.5.74,2.74,1.78,3.99,2.4,1.88.93,3.56,1.31,4.35,1.68,1.1.52,3.05,1.07,5.09,2.28,1.47.87,2.52,2.77,4.16,3.85,1.55,1.02,3.14,1.96,4.6,3.07,1.58,1.2,3.82,1.48,5.03,2.66,1.69,1.65,3.47,3.28,3.77,4.58.35,1.5-.01,3.49.87,5.29.74,1.51,1.1,3.44,2.07,5.04.92,1.51,2.65,2.58,3.65,4.06,1.03,1.52,2.03,3.04,3.03,4.43,1.15,1.59,2.74,2.69,3.68,3.95,1.7,2.3,1.73,4.49,1.87,4.96.54,1.81,1.75,3.29,2.29,4.88.6,1.76,1.5,3.3,2.11,4.89.65,1.7-.3,3.97.35,5.59.66,1.63,3.44,2.41,4.1,4.1.62,1.59.34,3.58.98,5.34.57,1.58,1.16,3.23,1.74,5.03.41,1.28,1.97,2.71,2.78,4.69.64,1.57.43,3.65,1.15,5.35.72,1.7,2.72,2.87,3.36,4.44.81,1.98.46,4.18.89,5.46.55,1.62-.18,3.69.43,5.15.65,1.55,2.34,2.63,3.05,4.08.73,1.48,2.22,2.54,3.01,3.98.78,1.42-.17,3.85.67,5.3.8,1.38,3.82,1.52,4.67,2.99.86,1.48-.43,4.01.26,5.38.77,1.52,2.05,2.62,2.65,4.05.65,1.54,1.48,2.9,2,4.4.53,1.54.08,3.31.52,4.88.43,1.53,2.69,2.58,3.09,4.2.37,1.51.34,3.18.72,4.83.35,1.5-.81,3.44-.42,5.1.26,1.07,2.91,1.95,3.67,3.71.57,1.32.12,3.26.83,4.73.68,1.4,2.49,2.26,3.19,3.62.76,1.49,1.08,3.12,1.73,4.34,1.29,2.43,1.95,1.95,1.63,4.25-1.13-.19-2.66-1.74-4.92-1.85-1.57-.08-3.44,2.23-5.33,2.19-1.68-.04-3.43-.66-5.23-.68-1.74-.02-3.51.15-5.24.14-1.8,0-3.57-.41-5.24-.41-1.91,0-3.68.42-5.24.43-2.39.01-4.24.56-5.23.57-1.9.02-4.04-.74-6.05-.75-2.23,0-3.88.36-5.37,1.4-1.37.95-2.46,2.47-3.87,3.29-1.43.83-3.96-.34-5.44.38-1.48.73-3.21.75-4.73,1.39-1.52.64-2.4,2.83-3.94,3.41-1.54.58-3.28.61-4.85,1.14-1.56.54-3.12,1.07-4.68,1.59-1.56.52-2.96,1.53-4.53,2.06-1.59.54-2.84,2.08-4.43,2.64-1.59.57-3.18,1.04-4.75,1.66-1.58.62-3.43.47-4.96,1.17-1.55.7-3.41.75-4.89,1.55-1.49.81-3.2,1.36-4.6,2.29-1.37.92-1.51,3.48-2.79,4.54-1.27,1.05-2.65,1.88-3.85,3.04-1.19,1.14-3.14,1.53-4.28,2.73-1.14,1.2-2.52,2.2-3.63,3.43-1.11,1.23-.83,3.73-1.93,4.95-1.17,1.29-2.65,2.26-3.76,3.6-1.11,1.34-3.48,1.69-4.54,3.08-1.06,1.39-1.56,3.21-2.56,4.63-1,1.43-2.83,2.33-3.77,3.79-.88,1.36-.03,3.81-.84,5.22-.82,1.4-2.49,2.32-3.27,3.74-.79,1.42-1.69,2.78-2.48,4.2-.79,1.42-.37,3.56-1.2,4.95-.84,1.4-3.3,1.76-4.22,3.1-.92,1.35-1.52,2.85-2.55,4.11-1.16,1.41-3.04,2.45-3.86,3.94-.87,1.57-1.15,3.58-1.73,5.2-.59,1.67.29,3.76-.06,5.47-.35,1.73-2.36,3.23-2.55,4.97-.19,1.75,1.23,3.66,1.13,5.4-.1,1.77-1.13,3.48-1.23,5.21-.09,1.69-.19,3.44-.17,5.13.03,1.69,1.3,3.34,1.42,5.04.12,1.69-1.3,3.53-1.12,5.22.18,1.68,3.02,3.05,3.23,4.73.22,1.68-1.62,3.63-1.39,5.31.23,1.68.42,3.36.63,5.04.21,1.68,2.46,3.14,2.63,4.82.18,1.69-2.5,3.62-2.39,5.3.11,1.68,2.01,3.21,2.2,4.87.2,1.67,1.52,3.12,1.81,4.76.29,1.65-1.37,3.67-1,5.29.37,1.63,1.64,3.04,2.1,4.65.45,1.61,1.56,2.99,2.09,4.57.53,1.58-.47,3.71.14,5.28.6,1.56,3.13,2.31,3.8,3.85.67,1.53-.42,3.85.31,5.36.79,1.64,2.27,2.99,3.25,4.58.98,1.57,2.87,2.6,3.83,4.16.99,1.61,2.21,3.23,2.96,4.87.79,1.72.95,3.9,1.21,5.71.27,1.86.06,3.54.67,4.94.71,1.64,1.89,2.77,2.95,4,1.09,1.26,2.83,1.64,4.17,2.72,1.26,1.02,2.57,2.02,3.96,3.09,1.39,1.07,1.33,4.01,2.71,5.17,1.36,1.15,2.46,2.47,3.71,3.73,1.28,1.28,2.27,2.56,3.35,3.95,1.11,1.44,2.61,2.37,3.4,3.94.81,1.59,2.24,2.79,3.27,4.06,1.1,1.34,3.35,1.33,4.64,2.41,1.31,1.1,2.24,2.46,3.66,3.39,1.42.93,1.9,3.39,3.36,4.26,1.46.87,3.39.95,4.82,1.87,1.43.92,2.13,2.72,3.44,3.8,1.17.96,3.18,1.27,4.75,1.74,1.45.43,2.92,1.44,4.48,1.76,1.55.31,3.75-1.79,5.19-1.29.93.32,2.62,1.38,5.09,1.91,1.63.35,3.17,2.23,5.1,2.63,1.78.37,4.01-1.07,5.8-.68,1.9.42,3.51,1.85,5.15,2.27,2.26.58,4.28.76,5.39,1.3,1.65.79,3.37.49,4.95.8,1.72.35,3.23,2.01,4.91,1.95,1.7-.07,3.19-1.72,4.89-2.04,1.65-.31,3.66.97,5.35.58.98-.23,2.56-1.93,4.6-2.08,1.59-.12,3.35.31,4.92.24,2.22-.09,4.12.25,4.88.28,1.71.08,3.47.73,5.12.6,1.69-.13,3.08-2.42,4.72-2.72,1.66-.3,3.66,1.04,5.28.59,1.62-.44,2.62-2.84,4.21-3.39,1.59-.55,3.21-.87,4.78-1.48,1.57-.61,3.75.34,5.31-.3,1.56-.64,3.28-.86,4.84-1.49,1.56-.63,2.8-2.06,4.38-2.65,1.58-.59,3.39-.44,4.99-.95,1.45-.46,3.16-1.26,5.14-1.92,1.62-.54,3.3-1.35,5.12-1.97,1.69-.57,3.51-.96,5.25-1.57,1.73-.61,3.07-2.36,4.76-2.97,1.79-.64,3.38-1.63,5-2.23,1.89-.7,4.1-.14,5.58-.73,2.68-1.07,5.12-1.48,5.53-1.89,1.25-1.23.76-4.21,2.01-5.43,1.24-1.23,2.67-2.27,3.92-3.5,1.24-1.23,3.71-1.22,4.95-2.45,1.24-1.23,1.83-3.11,3.07-4.35,1.24-1.24,2-2.94,3.23-4.18,1.23-1.24,4.05-.91,5.27-2.16,1.23-1.24,1.13-3.8,2.35-5.04,1.22-1.25,2.33-2.6,3.55-3.86,1.22-1.25,3.84-1.15,5.05-2.41,1.21-1.26.79-4.08,2-5.35,1.11-1.16,3.63-1.06,4.73-2.28,1.09-1.21,1.11-3.34,2.12-4.61,1.02-1.29,2.67-2.1,3.53-3.46.88-1.39,1.13-3.11,1.77-4.58.67-1.54,2.04-2.79,2.65-4.34.62-1.56-.47-3.74.08-5.31.56-1.58,1.06-3.12,1.56-4.72.5-1.6,1.13-3.11,1.56-4.73.43-1.62,1.28-3.1,1.65-4.73.37-1.63.06-3.37.37-5.01.31-1.64,1.61-3.09,1.85-4.75.24-1.65,1.79-3.16,1.97-4.83.18-1.66-1-3.46-.88-5.13.11-1.67.55-3.32.6-5,.05-1.67.44-3.35.43-5.03,0-.62.91-2.21,1.16-4.95.13-1.42-.64-3.21-.52-5.18.09-1.54,1.13-3.22,1.18-5.08ZM198.67,458.71c-.02,1.69.07,3.35.04,4.91-.03,1.8-1.5,3.44-1.54,4.87-.08,2.83,2.35,5.53,2.25,5.68-.92,1.45-2.69,2.36-3.59,3.84-.89,1.48-1.25,3.29-2.16,4.75-.92,1.47-2.01,2.87-3,4.27-.99,1.42-3.46,1.68-4.57,3-1.11,1.31-1.62,3.11-2.9,4.28-1.25,1.15-2.79,1.9-4.25,2.87-1.4.93-2.52,2.41-4.15,3.13-1.48.66-3.35.48-4.83,1.16-1.47.68-2.42,2.49-3.89,3.18-1.47.7-3.78-.4-5.25.3-1.47.7-2.69,1.89-4.16,2.58-1.47.69-2.04,3.33-3.52,4-1.48.67-3.78-.52-5.27.12-.97.42-2.75.98-5.13.73-1.75-.19-3.61-.93-5.37-1.17-2.33-.32-4.34.85-5.4.99-1.9.22-3.57-.2-4.82-.32-1.88-.18-2.4-2.34-3.61-3.09-1.19-.74-2.44-1.32-3.9-2.39-1.07-.78-3.04-.58-4.67-1.43-.43-.22-2.21-1.54-4.56-2.75-1.5-.78-4.24-.31-5.59-1.47-1.43-1.24-1.06-3.92-1.44-5.57-.36-1.57-2.36-1.67-3.28-3.11-.82-1.27-2.03-2.6-3.14-3.96-.97-1.17-1.54-3.17-2.64-4.53-.97-1.19-2.21-2.35-3.21-3.76-.43-.61.4-3.17-.69-5.47-.63-1.33-3.12-2.13-3.79-3.92-.55-1.48-1.64-3.01-2.14-4.75-.45-1.56.42-3.59.07-5.33-.33-1.61-.9-3.27-1.1-5.01-.19-1.65-.72-3.37-.77-5.11-.04-1.67,1.18-3.35,1.31-5.08.12-1.66-.71-3.5-.4-5.2.3-1.64,2.3-2.89,2.79-4.56.47-1.6-.67-3.79,0-5.4.64-1.53.93-3.4,1.77-4.93.8-1.45,3.16-2.04,4.16-3.48.97-1.4,2.15-2.61,3.22-3.96,1.06-1.34,2.5-2.29,3.65-3.57,1.14-1.28,1.69-3.05,2.91-4.25,1.22-1.2,2.98-1.75,4.27-2.87,1.3-1.12,2.14-2.73,3.51-3.74,1.39-1.04,3.43-1.25,5.3-2.14,1.73-.82,2.76-3.85,4.61-4.33,1.98-.51,4.23,1.17,6.02,1.28,3.07.19,3.18-2.28,5.2-2.72,1.2-.26,3.31.63,6.12-.37,2.14-.76,3.5-2.26,4.98-2.69,1.64-.49,3.75.41,5.98,1.12,1.27.4,3.27,1.09,5.63,1.11,1.91.02,3.98.06,5.82,0,2.97-.09,4.81.39,5.19.67,1.51,1.12,3.78,1.17,5.39,2.16,1.61.98,2.44,3.21,4.04,4.2,1.6.99,4.5.1,5.98,1.25,1.48,1.14,1.49,3.87,2.74,5.31,1.19,1.37,4.3,1.61,5.18,3.38.71,1.42,1.17,2.82,2.07,4.16.89,1.33,1.34,2.93,2.27,4.24.93,1.31.42,3.55,1.26,4.9.85,1.37,1.38,2.66,1.98,4.13.65,1.6,3.56,2.61,3.83,4.38.27,1.71.2,3.63.27,5.4.06,1.77-1.11,3.58-1.1,5.3,0,1.41,1.3,3.09,1.29,4.91,0,1.55-1.87,3.2-1.89,4.9-.02,1.62.6,3.29.58,4.92Z"/>
    <path d="M2538.81,421.55c.08-1.46-1.14-3.34-1.36-5.31-.19-1.67.25-3.59-.09-5.35-.34-1.78-2.03-3.24-2.46-4.85-.52-1.99.4-4.27-.13-5.54-.72-1.71-2.62-2.76-3.24-4.23-.72-1.69-2.16-2.87-2.84-4.32-.76-1.62-.62-3.52-1.45-4.98-.83-1.46-1.8-2.8-2.83-4.26-.93-1.31.98-2.56-.22-3.97-1.02-1.21-1.16-3.38-2.44-4.74-1.44-1.53-4.29-1.76-5.72-3.31-1.43-1.55-1.21-4.67-2.69-6.17-1.19-1.21-3.31-1.56-4.53-2.77-1.24-1.23-2.44-2.5-3.9-3.36-1.52-.9-3.26-1.42-4.78-2.32-1.52-.9-2.89-2.04-4.42-2.93s-2.64-2.51-4.17-3.37c-1.54-.87-3.54-.91-5.09-1.74-1.56-.84-3.56-.77-5.14-1.56-1.58-.79-3.15-1.49-4.76-2.22-1.5-.68-2.79-1.89-4.47-2.5-1.57-.56-3.31-.63-5.01-1.13-1.62-.47-3.21-1.04-4.91-1.46-1.65-.4-3.35-.52-5.06-.87-1.67-.34-3.18-1.54-4.89-1.84-1.69-.29-3.41-.44-5.11-.69-1.71-.25-3.3-1.35-5-1.56-1.72-.21-3.44-.45-5.14-.61-1.74-.17-3.43-.8-5.12-.92-1.76-.13-3.58,1.38-5.25,1.3-1.78-.09-3.45-1.68-5.1-1.72-1.82-.04-3.57,1.02-5.18,1.03-1.42,0-3.23.35-5.33.72-1.63.29-3.24,1.4-5.11,1.84-1.7.4-3.58.31-5.36.8-1.75.48-3.72.21-5.42.72-1.8.54-3.22,2.08-4.84,2.62-1.9.62-4.26-.53-5.73.02-2.97,1.1-4.47,3.12-4.47,3.43-.2-2.47.5-2.17.13-5.01-.2-1.49-1.08-3.11-1.41-4.82-.32-1.65-.8-3.29-1.27-4.79-.57-1.85-.91-3.68-1.74-4.7-1.4-1.73-1.71-3.76-2.7-5.24-1.12-1.68-3.36-2.42-4.52-4.06-1.03-1.45-2.88-2.25-4.4-3.89-1.25-1.35-1.13-4.03-2.46-5.27-1.34-1.26-2.4-2.91-3.81-4.07-1.41-1.17-4.33-.43-5.79-1.53-1.46-1.09-2.85-2.24-4.35-3.29-1.5-1.04-3.12-1.86-4.66-2.87-1.53-1-2.49-2.86-4.04-3.85-1.36-.87-2.15-2.71-3.52-3.5-1.4-.8-3.78.24-5.2-.47-1.44-.72-2.73-1.61-4.2-2.24-1.48-.63-2.34-2.86-3.85-3.39-1.51-.52-3.51.46-5.06.04-1.54-.41-2.83-1.95-4.42-2.26-1.56-.3-3.18-.65-4.79-.84-1.72-.2-3.58.82-5.3.6-1.71-.22-3.39-.79-5.1-1.01-1.72-.22-3.37-.93-5.09-1.14-1.72-.21-3.61,1.24-5.33,1.06-1.72-.18-3.37-.83-5.1-.95-1.73-.13-3.39-1.25-5.12-1.31-1.15-.04-3.06-.67-5.14-.31-1.47.25-2.95,1.58-4.72,1.97-1.55.34-3.24.49-4.91.91-1.59.39-3.03,1.52-4.64,1.95-1.62.43-5.62-.51-7.18-.07-1.66.46-2.83,2.51-4.34,2.94-1.76.51-3.58.27-4.98.68-2.29.68-4.27.34-5.04.58-1.57.49-2.43,2.9-3.95,3.58-1.5.68-3.27.74-4.71,1.57-1.42.83-2.71,1.86-4.06,2.82-1.34.95-2.69,1.89-3.95,2.96-1.27,1.06-1.91,2.76-3.09,3.91-1.19,1.15-2.79,1.85-3.89,3.07-1.12,1.24-1.95,2.67-2.97,3.94-1.09,1.37-2.59,2.39-3.69,3.72-1.12,1.34.16,3-.96,4.31-1.12,1.33-2.17,2.71-3.28,4.03-1.12,1.33-3.76,1.39-4.85,2.74-1.1,1.34-1.64,3.15-2.7,4.53-1.06,1.37-2.2,2.7-3.21,4.12-1,1.4-.72,3.68-1.68,5.15-.69,1.07-1.55,2.48-2.42,4.43-.64,1.42-1.22,3.03-1.92,4.79-.61,1.52-2.24,2.75-2.88,4.45-.59,1.58-.66,3.4-1.26,5.07-.58,1.61-1.94,2.98-2.51,4.63-.57,1.64-1.09,3.31-1.64,4.93-.57,1.67.35,3.82-.19,5.42-.57,1.71-2.9,2.77-3.41,4.33-.59,1.78.58,4.01.08,5.49-.66,1.98-3.19,2.99-3.63,4.25-.47,1.35-.62,3.06-1.26,4.8-.54,1.45-.81,3.13-1.43,4.77-.57,1.49-.78,3.19-1.39,4.79-.58,1.52-.6,3.3-1.2,4.86-.59,1.54-2.2,2.71-2.79,4.26-.6,1.56-.06,3.55-.64,5.07-.61,1.59-2.13,2.79-2.69,4.29-.62,1.64-2.26,2.82-2.79,4.27-.63,1.74-1.12,3.37-1.58,4.74-.79,2.34.32,4.48.26,5.23-.23.87-1.35,2.59-2.29,4.89-.59,1.44-.21,3.57-.98,5.34-.67,1.54-3.5,2.25-4.24,3.92-.71,1.6-1.24,3.31-1.96,4.91-.75,1.65-.6,3.68-1.31,5.21-.8,1.73-1.92,3.19-2.6,4.62-.99,2.07-2.68,3.26-3.22,4.26-.57,1.07-1.56,2.22-2.95,3.74-1.08,1.18-.95,3.72-2.19,4.93-1.27,1.24-3.53,1.42-4.66,2.46-1.97,1.82-2.39,4.24-2.62,4.51-1.3,1.53-3.66,1.35-5.02,2.17-1.54.94-2.6,2.45-4.11,3.35-1.39.82-3.41,1.8-4.69,3.33,1.54.57,3.41,1.93,5.02,2.53,1.55.58,3.22.94,4.82,1.53,1.57.58,3.78-.57,5.38,0,1.58.57,3.1,1.28,4.69,1.83,1.5.52,2.38,2.86,3.89,3.36,1.5.5,3.29.18,4.79.68,1.51.5,2.65,2.09,4.16,2.59,1.51.49,3.08.8,4.58,1.3,1.51.5,3.56-.64,5.06-.14,1.5.51,2.48,2.55,3.98,3.07,1.74.6,3.6.64,5.21,1.14,1.74.54,3.55.59,5.2,1.04,1.72.47,3.08,2.23,4.77,2.66,1.69.43,3.55.22,5.29.66,1.66.42,3.49.34,5.25.81,1.64.43,3.09,1.73,4.86,2.23,1.42.41,3.89-.29,5.87-1.07,1.53-.59,2.81-1.77,3.5-4.15.47-1.6,2.1-2.89,2.76-4.59.63-1.61-.01-3.78.68-5.41.69-1.64,2.56-2.79,3.2-4.39.69-1.7-.33-3.95.19-5.54.57-1.76,2.45-3.05,3-4.75.57-1.74.02-3.83.58-5.53.56-1.72,1.82-3.21,2.39-4.94.57-1.71.68-3.58,1.27-5.31.57-1.69,2.29-3.02,2.9-4.77.59-1.71,1.55-2.99,2.08-4.34.63-1.61.41-3.34,1.03-4.76.62-1.42.2-3.3.9-4.88.59-1.33,2.88-2.06,3.59-3.72.28-.66.47-2.73,1.2-5.29.42-1.49.77-3.26,1.29-5.15.44-1.61-.22-3.65.27-5.43.46-1.67,2.3-3.01,2.78-4.74.47-1.71-.75-3.91-.28-5.59.49-1.75,1.2-3.41,1.68-5.05.53-1.82.99-3.56,1.47-5.12.62-2,2.46-3.31,2.95-4.62.63-1.71.98-3.47,1.85-4.99.88-1.56,1.32-3.41,2.29-4.88.98-1.49,2.77-2.45,3.69-3.97.91-1.52.57-3.61,1.25-5.27.66-1.6,2.1-2.89,2.39-4.72.24-1.54,1.26-2.93,1.89-4.52.59-1.48.83-3.15,1.66-4.62.8-1.41,2.58-2.18,3.53-3.52.96-1.36,1.66-2.81,2.69-4.04,1.1-1.31,2.44-2.23,3.52-3.34,1.27-1.3,1.95-2.9,3.06-3.81,1.9-1.56,2.8-3.67,3.57-3.64,2.61-1.08,2.89.84,5.91-.58,1.52-.72,3.01-1.96,4.93-2.69,1.72-.65,3.26-2.04,5.1-2.52,1.86-.49,3.87.44,5.69.3,1.79-.14,3.32-.04,4.97.07,1.78.12,3.32.21,4.93.57,1.74.39,3.86-.78,5.39-.18,1.67.65,3.62.88,5.04,1.68,1.59.9,2.82,2.41,4.09,3.38,1.53,1.17,2.71,2.58,3.76,3.63,2.15,2.14,3.27,3.97,3.32,4.09.81,1.95.27,4.19.95,5.87.72,1.8,2.66,3.05,3.32,4.92.59,1.68,1.3,3.45,1.91,5.49.35,1.16,1.44,2.75,1.79,4.38.43,1.98.89,4.21.82,4.91-.07.76-2.36,2.68-2.9,5.44-.34,1.73.96,4.5.52,6.48-.43,1.91-2.23,3.08-2.69,4.85-.58,2.22.27,4.71-.26,6.05-.59,1.49-1.97,2.65-2.49,4.18-.52,1.51-1.18,2.98-1.65,4.52-.47,1.53-2.04,2.75-2.48,4.3-.44,1.54-.3,3.25-.73,4.8-.43,1.55.06,3.36-.38,4.9-.44,1.55-1.03,3.06-1.5,4.58-.48,1.54-1.04,3.05-1.57,4.56-.6,1.7-1.64,3.24-2.29,4.91-.65,1.68-1.99,3.07-2.67,4.73-.68,1.67-1.14,3.42-1.84,5.07-.7,1.66.11,3.95-.59,5.61-.7,1.66-1.88,3.1-2.56,4.77-.68,1.67-.86,2.75-1.49,4.44-.63,1.68-.44,3.69-1.02,5.4-.83,2.46-1.43,3.96-2.02,5.02-1.1,2.01-2.45,2.69-2.69,5.21-.12,1.21-.78,2.78-.71,5.34,0,.23-.72,2.68-1.99,5.12-.77,1.5-1.33,3.33-2.11,4.82-1.27,2.43-3.01,4-3.09,4.22-.61,1.79-1.97,3.12-2.59,4.57-.76,1.78-1.99,2.99-2.76,4.32-1,1.7-2.14,2.7-3.16,3.82-1.31,1.45-1.8,3.19-3.14,4-1.56.94-3.14,1.47-4.72,2.05-1.6.59-2.97,1.68-4.57,2.47-1.43.71-3.43.84-4.85,2.14-1.89,1.74-1.56,3.68-1.52,4.99.05,1.39.09,3.26,2.65,4.26,1.72.67,3.45,1.34,5.17,2,1.73.66,3.72.6,5.45,1.25,1.73.64,3.65.77,5.38,1.41,1.73.64,3.38,1.5,5.11,2.13,1.74.63,3.46,1.3,5.19,1.92,1.74.63,3.1,2.27,4.84,2.9,1.44.52,3.11.66,4.68,1.27,1.46.57,2.77,1.63,4.31,2.26,1.47.6,3.35.3,4.86.93,1.48.62,3.06,1.05,4.56,1.68,1.49.63,2.47,2.5,3.95,3.12,1.51.63,2.94,1.41,4.41,2.02,1.53.64,3.9-.88,5.35-.3,1.57.63,2.95,1.5,4.38,2.05,2.68,1.02,4.12,1.52,5.58.72,1.48-.81,1.77-2.3,2.31-5.1.34-1.76,2.81-3.05,3.52-4.93.66-1.74.99-3.63,1.81-5.38.82-1.74,1.04-3.78,1.87-5.45.9-1.8.8-3.97,1.53-5.58.72-1.6,3.28-2.35,3.94-3.9.68-1.61-.35-3.89.28-5.46.65-1.61,1.11-3.26,1.74-4.85.63-1.6,3.47-2.32,4.1-3.92.63-1.59.46-3.49,1.12-5.1.64-1.57.36-3.55,1.04-5.16.66-1.55,1.06-3.27,1.78-4.87.7-1.55,3.3-2.28,3.94-3.86.64-1.57.56-3.45,1.14-5.04.59-1.59,1.05-3.24,1.6-4.85.55-1.61.98-3.26,1.5-4.87.52-1.62.68-3.35,1.19-4.97.51-1.62.7-3.34,1.21-4.96.51-1.62,2.03-2.92,2.55-4.53.53-1.62-.2-3.65.35-5.26.55-1.61,1.81-2.97,2.41-4.56.59-1.59,2.25-2.75,2.89-4.32.71-1.73.02-3.97.69-5.61.71-1.72,1.32-3.44,2.02-5.07.72-1.7,2.34-2.96,3.1-4.59.77-1.66.77-3.68,1.61-5.29.84-1.6,3.02-2.43,3.97-4,.92-1.52,2-2.89,3.07-4.42,1.02-1.44.74-3.9,1.93-5.36.21-.25,1.71-1.63,3.32-3.74.93-1.22,1.58-2.91,2.64-4.29,1.06-1.38,1.85-2.98,2.79-4.18,1.72-2.2,3.81-3.7,3.95-3.71,1.96-.14,3.27-.76,4.52-1.17,1.9-.63,3.68-.29,4.78-1.08,1.35-.96,2.15-2.76,3.99-2.98,1.2-.14,2.87.21,4.94.77.98.27,3-.22,5.38.17,1.61.26,3.42.73,5.3,1.06,1.75.31,3.34,1.84,5.08,2.21,1.88.4,3.52,1.23,5.07,1.71,2.27.7,5.18.08,5.92.98.97,1.17,1.02,3.75,2.71,4.84,1.4.91,3.46,1.04,4.68,2.48,1.04,1.22,2.5,2.59,3.01,4.55.53,2.02.56,3.83,1.14,5.27.8,1.99,2.51,3.08,3.19,4.44.89,1.8-.34,3.85-.19,5.65.12,1.45.25,2.95.01,4.77-.2,1.54.96,3.45.58,5.14-.35,1.58-2.17,2.85-2.62,4.46-.44,1.6.51,3.62.04,5.18-.5,1.64-2.83,2.67-3.3,4.16-.55,1.74.65,3.87.24,5.26-.47,1.58-1.65,3.14-2.27,4.98-.55,1.64-.35,3.64-.98,5.41-.6,1.67-1.48,3.29-2.11,5.02-.62,1.69-1.37,3.36-2,5.05-.64,1.72-.7,3.63-1.31,5.29-.65,1.76-2.5,3.01-3.09,4.63-.67,1.83-.92,3.67-1.46,5.24-.46,1.34-2.34,2.7-3.04,4.7-.57,1.62-.84,3.49-1.48,5.24-.64,1.75-1.57,3.37-2.2,4.96-.78,1.98-1.52,3.64-2.14,4.91-.76,1.55-1.14,3.2-1.82,4.64-.73,1.55-1.27,3.12-1.94,4.57-.71,1.54-.5,3.45-1.17,4.92-.7,1.53-2.25,2.63-2.93,4.11-.69,1.51-.35,3.48-1.05,4.97-.7,1.48-2.1,2.64-2.84,4.15-.71,1.45-1.39,2.95-2.17,4.46-.74,1.42-.97,3.17-1.8,4.67-.77,1.39-1.45,2.92-2.31,4.41-.89,1.54-2.08,2.94-3.18,4.21-1.13,1.3-2.35,2.6-3.62,3.76-1.25,1.14-3.3,1.41-4.63,2.56-1.27,1.1-2.33,2.49-3.6,3.72-1.33,1.29-2.94,2.09-4.6,2.92-1.63.81-3.5,1.04-5.23,1.71-1.73.67-3.49,1.46-5.11,2.28-1.66.84-2.66,2.67-3.97,3.99-1.89,1.9-2.08,3.18-.79,3.88,1.02.55,2.99.2,4.52.8,2.31.92,3.74,1.67,5.05,2.52,1.31.86,2.81,1,5.14,1.88,1.76.66,3.11,2.05,4.66,2.67,1.69.67,2.84,2.51,4.45,3.15,1.62.63,3.34,1.05,5.06,1.67,1.58.57,3.43.58,5.23,1.15,1.5.47,3.44.69,5.29,1.43,1.68.67,3.72.68,5.36,1.36,1.9.79,3.65,1.43,5.06,1.95,1.8.67,2.74,3.42,4.42,4.09,1.77.7,4.12-.2,5.83.45,1.76.68,3.67.69,5.43,1.26,1.77.57,3.31,1.62,5.15,2.02,1.79.38,3.59.06,5.49.22,1.72.14,3.13,1.58,4.26.87.96-.61.41-2.39,1.11-4.2.6-1.54,3.01-2.36,3.67-3.87.66-1.52.36-3.46,1.06-4.96.7-1.5.72-3.34,1.44-4.83.73-1.49,2.76-2.34,3.49-3.82.74-1.48,1.64-2.88,2.37-4.37.73-1.49.87-3.26,1.58-4.75.72-1.51.83-3.3,1.54-4.82.71-1.51,2.48-2.53,3.19-4.05.71-1.52,1.42-3.03,2.13-4.54.71-1.52,2.23-2.65,2.94-4.16s.82-3.31,1.54-4.82c.78-1.64.52-3.77,1.29-5.41.77-1.65.95-3.56,1.71-5.21.76-1.65,2.76-2.73,3.53-4.37.77-1.65.83-3.63,1.61-5.27.78-1.64,2.53-2.81,3.34-4.44.81-1.63,1.53-3.29,2.37-4.9.84-1.61,1.52-3.3,2.4-4.89.89-1.59.9-3.59,1.7-5.15.83-1.61,1.97-3.01,2.72-4.6.77-1.63,1.42-3.27,2.12-4.89.71-1.64,1.27-3.32,1.93-4.97.66-1.65,3.04-2.65,3.66-4.33.62-1.66.27-3.69.87-5.39.58-1.66.41-3.6.99-5.32.56-1.66.97-3.4,1.54-5.13.55-1.66.96-3.4,1.53-5.13.55-1.66,2.98-2.72,3.56-4.46.55-1.65-.25-3.81.34-5.54.65-1.89.62-3.81,1.18-5.36.69-1.92,2.94-3.01,3.5-4.5.74-1.96.6-3.89,1.16-5.36.72-1.9,1.54-3.43,2.04-5.04.51-1.66-1.96-3.3-1.59-5.27.29-1.55-.43-3.42-.17-5.51.19-1.58,1.67-3.22,1.86-5.26.16-1.63.4-3.32.41-4.97.01-1.64-.37-3.29-.38-4.94,0-1.65.72-3.24.81-4.88Z"/>
    <path d="M2116.95,289.16c1.56.41,3.27.4,4.85.85,1.56.44,3.07,1.14,4.65,1.6,1.56.46,3.29.39,4.86.86,1.57.47,3.19.77,4.75,1.23,1.58.46,2.68,2.59,4.24,3.03,1.59.45,3.25.63,4.81,1.04,1.6.42,3.09,1.35,4.65,1.71.8.19,1.83-3.29,2.1-3.99.65-1.68.74-3.44,1.28-4.98.58-1.63.64-3.37,1.19-4.98.53-1.56.99-3.18,1.58-4.85.53-1.51,2.16-2.7,2.8-4.41.56-1.48-.5-3.71.17-5.41.59-1.48,3.39-2.23,3.78-3.74.39-1.54.4-3.23.67-4.78.27-1.56-.1-3.23.13-4.78.23-1.57.97-3.03,1.25-4.57.28-1.56-.5-3.33-.08-4.85.42-1.51.9-3.07,1.56-4.52,1.02-2.24,3.21-3.47,3.61-4.82.7-2.38-.19-4.89-2.15-6.13-1.16-.74-3.51-.35-5.87-1.25-.63-.24-2.31-.73-4.44-1.59-1.3-.53-2.88-.88-4.46-1.5-1.42-.56-2.93-1.05-4.42-1.6-1.51-.56-2.88-1.43-4.3-1.91-1.66-.56-2.87-2.24-4.17-2.56-1.72-.42-3.35-.91-4.98-1.32-1.69-.42-3.52-.2-5.18-.58-1.68-.38-3.33-.89-5.04-1.19-1.66-.29-3.42-.18-5.17-.36-.57-.06-2.81.23-5.45-.64-1.53-.5-2.91-2.22-4.75-2.83-1.67-.55-3.73-.13-5.46-.66-1.79-.55-3.23-2.16-4.86-2.6-2.05-.55-3.76-.66-5.15-.84-.78-2.34-.3-2.06.46-4.85.39-1.42,1.57-2.86,1.91-4.59.25-1.26-.68-3.26-.31-5.41.27-1.56,1.15-3.21,1.46-5.1.28-1.64.49-3.41.79-5.22.28-1.69,1.58-3.27,1.88-5.04.29-1.72.02-3.56.32-5.3.3-1.75-.3-3.65,0-5.37.31-1.78,1.15-3.43,1.45-5.11.33-1.82,1.95-3.32,2.26-4.95.37-1.91.73-3.64,1.07-5.16.52-2.32.04-4.36.42-5.35.6-1.55.71-3.23,1.19-4.84.48-1.59,2.79-2.69,3.21-4.31.42-1.62-.02-3.45.4-5.07.42-1.62.35-3.37.83-4.96.49-1.6,1.52-3.01,2.14-4.55.61-1.55,1.69-2.82,2.49-4.28.88-1.61,2.18-2.75,3.28-4.18,1.11-1.43,1.89-3.01,3.16-4.32,1.25-1.29,2.57-2.47,3.93-3.7,1.48-1.34,2.58-2.93,4.1-3.93,1.66-1.09,3.31-1.47,5.2-1.75,1.72-.25,3.28-.19,5.35.56,1.49.54,2.81,1.46,4.31,2.24,1.46.76,3.67.36,4.97,1.35,1.33,1.02,1.49,3.19,2.48,4.46,1.02,1.32,2.22,2.32,2.68,3.91.52,1.82.74,3.81,1.34,5.7.59,1.85.98,3.75,1.49,5.6.53,1.92,2.64,3.47,2.91,5.34.25,1.74,1.23,3.35,1.76,5.2.53,1.85-.28,4.43-.22,6.21,2.61.48,2.62-1.26,5.25-1.66,2.63-.4,2.58-.75,5.2-1.14,2.63-.4,2.93,1.62,5.56,1.22,2.63-.4,2.31-2.53,4.93-2.93,2.63-.4,2.81.79,5.44.4,2.63-.4,2.72.23,5.35-.17,2.63-.4,2.54-.97,5.17-1.37,2.63-.4,2.4-1.9,5.03-2.29,2.63-.4,2.99,1.97,5.62,1.58,2.63-.4,2.57-.77,5.21-1.17,2.63-.4,2.39-2.03,5.02-2.42,2.63-.4,2.96,1.15,5.4.08.09-1.55-.4-3.09-.31-4.75.08-1.4.23-2.91.27-4.68.04-1.7,1.19-3.29,1.18-4.81-.02-1.69-1.22-3.24-1.33-4.77-.12-1.66.24-3.28-.02-4.82-.27-1.58-.11-3.28-.56-4.84-.43-1.49-2.29-2.52-2.91-4.07-.57-1.41-1.3-2.75-2.05-4.28-.67-1.36-.59-3.17-1.42-4.67-.71-1.27-.34-3.56-1.19-5.6-.68-1.64-2.07-3.14-2.77-4.93-.71-1.79-2.31-3.22-2.98-4.86-.83-2.04-.37-4.44-1.04-5.72-.86-1.65-1.61-3.31-2.46-4.81-.91-1.61-3.61-2.06-4.55-3.52-1-1.55-1.55-3.25-2.61-4.64-1.1-1.44-2.47-2.51-3.69-3.8-1.22-1.3-1.94-3.04-3.32-4.2-1.34-1.12-2.93-1.91-4.46-2.93-1.44-.95-2.94-1.83-4.58-2.7-1.51-.8-2.61-2.66-4.33-3.4-1.57-.68-3.59-.46-5.35-1.11-1.61-.59-3.42-.74-5.21-1.3-1.66-.52-3.22-1.29-4.91-1.73-1.68-.44-3.15-1.85-4.86-2.21-1.71-.36-3.57.04-5.29-.24-1.72-.28-3.48-.23-5.21-.44-1.74-.21-3.37-1.54-5.09-1.68-1.75-.14-3.53.11-5.26.05-1.63-.06-3.35-.06-5.06-.01-1.65.05-3.42-.65-5.12-.51-1.65.14-3.29,1.03-4.97,1.24-1.66.21-3.27.87-4.93,1.14-1.66.28-3.13,1.52-4.77,1.85-1.66.33-3.42.11-5.04.48-1.66.38-3.19,1.16-4.79,1.57-1.67.43-3.42.38-4.98.84-1.68.48-3.21,1.21-4.74,1.7-1.7.54-3.68-.01-5.15.51-1.76.63-2.83,2.59-4.19,3.15-2.08.87-4.36.31-5.24.9-1.33.89-1.58,3.34-2.88,4.29-1.3.94-2.86,1.49-4.13,2.48-1.27.98-2.4,2.11-3.63,3.14-1.24,1.02-2.36,2.15-3.57,3.21-1.21,1.06-2.81,1.65-4,2.73-1.19,1.08-3.23,1.25-4.4,2.35-1.23,1.16-.62,3.86-1.57,5.02-1.03,1.27-2.29,2.13-3.08,3.48-.8,1.35-1.29,2.75-1.94,4.24-.6,1.39-2.97,2.16-3.53,3.73-.5,1.41.13,3.3-.39,4.91-.41,1.25-.41,3.55-1.46,5.65-.8,1.61-1.53,3.49-2.45,5.21-.94,1.77-2.32,3.28-3.14,4.81-1.42,2.63-3.82,4.15-3.91,4.59-.37,1.89-.07,3.8-.37,5.49-.33,1.88-.59,3.66-.88,5.39-.3,1.83-.11,3.69-.4,5.46-.29,1.78-1.66,3.37-1.97,5.2-.3,1.72-1.16,3.38-1.52,5.25-.32,1.69,1.24,3.85.84,5.74-.37,1.72-1.75,3.19-2.19,4.86-.44,1.68.41,3.73-.09,5.41-.49,1.64-1.88,3.03-2.41,4.73-.5,1.61-.11,3.55-.65,5.26-.5,1.6-1.43,3.12-1.94,4.85-.48,1.6-2.07,2.95-2.55,4.69-.45,1.61-1.02,3.27-1.47,5.02-.41,1.62-.38,3.38-.68,5.06-.29,1.64-.74,3.29-.98,4.98-.24,1.66-.75,3.29-1,4.98-.24,1.66.49,4.09.18,5.77-1.61-.59-3.78-1.06-5.35-1.5-1.64-.46-2.82-2.6-4.42-2.97-1.64-.38-3.61.74-5.23.38-1.63-.36-3.02-1.68-4.64-2.11-1.6-.42-3.13-.94-4.73-1.51-1.53-.55-3.1-1.17-4.66-1.91-2.25-.69-1.88-.77-4.66-1.23-1.37-.23-3.14.58-4.83.3-1.5-.25-3.16-.05-4.73-.32-1.58-.27-3.05-1.15-4.55-1.41-1.69-.3-3.11-1.5-4.47-1.75-1.99-.37-3.99-.5-4.95-.59.11.68-.11,2.27-.59,4.2-.33,1.33,0,3.1-.5,4.83-.41,1.46-1.81,2.73-2.29,4.33-.46,1.52.53,3.51.06,5.04-.49,1.58-2.1,2.78-2.55,4.24-.53,1.68-.91,3.28-1.32,4.62-.8,2.56-1.8,4.34-1.84,4.62-.21,1.81-.33,3.4-.7,4.96-.41,1.73.21,3.64-.31,5.21-.54,1.62-1.49,3.08-2.03,4.7-.52,1.56-2.15,2.89-2.57,4.61-.38,1.56.27,3.46.05,5.27-.15,1.24.26,2.93-.21,4.48-.41,1.38-1.2,2.71-1.59,4.1-.43,1.56-.85,2.96-.89,4.2-.04,1.48,2.76,1.55,4.25,2.1.9.34,2.32,2.07,4.72,2.76,1.49.42,3.38.36,5.28.88,1.6.43,3.55.05,5.36.53,1.65.44,3.39.81,5.16,1.27,1.68.44,3.56.26,5.31.71,1.7.44,3.11,2.12,4.83,2.56,1.73.44,3.4,1.09,5.1,1.53,1.75.44,3.67.11,5.36.53,1.78.45,3.28,1.8,4.93,2.22,1.83.46,3.52,1.07,5.12,1.47,1.94.48,3.69.47,5.17.83-.2.49-1.03,1.81-1.68,4.27-.36,1.36-.92,2.92-1.35,4.66-.37,1.48-.85,3.04-1.25,4.68-.37,1.53.02,3.3-.35,4.9-.37,1.58-.22,3.28-.57,4.84-.37,1.62-1.52,3.04-1.84,4.56-.37,1.7.24,3.49-.04,4.93-.38,1.91-.33,3.55-.5,4.78-.24,1.73-2.18,3.1-2.46,4.63-.31,1.72,1.26,3.71.93,5.25-.37,1.68-1.76,3.06-2.17,4.6-.43,1.62-1.54,3.01-2,4.58-.46,1.56-1.53,2.94-2.02,4.56-.46,1.52-.81,3.14-1.28,4.79-.43,1.51-.34,3.25-.78,4.93-.4,1.51-.08,3.28-.48,4.98-.36,1.53-.82,3.09-1.13,4.75-.29,1.57-.38,3.21-.64,4.85-.26,1.59-2.06,2.97-2.31,4.6-.25,1.61.87,3.44.61,5.05-.26,1.63-.48,3.26-.77,4.85-.3,1.64-1.5,3.06-1.85,4.61-.37,1.64.11,3.45-.34,4.96-.52,1.72-.93,3.62-1.48,5.55-.51,1.8-.17,3.91-.7,5.77-.53,1.86-2.81,3.22-3.35,5.01-.57,1.92.13,4.18-.44,5.89-.56,1.66-1.17,3.25-1.72,4.78-.59,1.66-2.26,2.84-2.85,4.35-.64,1.64.29,3.87-.37,5.36-.71,1.61-3.09,2.35-3.86,3.79-.82,1.54-1.13,3.29-2.04,4.65-.96,1.43-2.9,1.97-4,3.22-1.11,1.26-2,2.55-3.3,3.65-1.02.86-1.47,3.13-3,4.43-1.25,1.07-2.51,2.31-3.83,3.45-1.36,1.18-3.6,1.33-4.77,2.38-1.77,1.57-2.33,3.73-2.92,4.37-.95,1.03.08.89,2.24,1.77,1.19.49,2.3,1.99,3.97,2.26,1.42.23,3,1.26,4.56,1.25,1.13,0,3.3-.13,5.54.7,2.22.82,4.57,1.28,5.65,1.55,1.89.48,3.36,1.88,5.01,2.37,1.81.53,3.55.99,5.27,1.47,1.73.49,3.73-.13,5.57.26,1.69.35,3.4.79,5.34,1.01,1.8.2,3.41,1.66,5.17,1.93,1.79.28,3.67-.16,5.42.19,1.77.35,3.72-.09,5.46.34,1.75.43,3.01,2.64,4.74,3.13,1.73.5,3.66.25,5.36.82,1.7.57,3.92-.26,5.61.37,1.68.63,3.27,1.59,4.94,2.27,1.61.66,2.82,2.09,4.29,2.56,1.7.54,3.33.85,4.8,1.19,1.84.42,3.56.01,4.94.2,3.09.41,2.58,2.22,4.62.84.23-1.35.92-2.64,1.32-4.44.33-1.47-.62-3.38-.21-5.06.37-1.51,2.73-2.61,3.14-4.24.39-1.54-1.27-3.65-.86-5.24.41-1.57,2-2.84,2.41-4.41.42-1.59.01-3.39.41-4.93.42-1.62,1-3.16,1.39-4.67.43-1.68,2.49-2.85,2.85-4.31.45-1.79-.69-3.76-.39-5.09.38-1.7,2.41-3.06,2.74-4.77.33-1.71-1.39-3.79-1.1-5.5.29-1.71.74-3.39,1-5.11.27-1.72.2-3.48.46-5.2.26-1.72,2.15-3.2,2.41-4.92.26-1.72.55-3.43.82-5.15.27-1.72.7-3.4,1-5.11.3-1.71-.41-3.61-.07-5.32.34-1.71,1.4-3.26,1.79-4.95.41-1.73-.18-3.76.26-5.55.43-1.75,2.68-3.08,3.12-4.85.44-1.77-.68-3.93-.25-5.69.44-1.8.92-3.56,1.32-5.29.13-.55,1.23-2.19,1.93-4.76.38-1.42,1.66-2.86,2.15-4.68.42-1.54-1.31-3.77-.85-5.49.43-1.59,2.83-2.72,3.28-4.39.43-1.63-.47-3.64-.05-5.28.44-1.67,2.43-2.93,2.83-4.53.44-1.73-1.11-3.88-.73-5.43.45-1.84,2.74-3.07,3.06-4.51.34-1.56.77-3.14,1.16-4.8.37-1.57-.26-3.42.14-5.06.39-1.58.2-3.33.61-4.96.4-1.59.34-3.32.75-4.93.41-1.59,2.01-2.89,2.43-4.5.42-1.6,1.39-3.06,1.81-4.66.43-1.61-.13-3.47.3-5.06.44-1.62,1.65-2.32,2.07-3.89,1.66.13,2.73.55,4.79,1.3,1.72.63,3.73.95,5.64,1.56,1.83.59,3.94-.37,5.87-.17,1.91.2,3.72,1.57,5.62,1.88,1.91.31,3.63,1.45,5.5,1.89,1.57.36,3.29.17,4.9.59Z"/>
    <path d="M1960.61,179.23s.2.06.59.1c-.07-.43-.26-.51-.59-.1Z"/>
    <path d="M824.07,397.96c-.31-1.58-.4-3.28-.74-4.95-.33-1.62-.79-3.24-1.12-4.88-.34-1.65-1.26-3.18-1.58-4.78-.33-1.69-.39-3.39-.67-4.97-.32-1.76-.94-3.38-1.15-4.9-.27-1.93.29-3.72.26-5.07-.03-1.49-.51-3.01-.73-4.62-.21-1.51-1-2.93-1.33-4.48-.32-1.52-.61-3.03-1-4.54-.4-1.54-.29-3.19-.72-4.65-.46-1.57-1.07-3.02-1.51-4.43-.56-1.79-.56-3.69-.83-5.47-.28-1.83-.37-3.65-.46-5.47-.09-1.83-.12-3.66-.14-5.49-.02-1.83-.53-3.65-.6-5.47-.07-1.83.06-3.65-.19-5.47-.24-1.79-1.22-3.38-1.75-5.16-.5-1.7-.21-3.71-1.08-5.41-.69-1.35-.54-3.09-.89-4.87-.32-1.61-1.92-3.08-2.16-4.75-.25-1.75.95-3.75.58-5.26-.42-1.72-2.03-3.14-2.41-4.85-.38-1.72.1-3.62-.26-5.34-.36-1.72-.41-3.5-.76-5.21-.35-1.73-1.72-3.24-2.06-4.96-.34-1.72-.92-3.4-1.27-5.12-.34-1.72.65-3.72.29-5.44-.36-1.71-1.17-3.35-1.55-5.07-.38-1.71-1.41-3.27-1.82-4.99-.41-1.7-1.15-3.31-1.61-5.02-.48-1.8-.65-3.72-1.06-5.56-.41-1.85-.9-3.59-1.67-5.29-.76-1.67-1.15-3.52-1.91-5.19-.77-1.67-1.84-3.2-2.63-4.86-.79-1.66-1.84-3.18-2.67-4.82-.83-1.64-1.29-3.47-2.18-5.07-.89-1.61-1.79-3.21-2.76-4.77-.84-1.35-1.24-3.01-2.13-4.36-.89-1.33-1.96-2.56-2.91-3.85-.95-1.3-2.13-2.43-3.15-3.65-1.03-1.24-1.52-3.02-2.64-4.15-1.13-1.15-2.45-2.22-3.68-3.23-1.24-1.02-2.44-2.12-3.71-3.07-1.28-.95-3.65-.43-4.92-1.39-1.27-.95-1.69-3-2.93-4.02-1.21-1-2.58-1.81-3.72-2.95-1.1-1.1-2.83-1.73-3.84-3.02-1.13-1.45-1.96-3.12-3.3-4.44-1.31-1.29-2.87-2.29-4.34-3.45-1.45-1.15-2.99-2.12-4.55-3.16-1.55-1.03-3.16-1.89-4.76-2.82-1.63-.94-2.8-2.66-4.43-3.5-1.5-.77-3.14-1.4-4.83-1.82-1.62-.41-3.31-.99-5.02-1.21-1.68-.21-3.48.42-5.18.26-1.71-.16-3.35-.87-5.01-1.11-1.67-.24-3.4-.02-5.06-.26-1.67-.24-3.24-1.15-4.9-1.38-1.67-.24-3.37-.25-5.03-.48-1.67-.23-3.33-.56-5-.76-1.67-.21-3.35-.37-5.03-.55-1.67-.18-3.41.22-5.08.07-1.71-.15-3.46.25-5.16.14-1.72-.12-3.45-1.61-5.16-1.47-1.68.14-3.37.98-5.03,1.6-1.51.56-2.81,1.72-4.3,2.84-1.24.93-2.67,2.15-4.3,2.57-1.5.38-3.26.32-4.88.53-1.62.21-3.38-.55-4.91-.26-2.2.41-4.81-.15-6.7.73-1.6.74-3.35,1.15-4.95,1.9-1.6.75-3.11,1.68-4.7,2.44-1.59.77-3.1,1.69-4.68,2.49-1.57.8-2.63,2.55-4.18,3.39-1.55.84-3.27,1.33-4.79,2.23-1.55.92-3.44,1.25-5,2.16-1.56.9-3.01,1.99-4.57,2.9-1.56.91-3.08,1.88-4.62,2.81-1.55.93-3.31,1.51-4.83,2.48-1.52.97-3.13,1.83-4.62,2.85-1.48,1.02-2.64,2.51-4.08,3.6-1.43,1.09-3.36,1.6-4.73,2.79-1.36,1.17-2.73,2.41-4.02,3.69-1.27,1.25-1.76,3.29-2.95,4.67-1.13,1.29-1.74,2.96-2.8,4.28-1.07,1.33-3.33,1.74-4.33,3.1-1.01,1.38-.89,3.54-1.83,4.95-.95,1.42-2.97,2.14-3.85,3.6-.88,1.46-1.75,2.95-2.56,4.45-.81,1.49-.67,3.49-1.41,5.02-.74,1.53-1.16,3.17-1.83,4.74-.66,1.56-1.8,2.91-2.39,4.52-.59,1.58-1.62,3.03-2.14,4.66-.5,1.54-.17,3.34-.67,4.87-.5,1.54-1.59,2.88-2.04,4.42-.45,1.55-.9,3.1-1.23,4.68-.32,1.56-.39,3.18-.53,4.81-.14,1.57.25,3.14.34,4.8.1,1.86-.59,3.74-.84,5.61-.25,1.84-1.01,3.59-1.39,5.44-.37,1.84-.44,3.75-.74,5.58-.3,1.86-.14,3.75-.16,5.61-.01,1.63-1.01,3.26-1.02,4.9-.01,1.63.38,3.27.37,4.91,0,1.64.02,3.27.02,4.91,0,1.64-.25,3.28-.23,4.91.02,1.64.85,3.26.88,4.89.04,1.64.67,3.25.72,4.88.05,1.63-1.32,3.33-1.24,4.96.08,1.63-.04,3.29.06,4.92.1,1.63,1.71,3.16,1.84,4.79.13,1.63-.18,3.29-.02,4.92.15,1.58.36,3.14.79,4.69.42,1.52,1.23,2.91,1.82,4.41.57,1.47,1.57,2.76,2.23,4.23.65,1.46.27,3.37.92,4.83.65,1.47,1.57,2.81,2.13,4.29.6,1.6,1.2,3.13,1.66,4.66.49,1.61.06,3.4.45,4.98.39,1.61,1.23,3.08,1.58,4.69.34,1.59.11,3.31.45,4.96.33,1.57,1.95,2.9,2.34,4.55.38,1.63.96,3.24,1.36,4.93.38,1.64.34,3.4.72,5.08.36,1.64.02,3.45.35,5.14.32,1.65.94,3.26,1.22,4.96.27,1.67,1.48,3.23,1.69,4.94.33,2.68-.9,4.77-.89,6.37.02,2.59-.06,4.61,1.32,6.44.84,1.12,2.43,2.16,2.92,3.95.41,1.52.61,3.26.78,4.92.17,1.71-.4,3.42-.48,4.93-.11,2.11.22,4.05-.34,4.99-1.11,1.85-3,2.85-3.73,4.24-.97,1.85-1.46,3.55-2.21,5.08-.76,1.55-1.79,2.87-2.86,4.65-.66,1.09-.11,3.01-.44,4.32-.45,1.77-.73,3.19-.16,3.76,1.2,1.2,2.86,2.05,4.71,1.84,1.64-.19,3.39-.49,5-.64,1.74-.17,3.5-.87,5.12-1.44,1.62-.56,2.95-1.92,4.54-2.62,1.58-.7,3.09-1.61,4.71-2.19,1.61-.59,3.35-1.03,5.08-1.26,1.64-.22,3.5-.55,5.31-.24,1.91.33,3.95.72,6.04-.04,1.94-.7,3.71-2.24,5.64-2.73,1.58-.4,3.29-.26,4.88-.63,1.59-.37,3.05-1.29,4.64-1.65,1.59-.36,3.09-1.13,4.68-1.49,1.53-.34,3.14-.38,4.67-.72,1.54-.34,3.19-.15,4.72-.48s3.03-.85,4.57-1.19c1.54-.34,2.97-1.11,4.5-1.46,1.53-.35,3.25.1,4.78-.26,1.21-.29,2.87-1.48,4.25-2.36-1.06-1.71-2.34-3.57-2.65-5.16-.27-1.36-.19-3.3-.68-5.36-.39-1.66-.67-3.49-1.11-5.28-.44-1.8-1.31-3.48-1.72-5.14-.51-2.06-.41-4.03-.73-5.38-.4-1.68-.72-3.16-1.04-4.52-.39-1.65-.56-3.15-.88-4.55-.35-1.53-.37-3.05-.69-4.59-.29-1.4-.63-2.86-.95-4.53-.26-1.37-.43-2.88-.75-4.58-.3-1.6-1.8-2.98-2.09-4.58-.29-1.6.4-3.37.11-4.98-.28-1.6-1.07-3.11-1.35-4.72-.28-1.6-.7-3.18-.99-4.78-.29-1.6-.44-3.23-.74-4.82-.3-1.6-1.02-3.11-1.35-4.7-.32-1.59.49-3.43.14-5.02-.34-1.56-1.89-2.84-2.28-4.38-.39-1.55-.12-3.26-.54-4.81-.42-1.54-1.25-2.97-1.68-4.5-.43-1.54-.38-3.21-.8-4.75-.42-1.54-1.63-2.88-2.02-4.42-.39-1.55.16-3.33-.19-4.89-.36-1.63-1.48-3.13-1.73-4.78-.25-1.65-.05-3.37-.25-5.03-.2-1.66-.29-3.33-.49-4.99-.2-1.66-.05-3.38-.3-5.03-.28-1.81-1.63-3.46-2.11-5.32-.47-1.83.41-4-.01-5.81-.44-1.89-1.61-3.56-1.76-5.36-.16-1.95-.48-3.94.03-5.7.44-1.51,1.71-2.93,1.83-4.54.12-1.57.03-3.21.05-4.82.02-1.6.21-3.15.33-4.72.12-1.61-.01-3.13.43-4.64.43-1.5-.01-3.54.94-4.9.85-1.2,2.75-1.69,4.16-2.73,1.29-.96,2.16-3.6,2.39-5.48.22-1.79-.18-3.62.31-5.23.51-1.71,2.06-2.84,2.95-4.3.89-1.47,1.09-3.46,2.43-4.65,1.23-1.09,2.52-2.54,4.18-3.37,1.51-.75,3.52-.56,5-1.4,1.47-.84,2.52-2.44,3.99-3.28,1.48-.84,2.96-1.76,4.48-2.5,1.53-.75,3.09-1.63,4.69-2.19,1.67-.59,3.77.18,5.5-.24,1.72-.43,3.4-.94,5.15-1.26,1.74-.32,3.57-.09,5.32-.36,1.76-.27,3.36-1.59,5.11-1.85,1.57-.23,3.41-.26,5.13-.31,1.91-.06,4.18-.57,5.42.29,1.39.95,2.76,1.84,4.38,2.63,1.54.74,2.76,2.27,4.38,2.99,1.59.71,3.34,1.13,4.88,1.95,1.55.83,3.36,1.38,4.73,2.44,1.37,1.07,1.91,3.01,2.97,4.44.98,1.34,1.5,2.83,2.09,4.6.62,1.85,2.52,2.96,3.46,4.43,1,1.57,1,3.83,2.14,5.24,1.14,1.4,3.19,2.1,4.26,3.64.99,1.44,2.52,2.8,3.27,4.6.65,1.57,1.03,3.43,1.51,5.2.45,1.68-.64,3.79-.24,5.54.4,1.74,2.38,3.09,2.83,4.77.48,1.77.43,3.6,1.09,5.17.68,1.64.42,3.61.99,5.3.57,1.68,2.27,3.01,2.73,4.73.46,1.71-.07,3.66.29,5.41.36,1.73.48,3.49.74,5.25.26,1.75,1.59,3.37,1.77,5.14.18,1.76-.6,3.61-.49,5.39.1,1.77.18,3.53.21,5.31.03,1.6-.08,3.25.19,4.73.28,1.54,1.82,2.77,2.26,4.24.43,1.48,1.21,2.83,1.7,4.31.48,1.45-.4,3.34.03,4.85.42,1.45,2.22,2.61,2.51,4.18.28,1.51-.58,3.29-.3,4.89.27,1.54.87,3.05,1.12,4.64.24,1.56.54,3.13.74,4.71.2,1.58-.49,3.25-.35,4.81.15,1.61.25,3.16.32,4.71.07,1.64.12,3.17.08,4.7-.05,1.91.11,3.95.23,5.93.13,1.98,1.92,3.93,1.88,5.84-.04,2.03-1.88,3.73-2.5,5.52-.59,1.72.1,3.86-.41,5.59-.52,1.75-2.35,3.08-2.91,4.8-.56,1.73.41,4.04-.32,5.71-.73,1.65-1.94,3.17-2.95,4.72-.97,1.47-2.79,2.32-4.13,3.66-1.32,1.32-2.5,2.66-3.6,3.89-1.3,1.44-2.84,2.59-3.7,3.91-1.11,1.71-2,3.72-2.09,5.25-.09,1.65,1.55,2.81,3.04,4.3,1.65-.35,3.36.63,5.11.29,1.68-.32,3.27-1.27,5-1.58,1.7-.3,3.45-.4,5.17-.69,1.71-.3,3.3-1.35,5.01-1.65,1.73-.3,3.56.1,5.25-.2,1.74-.31,3.33-1.31,5-1.63,1.76-.34,3.71.5,5.35.15,1.54-.33,2.85-1.78,4.39-2.12,1.54-.34,3.11-.56,4.65-.91,1.54-.34,3.11-.57,4.65-.91,1.54-.34,2.96-1.3,4.51-1.61,1.55-.32,3.11-.59,4.67-.88,1.67-.31,3.45-.05,5.13-.37,1.67-.32,3.42-.22,5.1-.54,1.67-.32,3.23-1.3,4.9-1.59,1.68-.29,3.38-.45,5.07-.71,1.68-.26,3.46.2,5.15,0,1.69-.21,3.26-1.71,4.95-1.85,2.05-.17,3.88.02,5.5-.32,2.13-.44,4.2-.06,5.63-.61,3.36-1.29,4.01-.42,5.25-2.9-.14-1.42-1.61-3.3-1.92-5.14-.26-1.54-.09-3.27-.42-5Z"/>
    <path d="M1333.62,368.78c2.2-.16,4.42-1.76,4.42-3.96,0-1.31-.19-2.64-.23-3.97-.04-1.32.37-2.71.23-4.02-.18-1.73-1.54-3.41-1.5-5.16.04-1.74.68-3.48.77-5.22.08-1.75-.17-3.49-.21-5.23-.04-1.75-.42-3.38-.76-5.11-.33-1.67.16-3.66-.61-5.3-.13-.28-1.22-2.06-1.36-4.21-.11-1.7,1.05-3.58.93-4.61-.12-1.04-1.58-2.84-1.4-4.86.14-1.6.73-3.28.89-4.84.24-2.3,1.4-4.31,1.27-4.94-.3-1.49-.41-3.23-.64-5.15-.19-1.65-.61-3.37-.75-5.18-.13-1.73-1.49-3.43-1.57-5.17-.08-1.8.11-3.61.09-5.27-.02-1.93-.08-3.74-.03-5.28.06-1.7.35-3.36.38-4.99.03-1.72-.3-3.39-.3-5,0-1.75.87-3.43.84-5.01-.04-1.79-1.11-3.43-1.17-4.96-.07-1.9,1.3-3.65,1.22-5.06-.18-3.02-.19-4.92-.22-5.06-.25-1.66-1.95-3.06-2.05-4.59-.1-1.63.37-3.25.36-4.83-.01-1.58.93-3.16.92-4.8,0-1.54-1.21-3.09-1.29-4.76-.09-1.82.21-3.69.28-5.53.06-1.83.86-3.63.97-5.46.11-1.84-.26-3.71-.2-5.53.06-1.85.5-3.72.38-5.53-.11-1.85-.9-3.61-1.3-5.39-.37-1.61.27-3.39,0-5.03-.26-1.63-1-3.17-1.21-4.81-.2-1.64-1.33-3.17-1.52-4.81-.19-1.64.68-3.42.46-5.05-.22-1.64-.72-3.25-1.01-4.87-.29-1.63-.91-3.19-1.31-4.79-.4-1.6-1.4-2.98-1.96-4.54-.55-1.55-1.13-3-1.87-4.5-.72-1.46-.64-3.38-1.58-4.79-.96-1.43-1.9-2.87-2.77-4.38-.86-1.5-2.06-2.82-2.89-4.35-.84-1.53-1.12-3.37-1.98-4.87-.87-1.52-1.51-3.23-2.46-4.66-.97-1.47-3.24-1.95-4.35-3.25-1.14-1.34-1.49-3.45-2.83-4.53-1.3-1.05-3.28-1.23-4.62-2.25-1.33-1.01-2.34-2.46-3.7-3.43-1.36-.98-2.85-1.76-4.23-2.71-1.38-.94-3.07-1.41-4.47-2.32-1.41-.91-2.87-1.69-4.3-2.56-1.43-.87-2.12-2.99-3.57-3.82-1.45-.84-3.54-.54-5.01-1.34-1.47-.8-2.32-2.79-3.81-3.55-1.49-.76-3.67-.14-5.18-.86-1.51-.72-2.97-1.52-4.49-2.2-1.55-.69-2.72-2.3-4.32-2.93-1.58-.62-3.15-1.37-4.77-1.93-1.61-.55-3.19-1.33-4.83-1.81-1.64-.48-3.38-.71-5.04-1.12-1.66-.41-3.44-.34-5.11-.68-1.68-.34-3.41-.33-5.1-.58-1.7-.26-3.34-.83-5.04-1-1.71-.17-3.46.53-5.16.44-1.71-.08-3.4-.43-5.12-.47-1.71-.03-3.43-.64-5.14-.63-1.72.01-3.43.17-5.15.23-1.71.06-3.43.26-5.14.36-1.71.1-3.43.17-5.14.31-1.71.14-3.37.84-5.07,1.02-1.71.18-3.47-.14-5.17.07-1.71.21-3.44.18-5.14.43-1.7.24-3.4.5-5.1.78-1.7.28-3.35.8-5.04,1.1-1.72.31-3.61,0-5.32.43-1.7.43-3.05,2.11-4.73,2.64-1.67.53-3.62.24-5.27.86-1.64.62-3.31,1.23-4.93,1.91-1.62.68-3.26,1.34-4.86,2.07-1.6.73-3.34,1.2-4.92,1.97-1.59.77-2.45,2.99-4.01,3.78-1.45.73-2.92,1.36-4.33,2.18-1.4.82-3.52.53-4.86,1.48-1.32.93-2.32,2.38-3.55,3.47-1.2,1.06-2.3,2.29-3.39,3.55-1.04,1.2-1.43,2.9-2.34,4.31-.94,1.44-2.49,2.56-3.85,3.65-1.33,1.07-2.75,2.1-4.12,3.12-1.41,1.04-3.25,1.59-4.34,2.88-1.07,1.28-2.19,2.84-2.59,4.65-.09.43-.46,2.06-1.59,3.41-1.09,1.29-2.58,2.27-2.9,2.68-1.17,1.47-2.25,2.85-3.13,4.24-.98,1.54-1.58,3.2-2.38,4.69-.82,1.55-1.55,3.11-2.36,4.67-.78,1.5-1.37,3.15-2.32,4.72-.85,1.4-2.52,2.34-3.64,3.84-1.46,1.94-1.14,5.23-2.26,7.48-.86,1.73-1.63,3.51-2.37,5.28-.74,1.78-.68,3.83-1.24,5.67-.56,1.84-1.25,3.59-1.56,5.5-.26,1.6-1.31,3.12-1.56,4.79-.24,1.62.71,3.43.49,5.09-.21,1.64-1.57,3.16-1.74,4.8-.18,1.66.53,3.4.41,5.03-.13,1.69-.3,3.33-.36,4.95-.06,1.71.3,3.35.33,4.94.03,1.75-.2,3.38-.03,4.93.18,1.65.43,3.33.48,4.98.05,1.65-.1,3.33-.14,4.99-.04,1.65-.07,3.32-.16,4.98-.09,1.65-1.47,3.23-1.58,4.88-.11,1.65.57,3.36.48,5.01-.09,1.66-.43,3.31-.46,4.96-.03,1.66.84,3.3.9,4.95.08,1.83.01,3.67.23,5.51.22,1.83.97,3.61,1.19,5.44.22,1.85-.43,3.78-.35,5.61.09,1.86.28,3.72.07,5.55-.21,1.88-.4,3.74-.28,5.6.12,1.87-.37,3.82-.14,5.68.24,1.86,1.75,3.58,1.88,5.45.13,1.86.32,3.83.12,5.71-.19,1.8-1.14,3.58-1.83,5.42-.47,1.26.51,2.75.47,4.82-.03,1.56.87,3.16,1,5,.11,1.65-1.19,6.24-1,8,.18,1.7-.06.9.14,2.6.21,1.75,1.03,3.4,1.21,5.05.2,1.83,0,3.62.11,5.18.13,2.04-.95,3.75-1.12,5.08-.27,2.14-.19,3.76-.45,5-.52,2.54-.97,3.28-2.18,4.04-1,.63-1.99,1.88-4.12,2.95-1.21.61-2.69,1.15-4.42,2.28-.93,1.39-2.48,2.41-3.73,3.58-1.46,1.36-2.53,2.7-2.78,4.16-.34,2.02-.56,3.69.31,4.54.91.9,2.75.71,4.55.74,1.34.02,2.96.66,4.57.42,2.32-.35,3.96-.53,5.29-.76,1.97-.34,3.15-1.41,5.13-1.64,1.33-.16,2.99-.13,5.33-.31,1.68-.13,3.34-.49,5.01-.59,1.68-.1,3.38.32,5.06.24s3.34-.62,5.02-.67,3.38.64,5.06.61c1.58-.03,3.26-1.49,5.07-1.55,1.63-.05,3.36.55,5.13.49,1.66-.06,3.39.46,5.14.4,1.68-.06,3.39-.22,5.11-.28,1.7-.06,3.43.36,5.13.31,1.72-.05,3.39-1.61,5.07-1.65,1.74-.04,3.48,1.38,5.14,1.36,1.77-.02,3.47-.02,5.1-.01,1.82.01,3.62-.14,4.98-.93,1.13-.66.87-.89.93-4.65.03-1.39-.21-2.94-.69-5.09-.24-1.06,1.31-2.38,1.39-3.51.11-1.53-.85-3.37-.86-5.31,0-1.69.9-3.51.84-5.3-.07-1.79-.61-3.56-.7-5.26-.11-1.91-.24-3.71-.35-5.27-.21-2.87.39-4.97.36-5.33-.15-1.61-1.06-3.2-1.13-4.92-.07-1.64-.55-3.31-.57-5-.02-1.66.22-3.34.22-5.01,0-1.68.19-3.35.19-5.01,0-1.69-.48-3.36-.51-4.99-.03-1.72,1.25-3.45,1.15-5.06-.1-1.75-1.55-3.43-1.63-5.19-.08-1.75.29-3.53.23-5.29-.07-1.76-.28-3.51-.35-5.26-.07-1.76.61-3.56.51-5.3-.1-1.76-1.04-3.46-1.17-5.2-.14-1.77-.37-3.5-.57-5.23-.21-1.83.35-3.6.21-5.17-.16-1.81-.06-3.48-.11-5.09-.06-1.75-1.4-3.44-1.32-5.14.08-1.65.69-3.33.93-5.1.21-1.58.47-3.27.83-5.07.32-1.64,1.28-3.29,1.45-5.11.16-1.7.61-3.47.69-5.26.08-1.75-.18-3.54-.11-5.29.07-1.79.25-3.54.36-5.25.12-1.83.35-3.54.59-5.19.23-1.61-.14-3.35-.03-5.01.11-1.65.77-3.26.91-4.9.14-1.67-1.04-3.53-.71-5.11.33-1.65,1.55-3.08,2.25-4.56.7-1.48,1.36-3.01,2.21-4.44.84-1.41,1.17-3.22,2.13-4.58.95-1.34,2.61-2.2,3.66-3.48,1.05-1.28,2.21-2.46,3.33-3.68,1.12-1.23,2.42-2.26,3.59-3.41,1.43-1.41,2.56-3.08,3.91-4.49,1.39-1.45,2.52-3.19,4.08-4.39,1.54-1.18,3.3-2.37,5.26-3.05,1.43-.5,3.18.2,4.7-.13,1.41-.3,2.78-1.02,4.39-1.23,1.4-.19,2.86-.8,4.49-.95,1.41-.13,2.99.55,4.62.42.89-.07,2.92,0,4.48.24,1.91.28,4-.6,5.91-.29,1.91.31,3.66,1.58,5.56,1.92,1.32.23,2.77.01,4.11.23,1.4.22,2.5,1.09,3.65,1.73,1.37.77,2.61,1.79,4.02,2.64,1.36.82,3.46.53,4.8,1.44,1.32.9,2.18,2.49,3.44,3.5,1.26,1.01,3.04,1.47,4.18,2.6,1.15,1.13,1.43,3.06,2.42,4.33.98,1.26,2.41,2.24,3.19,3.66.76,1.39,1.77,2.79,2.29,4.34.5,1.48-.18,3.31.06,4.95.28,1.94.98,3.68,1.16,5.38.2,1.93.22,3.74.33,5.47.13,1.88,1.07,3.63,1.16,5.43.09,1.8.24,3.59.35,5.46.11,1.73-1.11,3.64-.94,5.57.16,1.7.88,3.46,1.13,5.41.21,1.69-.01,3.56.15,5.5.14,1.76,1.06,3.55,1.17,5.44.1,1.81.22,3.66.3,5.51.08,1.84-.94,3.73-.89,5.54.06,1.88.87,3.71.92,5.48.05,1.95-.43,3.81-.39,5.52.04,1.67.26,3.34.33,5.02.07,1.67.42,3.33.51,5,.09,1.67-.39,3.37-.29,5.05.1,1.67,1.4,3.27,1.5,4.94.1,1.67-1.16,3.42-1.07,5.09.09,1.67.65,3.31.73,4.99.08,1.67.95,3.31,1.01,4.99.05,1.67-.76,3.37-.73,5.04.02,1.67.06,3.34.05,5.01-.02,1.67-.47,3.32-.53,4.99-.06,1.67-.11,3.32-.23,4.99-.12,1.66-.1,3.49-.14,5.36-.03,1.73,1.37,3.55,1.33,5.36-.04,1.78-1.6,3.5-1.71,5.27-.12,1.81.79,3.7.51,5.41-.3,1.83-1.02,3.54-1.6,5.13-.64,1.76-1.58,3.27-2.69,4.58-1.39,1.65-2.22,3.54-3.51,4.65-1.63,1.41-3.08,2.48-4.26,3.71-1.3,1.36-2.62,2.37-2.99,4.51-.37,2.17,1.16,3.29,3.35,3.36,1.59.05,3.16.08,4.81,0,1.61-.07,3.29.7,4.91.57,1.64-.13,3.25-.42,4.85-.54,1.66-.12,3.3-.3,4.87-.33,1.71-.04,3.36-.73,4.99-.77,1.7-.03,3.36.08,5,.05,1.69-.04,3.36.75,5.02.71,1.67-.04,3.34.2,5.01.15,1.65-.05,3.29-.96,4.98-1.01,1.64-.05,3.31.17,5.01.1,1.63-.07,3.29-.23,5-.31,1.75-.08,3.56.37,5.38.36,1.77-.02,3.55.22,5.36.24,1.78.02,3.57-.09,5.37-.06,1.79.03,3.59-.55,5.38-.53,1.79.03,3.58-.29,5.37-.29,1.8,0,3.61,1.05,5.39,1,1.81-.06,3.56-.93,5.33-1.07Z"/>
    <path d="M494.19,465.22c-.32-1.68-1.19-3.25-1.55-4.92-.36-1.67-1.37-3.18-1.78-4.84-.41-1.66-1.03-3.24-1.49-4.88-.41-1.48.34-3.39-.23-4.87-.56-1.45-1.62-2.74-2.23-4.17-.62-1.46-1.29-2.84-1.86-4.27.3-.14-.02-2.13-.66-4.22-.44-1.44-1.23-2.89-1.57-4.01-.5-1.62-.49-3.38-.98-5-.49-1.62-2.03-2.92-2.52-4.53-.49-1.62-.22-3.46-.7-5.08-.48-1.62-.66-3.33-1.14-4.95-.48-1.62-1.84-2.98-2.32-4.6-.48-1.62-.09-3.49-.57-5.12-.47-1.62-1.1-3.2-1.57-4.82-.47-1.62-2.07-2.92-2.54-4.54-.47-1.6-.77-3.29-1.16-4.92-.39-1.63.42-3.56,0-5.17-.43-1.62-1.45-3.08-2.04-4.64-.59-1.54-.47-3.39-1.03-5.03-.54-1.58-1.18-3.14-1.7-4.79-.5-1.61-2.04-2.92-2.51-4.57-.46-1.63.09-3.54-.34-5.19-.43-1.65-1.16-3.21-1.55-4.86-.39-1.67-1.04-3.27-1.38-4.91-.35-1.7.18-3.52-.11-5.15-.33-1.9-1.16-3.66-1.62-5.39-.49-1.83-1.36-3.51-1.94-5.24-.59-1.77-.7-3.69-1.32-5.44-.62-1.73-1.89-3.23-2.48-5.02-.57-1.72-1.12-3.48-1.62-5.33-.46-1.73-.19-3.66-.54-5.56-.28-1.53-1.52-2.89-1.93-4.43-.4-1.51-.08-3.26-.56-4.77-.48-1.49-2.04-2.63-2.57-4.13-.53-1.49-.24-3.27-.78-4.75-.54-1.49-1.79-2.72-2.31-4.19-.54-1.5-.62-3.14-1.1-4.62-.54-1.65-1.36-3.2-1.86-4.84-.51-1.65-.28-3.53-.77-5.17-.49-1.66-.7-3.39-1.17-5.04-.48-1.66-1.48-3.16-1.95-4.82-.47-1.66-1.64-3.12-2.12-4.78-.47-1.66.16-3.63-.32-5.3-.48-1.65-1.22-3.24-1.72-4.9-.49-1.65-1.08-3.27-1.6-4.93-.6-1.91-1.82-3.34-2.28-4.76-.68-2.1-.43-4.05-1.06-5.21-1.04-1.92-2.51-1.74-4.47-1.57-1.28.11-2.76.41-4.9,1.19-1.39.51-2.98,1.16-4.86,1.9-1.56.61-3.44.39-5.02.95-1.58.56-3.07,1.39-4.66,1.93-1.59.54-3.05,1.46-4.64,1.99s-3.38.49-4.96,1.03c-1.59.54-2.9,1.87-4.48,2.44-1.78.64-3.72.81-5.45,1.59-1.73.78-3.59,1.22-5.36,1.88-1.53.57-3,1.31-4.6,1.66-1.59.35-3.32-.06-4.94.19-1.62.25-3.22.7-4.83.98-1.62.28-3.34.4-4.91.84-1.57.44-3.03,1.45-4.51,2.18-1.43.7-2.31,2.27-3.62,3.35-.86.71-2.9.73-3.74,1.76-1.05,1.28-1.62,3.22-1.37,4.06.49,1.6,1.53,3.03,2.09,4.61.56,1.58.38,3.44.98,5.01.6,1.56,1.17,3.15,1.79,4.71.62,1.56,1.33,3.08,1.95,4.63.62,1.56,2.27,2.71,2.87,4.28.61,1.61,1.61,3.08,2.23,4.69.62,1.61.9,3.35,1.52,4.96.62,1.61,1.08,3.28,1.7,4.89.62,1.61,1.16,3.25,1.77,4.86.61,1.61.41,3.53,1.01,5.15.6,1.62,2.01,2.94,2.59,4.56.59,1.62,1.24,3.23,1.8,4.85.57,1.63,1.53,3.13,2.07,4.77.53,1.59,1.13,3.17,1.64,4.77.51,1.6-.16,3.57.34,5.17.49,1.6,1.02,3.2,1.49,4.81.48,1.61,1.13,3.16,1.6,4.78.46,1.61,1.86,2.97,2.31,4.58.45,1.62.34,3.39.78,5.01.44,1.62.76,3.27,1.19,4.9.43,1.62.13,3.43.55,5.06.4,1.55,1.05,2.99,1.3,4.56.26,1.58,1.08,3.07,1.33,4.62.25,1.59.46,3.15.85,4.67.41,1.55.87,3.02,1.58,4.45.9,1.79,1.29,3.5,1.79,4.95.65,1.92.56,3.64.82,5.15.32,1.88.65,3.52,1,5.17.34,1.57,1.8,2.73,2.79,4.49.43.77.85,2.54,1.46,4.12.63,1.63.16,3.46.25,4.28.21,1.86,1.06,3.56,1.44,5.21.41,1.8.96,3.49,1.49,5.13.56,1.72,1.97,3.08,2.59,4.72.63,1.67.88,3.47,1.48,5.14.59,1.65,1.37,3.29,1.84,5.05.44,1.66,1.04,3.42,1.29,5.26.23,1.67-.14,3.53-.12,5.42.01,1.44-.08,3.38.51,5.22.56,1.76.99,3.7,1.71,5.06.41.77,1.15,3.1,2.03,5.42.91,2.39,2.37,4.52,2.38,5.31.03,1.98-.02,3.8-.1,5.51-.09,1.95.1,3.81-.25,5.52-.37,1.81-1.5,3.31-2.3,5.01-.74,1.55-.87,3.62-2.1,5.2-1.03,1.33-3.02,2-4.47,3.43-1.16,1.14-2.29,2.83-3.04,4.48-.79,1.73-.82,3.75-.75,5.28.08,1.91.96,2.99,3.1,3.21,2.5-.14,1.95-.28,4.85-.94,1.44-.33,3.12-.68,4.89-1.09,1.58-.36,3.4-.08,5.04-.46,1.67-.39,3.26-1.07,4.81-1.45,1.84-.44,3.59-.56,4.94-.91,1.71-.45,3.26-1.51,4.97-1.97,1.71-.46,3.38-1.06,5.08-1.54,1.7-.48,3.65-.16,5.34-.67,1.7-.51,3.43-.95,5.11-1.5,1.68-.55,2.88-2.52,4.54-3.12,1.67-.6,3.37-1.04,5.01-1.7,1.65-.66,3.35-1.13,4.96-1.85,1.62-.72,3.09-1.7,4.67-2.49,1.53-.77,3.59-.32,5.13-.94,1.58-.64,3.04-1.48,4.63-2,1.61-.53,3.09-1.44,4.72-1.9,1.63-.45,3.1-1.53,4.74-1.94,1.64-.42,3.6.44,5.24.02,1.63-.42,2.96-1.97,4.6-2.44,1.34-.38,2.62-2.25,2.41-3.52-.27-1.68.92-3.62.6-5.3Z"/>
    <path d="M993.34,371.49c-.29-1.75.76-3.67.5-5.36-.26-1.73-.75-3.4-.98-5.12-.23-1.71-.75-3.38-.96-5.13-.2-1.69-1.17-3.32-1.37-5.09-.19-1.68.55-3.5.36-5.29-.18-1.67-.2-3.41-.38-5.2-.18-1.77-.69-3.52-.89-5.33-.19-1.77-.23-3.57-.43-5.37-.2-1.78-.1-3.6-.3-5.39-.2-1.78-.61-3.54-.81-5.33-.2-1.78-.16-3.6-.35-5.39-.2-1.79-.32-3.58-.51-5.36-.19-1.79-1.28-3.49-1.46-5.27-.18-1.8-.62-3.57-.78-5.34-.17-1.8.75-3.69.6-5.46-.14-1.64-1.41-3.18-1.56-4.83-.15-1.64-.08-3.3-.24-4.94-.16-1.64.6-3.38.43-5.02-.17-1.64-.75-3.24-.92-4.88-.17-1.64.3-3.35.13-4.99-.17-1.64-1.64-3.14-1.81-4.79-.17-1.64-.13-3.3-.3-4.95-.17-1.64-.16-3.3-.32-4.94-.17-1.64-.66-3.25-.82-4.89-.16-1.64.5-3.36.35-5-.15-1.64-.62-3.26-.76-4.9-.14-1.65.16-3.32.04-4.97-.13-1.65-.21-3.29-.32-4.93-.11-1.71-.43-3.39-.52-5.1-.08-1.71-.88-3.38-.95-5.09-.07-1.71.81-3.46.72-5.16-.08-1.71-1.36-3.35-1.47-5.05-.11-1.71,1.13-3.51.98-5.22-.16-1.73-1.14-3.38-1.32-5.1-.19-1.72.46-3.55.26-5.27-.2-1.72-1.12-3.36-1.33-5.09-.21-1.72-.89-3.39-1.09-5.11-.2-1.72.21-3.52.03-5.24-.18-1.73-.68-3.42-.83-5.15-.15-1.73-.47-3.46-.57-5.19-.1-1.73-.14-3.48-.18-5.22-.04-1.6.3-3.18.23-4.7-.07-1.63-.23-3.19-.48-4.66-.27-1.6-.89-2.99-1.59-4.35-.69-1.35-1.66-2.36-2.97-3.42-1.09-.88-2.15-2.19-3.8-2.83-1.57.27-3.22.48-4.78.79-1.56.31-2.93,1.53-4.49,1.86-1.56.33-3.35-.47-4.91-.15-1.56.33-2.9,1.75-4.46,2.06-1.56.3-3.13.66-4.7.92-1.57.26-3.35-.88-4.93-.68-1.58.2-3.04,1.43-4.63,1.55-1.73.13-3.37.01-4.92.18-1.71.18-3.35.18-4.9.39-1.67.22-3.32.14-4.91.37-1.62.24-3.06,1.67-4.7,1.89-1.58.21-3.36-.93-5.04-.76-1.56.16-3.13.72-4.85.82-1.55.09-3.16.45-4.9.49-1.55.03-3.19.53-4.93.5-1.15-.02-4.21.89-4.69,2.3-.54,1.57-.25,3.4-.54,5.08-.29,1.7-1.17,3.35-1.01,5,.17,1.75.27,3.51.47,5.25.2,1.74.66,3.46.88,5.2.22,1.74.66,3.45.89,5.19.23,1.74.19,3.52.42,5.26.23,1.74.64,3.46.87,5.2.23,1.74-.25,3.57-.04,5.31.19,1.58,1.5,3.03,1.67,4.6.17,1.58.22,3.17.38,4.75s-.06,3.2.11,4.78c.16,1.58.15,3.18.32,4.76.17,1.58.17,3.18.37,4.76.2,1.58,1.28,3.03,1.51,4.6.26,1.78.43,3.56.71,5.34.28,1.77.61,3.54.9,5.31.29,1.77.82,3.5,1.11,5.27.29,1.77-.1,3.66.2,5.43.3,1.77-.14,3.66.15,5.44.29,1.77,1.74,3.35,2.03,5.12.29,1.77.41,3.57.69,5.35.28,1.77-.1,3.65.17,5.43.27,1.78.68,3.53.93,5.3.26,1.8.58,3.59.82,5.39.24,1.8.31,3.63.54,5.43.23,1.8.61,3.59.83,5.39.22,1.81.57,3.6.79,5.4.21,1.81,1.05,3.54,1.26,5.35.21,1.81-.6,3.73-.39,5.54.2,1.81.77,3.57.97,5.38.2,1.81,1.04,3.54,1.24,5.35.17,1.5-.87,3.09-.95,4.64-.08,1.54-.26,3.13-.22,4.64.05,1.55.22,3.27.79,4.71.75,1.91,2.18,3.28,2.55,4.79.49,1.98.8,3.73.96,5.32.18,1.84-.71,3.65-.43,5.45.24,1.58,1.31,3.11,2.04,5.03.55,1.46.39,3.11.45,4.78.05,1.55.73,3.24.49,4.87-.23,1.58-1.79,2.92-2.17,4.47-.39,1.6-.57,3.22-.99,4.7-.47,1.69-1.13,3.24-1.45,4.62-.41,1.8-.64,3-1.53,4.06-.89,1.08-1.4,2.68-2.79,3.75-1.73,1.33-3.9,1.43-5.21,2.34-1.73,1.19-3.35,2.08-4.65,3.27-1.24,1.13-1.92,2.95-3.08,4.82-.69,1.11-1.27,2.68-1.04,4.14.23,1.43.67,3.12,1.28,4.18.74,1.28,4.78.61,6.88.27,1.8-.29,3.8.69,5.6.38,1.79-.31,3.45-1.41,5.24-1.73,1.79-.32,3.55-.84,5.34-1.17s3.78.46,5.57.14c1.79-.32,3.48-1.19,5.28-1.5,1.79-.31,3.45-1.44,5.25-1.74,1.8-.3,3.78.57,5.58.3,1.57-.24,3.04-1.2,4.62-1.4,1.58-.2,3.23.18,4.81,0,1.58-.17,3.2,0,4.78-.15,1.58-.16,3.08-1.19,4.67-1.34,1.58-.15,3.19-.1,4.77-.26,1.59-.15,3.23.29,4.81.12,1.7-.18,3.34-1,5.04-1.21,1.7-.21,3.41-.37,5.11-.56,1.7-.19,3.45.16,5.16.04,1.71-.13,3.39-.55,5.1-.57,1.94-.02,3.71.4,5.08.15,2.03-.37,3.42-1.67,4.35-2.75.94-1.09,1.84-2.68,1.84-4.74,0-1.39-1.05-2.96-1.4-4.88-.32-1.76-1.02-3.41-1.3-5.07Z"/>
    <path d="M1881.95,343.92c-.11-1.18.06-2.38-.22-3.55-.27-1.14-.53-2.31-.97-3.44-.42-1.08-1.01-2.12-1.6-3.2-.55-1.01-.72-2.34-1.43-3.35-.76-1.08-1.42-2.11-1.88-3.4-.44-1.24-1.11-2.43-1.48-3.73-.37-1.3-1.32-2.36-1.82-3.58-.44-1.06-1.1-2.07-1.5-3.16-.4-1.08.21-2.54-.18-3.62-.39-1.09-.64-2.24-1.06-3.31-.42-1.08-1.33-1.96-1.81-3.01-.48-1.06-.63-2.29-1.21-3.28-.58-1.01-1.36-1.9-2.07-2.81-.79-1.02-2.18-1.34-3.09-2.14-.95-.83-1.32-2.39-2.38-3.02-1.07-.63-2.1-1.57-3.26-2.03-1.15-.46-2.77.41-3.98.07-1.19-.34-2.35-.69-3.58-.96-1.21-.26-2.26-1.38-3.49-1.61-1.23-.23-2.41-.66-3.63-.9-1.23-.24-2.69.61-3.89.33-1.23-.29-2.26-1.59-3.51-1.82-1.25-.23-2.75,1.12-4.01.93-1.25-.19-2.33-1.56-3.58-1.75-1.26-.18-2.56-.02-3.82-.23-1.25-.2-2.61.09-3.86-.16-1.02-.21-2.06-.81-3.05-1.2-.99-.39-1.95-.85-2.94-1.19-1.03-.35-1.93-.87-2.97-.91-1.19-.05-2.43-.21-3.68-.11-1.23.1-2.46.28-3.64.57-1.22.29-2.6.3-3.67.83-1.12.55-2.15,1.22-3.34,1.67-1.17.44-1.99,1.92-3.19,2.32-1.19.4-2.59.18-3.76.62-1.18.44-2.3.95-3.43,1.5-1.13.55-2.36.89-3.39,1.63-1,.72-1.43,2.01-2.29,2.98-.8.89-1.28,1.88-1.93,3.04-.59,1.05-1.41,1.99-2.03,3.02-.62,1.03-1.38,1.99-2.01,3.01-.64,1.02-1.69,1.78-2.34,2.79-.65,1.01-2.13,1.49-2.78,2.5-.65,1.01-.4,2.6-1.04,3.61-.64,1.02-1.64,1.82-2.25,2.85-.88,1.48-1.2,3.47-1.52,5.2-.21,1.12-.78,2.16-.99,3.28s.36,2.38.15,3.5c-.21,1.12-.27,2.26-.46,3.38-.19,1.12.05,2.3-.11,3.42-.16,1.13-.23,2.24-.35,3.37-.14,1.29-1.21,2.49-1.32,3.79-.11,1.3.3,2.63.24,3.93-.06,1.3-1.33,2.61-1.31,3.9.02,1.31.63,2.63.75,3.92.11,1.22,1.3,2.28,1.51,3.49.21,1.2-.13,2.51.13,3.71.26,1.2-.15,2.54.11,3.74.26,1.2.78,2.33.98,3.54.2,1.21.73,2.37.83,3.59.09,1.16.63,2.23.8,3.34.17,1.15.32,2.25.57,3.34.26,1.13-.54,2.55-.19,3.62.36,1.1,1.73,1.82,2.18,2.86.46,1.05.92,2.07,1.48,3.06.56,1,1.15,1.94,1.82,2.87.67.92,1.21,1.93,1.99,2.78.76.83,1.19,2.08,2.06,2.83.85.74,1.94,1.27,2.89,1.94.92.64,1.95,1.2,2.97,1.77,1.05.58,1.92,1.5,2.97,2.07,1.06.57,2.36.68,3.42,1.22,1.07.54,2.1,1.16,3.19,1.67,1.08.51,2.34.64,3.44,1.11,1.1.48,2.3.68,3.41,1.11,1.12.43,2.24.79,3.37,1.17,1.13.38,2.19.97,3.34,1.3,1.15.33,2.12,1.42,3.29,1.68,1.17.26,2.53-.45,3.71-.25,1.18.2,2.27,1.04,3.46,1.16,1.18.12,2.41-.22,3.62-.17,1.19.04,2.37-.04,3.58-.08,1.18-.04,2.36.19,3.57.07.17.58.32,1.43.49,2.01,1.25-.45,2.37-1.71,3.63-2.15,1.26-.44,2.72-.31,3.97-.75,1.26-.44,2.36-1.3,3.61-1.77,1.25-.47,2.58-.71,3.81-1.23.98-.41,2.19-.41,3.13-.93.93-.52,1.69-1.37,2.62-1.9.94-.54,1.71-1.38,2.67-1.84.97-.47,1.86-1.41,2.89-1.69,1.29-.36,2.8.2,3.9-.3,1.2-.55,1.92-1.78,2.92-2.51,1.03-.75,2.12-1.34,2.97-2.29.83-.93,1.58-1.91,2.25-3.04.63-1.05,1.07-2.21,1.58-3.44.47-1.13,1.33-2.08,1.81-3.2.48-1.12.08-2.63.57-3.74.49-1.11,1.96-1.8,2.46-2.91.5-1.11,1.25-2.11,1.76-3.22.51-1.11-.38-2.86.14-3.97.51-1.11,2.16-1.68,2.68-2.79.51-1.11.1-2.64.62-3.75.51-1.11,1.94-1.79,2.45-2.9.51-1.11,1.25-2.11,1.75-3.22.5-1.1-.23-2.69.18-3.78.43-1.14.73-2.22,1.04-3.35.33-1.17,1.83-2.03,2.03-3.19.2-1.19-.33-2.45-.28-3.64.05-1.19-.12-2.34-.23-3.53ZM1852.54,346.15c-.33,1.23-1.11,2.5-1.75,3.63-.89,1.55-2.2,2.89-2.35,4.55-.12,1.23-.77,2.38-.99,3.54-.23,1.21-1.46,2.1-1.8,3.23-.35,1.18.24,2.62-.23,3.71-.48,1.12-1.4,1.99-2.01,3.02-.62,1.05-1.18,2.07-1.92,3.02-.74.95-1.78,1.57-2.64,2.42-.85.84-1.22,2.22-2.19,2.95-.95.72-1.9,1.53-2.95,2.15-1.03.6-1.96,1.55-3.08,2.05-1.08.48-2.25,1.02-3.42,1.41-1.1.36-2.52-.26-3.7-.06-1.14.2-2.28.82-3.47.87-1.16.05-2.29-1.22-3.47-1.31-1.16-.09-2.34.31-3.5.09-1.15-.22-2.55.5-3.69.15-1.12-.34-2.07-1.32-3.15-1.78-1.08-.46-1.81-1.59-2.83-2.16-1.03-.58-2.12-.94-3.07-1.64-.95-.7-2.08-1.16-2.92-1.98-.85-.82-1.97-1.44-2.69-2.37-.72-.92-1.36-1.99-1.94-3.03-.56-1.02,0-2.54-.41-3.66-.39-1.08-1.69-1.91-1.91-3.09-.22-1.12-.32-2.34-.37-3.55-.05-1.27-.08-2.54-.12-3.81-.04-1.27.15-2.54.14-3.81-.01-1.27.58-2.53.59-3.8.01-1.27-.21-2.53-.16-3.8.05-1.27.04-2.53.13-3.8.09-1.26.86-2.27,1.46-3.51.58-1.19.83-2.56,1.48-3.66.59-1,1.28-1.92,1.91-2.9.62-.97.92-2.16,1.56-3.13.64-.97,1.05-2.08,1.68-3.05.63-.97,1.19-1.97,1.78-2.97.65-1.09,1.51-1.95,2.16-2.78.76-.96,2.08-1.16,2.99-1.82.89-.65,1.43-2.01,2.61-2.42.98-.34,2.27.06,3.55-.14,1.03-.16,2.12-.7,3.4-.79,1.06-.07,2.22-.22,3.48-.25,1.08-.03,2.23.26,3.47.26,1.09.4,2.39.3,3.57.69,1.12.37,2.27.78,3.43,1.19,1.12.4,2.18,1.08,3.3,1.57,1.1.47,2.11,1.16,3.17,1.76,1.04.59,2.04,1.25,3.01,2,.93.73,1.49,1.83,2.33,2.75.78.86,1.66,1.63,2.33,2.69.62.98,2.21,1.55,2.71,2.72.61,1.42,1.45,2.66,2.52,3.87.86.97,1.66,2.06,2.24,3.19.59,1.15.74,2.49,1.02,3.74.29,1.25,1.12,2.54,1.09,3.82-.02,1.28-.04,2.77-.38,4.01Z"/>
    <path d="M349.89,211.27c1.2.3,2.53-.11,3.76.11,1.21.22,2.3,1.32,3.54,1.45,1.22.12,2.49-.38,3.75-.35,1.24.03,2.45.45,3.63.37,1.23-.07,2.31-1.09,3.48-1.27,1.21-.19,2.53.34,3.67.03,1.18-.32,2.19-1.08,3.29-1.53,1.12-.46,2.68-.1,3.72-.7,1.04-.6,1.78-1.77,2.74-2.51.94-.73,1.75-1.66,2.61-2.53.83-.84,1.03-2.21,1.78-3.19.72-.93,2.05-1.43,2.7-2.49.61-1,1.46-1.93,2.01-3.05.41-.83.4-2.26,1.25-2.87.8-.58,2.42-.26,3.03-.98.73-.86.8-2.29,1.55-3.14.74-.85,2.11-1.15,2.86-2,.74-.85,1.54-1.67,2.26-2.53.73-.87,1.18-1.97,1.87-2.86.7-.89,1.65-1.61,2.3-2.53.65-.92,1.34-1.86,1.93-2.82.65-1.07.33-2.6.5-3.95.16-1.25.61-2.52.7-3.83.09-1.32.53-2.51.86-3.72.35-1.27.58-2.59.79-3.82.22-1.3-.77-2.66-.76-3.92.01-1.3.06-2.45-.22-3.71-.27-1.22-.59-2.33-1.2-3.52-.55-1.08-1.27-2-2.15-3.06-.68-.81-.56-2.29-.79-3.47-.22-1.1.37-2.43.14-3.49-.22-1.02-.88-1.94-1.02-2.99-.15-1.05-.91-1.99-1.1-3.02-.2-1.04.31-2.27-.05-3.25-.42-1.15-1.37-2.04-1.92-3.07-.57-1.07-.77-2.36-1.45-3.31-.69-.98-1.68-1.74-2.48-2.62-.8-.88-2.09-1.24-2.97-2.03-.88-.79-1.69-1.62-2.63-2.35-.94-.73-1.65-1.74-2.63-2.42-.97-.68-1.71-1.72-2.71-2.37-.99-.65-2.11-1.12-3.11-1.77-1-.65-2.12-1.11-3.1-1.77-.99-.67-2.02-1.27-2.98-1.97-.96-.7-1.7-1.69-2.61-2.44-.91-.76-1.95-1.38-2.79-2.22-.72-.71-1.53-2.01-2.75-2.31-.99-.24-2.31.08-3.51.05-1.07-.02-2.24-.02-3.4.08-1.1.1-2.26.2-3.37.37-1.12.18-2.3.18-3.37.41-1.15.24-2.21.79-3.22,1.04-1.12.27-2.12.96-3.18,1.32-1.09.37-2.15.77-3.23,1.09-1.09.33-2.16.83-3.3.96-1.09.12-2.18-.48-3.36-.67-1.04-.17-2.33.23-3.47-.28-1.26-.56-2.3-.54-3.5-.47-1.25.07-2.8-.72-3.95-.12-1.07.57-1.21,2.52-2.16,3.42-.89.85-2.26,1.24-3.02,2.29-.98,1.35-2.7,3.07-3.89,2.95-1.33-.13-2.59-.14-3.64.09-1.25.27-1.88,1.59-2.81,2.24-.98.69-1.67,1.39-2.37,2.36-.69.96-2.05,1.52-2.56,2.6-.52,1.1-.58,2.39-1,3.47-.43,1.13-.6,2.35-1,3.5-.39,1.15-.57,2.35-.94,3.51-.36,1.16-1.22,2.16-1.55,3.33-.33,1.17-.58,2.36-.9,3.53-.31,1.17-.09,2.48-.39,3.66-.3,1.18-.78,2.31-1.07,3.48-.3,1.18-1.33,2.17-1.62,3.35-.3,1.18-.18,2.46-.49,3.64-.29,1.14-1.23,2.12-1.5,3.27-.27,1.15-.57,2.31-.79,3.46-.22,1.16-.24,2.38-.39,3.54-.15,1.18.49,2.41.46,3.57-.03,1.19-.93,2.41-.82,3.57.12,1.17,1.16,2.2,1.47,3.34.3,1.12.74,2.16,1.25,3.24.49,1.03.45,2.44,1.16,3.42.66.91,1.84,1.49,2.72,2.35.84.82,1.17,2.13,1.97,2.98.8.85,1.74,1.57,2.52,2.44.79.87,1.49,1.82,2.27,2.68.79.87,1.45,1.87,2.26,2.72.81.85,1.82,1.52,2.67,2.34.84.81,1.53,1.85,2.43,2.61.88.75,2.34.84,3.3,1.53.94.68,1.92,1.29,2.95,1.9.99.59,1.73,1.71,2.82,2.23,1.12.53,2.71.08,3.82.61,1.12.53,2.05,1.47,3.17,1.99,1.13.53,2.19,1.17,3.32,1.67,1.13.51,2.31.91,3.45,1.38,1.15.47,2.24,1.07,3.4,1.5,1.16.43,2.19,1.29,3.37,1.66,1.18.37,2.5.31,3.71.61ZM323,159.23c-.35-1.22-.32-2.45-.52-3.7-.18-1.11-1.12-2.12-1.16-3.24-.04-1.12-.05-2.26.04-3.39.1-1.12.89-2.11,1.13-3.21.24-1.09-.49-2.48-.11-3.55.38-1.04,1.25-1.94,1.78-2.96.54-1.05,1.29-2.03,2-3.04.68-.97,1.36-1.98,2.2-2.9.79-.87,1.76-1.62,2.7-2.44.88-.78,2.11-1.14,3.12-1.87.95-.69,1.79-1.48,2.98-1.83,1.13-.33,2.18-1.24,3.38-1.47,1.2-.23,2.52.47,3.66.14.02.26.07-.06.09.2,1.21,0,2.38.38,3.6.34,1.21-.04,2.42-.33,3.63-.37,1.21-.05,2.43.77,3.64.76,1.22,0,2.41-.45,3.61-.38,1.21.07,2.38.24,3.57.44,1.19.2,2.26.51,3.35.86,1.14.37,2.07.97,3.11,1.48,1.06.52,2.17.82,3.14,1.47.98.65,2.1,1.07,3,1.83.9.75,1.77,1.53,2.61,2.37.83.83,1.81,1.53,2.59,2.41.78.88,1.07,2.17,1.81,3.08.74.91,2.06,1.37,2.78,2.29.73.93,1.61,1.74,2.33,2.65.64.81-.04,2.33.23,3.46.24.99,1.83,1.9,1.87,3.05.04,1.05-.78,2.18-.84,3.29-.06,1.08-.4,2.16-.5,3.23-.1,1.12-.29,2.21-.36,3.25-.1,1.33.55,2.84.17,4.15-.37,1.28-.86,2.58-1.31,3.85-.45,1.27-1.78,2.25-2.14,3.53-.36,1.27-.46,2.55-1.03,3.58-.62,1.12-1.19,2.3-2.01,3.2-.84.92-1.7,1.94-2.69,2.69-.98.75-2.35,1-3.42,1.65-1.06.64-2.1,1.32-3.18,1.94-1.08.61-1.87,1.7-2.92,2.35-1.06.66-2.15,1.16-3.11,1.93-.43.33-1.64-.43-2.26-.66-1.05-.4-2.25-.38-3.32-.74-1.06-.36-1.92-1.35-2.99-1.7-1.07-.35-2.13-.74-3.2-1.09-1.07-.35-2.19-.54-3.25-.9-1.07-.37-2.38-.06-3.43-.46-1.06-.4-1.74-1.69-2.77-2.14-1.04-.45-2.41-.16-3.41-.68-1-.52-2.03-1.04-2.98-1.64-1.07-.67-1.67-2.02-2.66-2.8-1-.78-2.28-1.21-3.19-2.09-.91-.88-1.28-2.24-2.1-3.21-.82-.97-1.73-1.8-2.45-2.84-.72-1.04-1.28-2.14-1.88-3.25-.61-1.11-.96-2.28-1.45-3.44-.49-1.17-1.13-2.23-1.48-3.44Z"/>
    <path d="M889.73,102.78c.98.24,2.09.82,3.46.85,1.14.03,2.3-.4,3.45-.46,1.14-.06,2.24-.69,3.38-.8,1.14-.11,2.35.45,3.49.33,1.14-.12,2.28-.27,3.42-.37,1.15-.1,2.3.22,3.44.18,1.16-.04,2.27-.34,3.4-.28,1.15.06,2.35-.32,3.47-.11,1.23.23,2.35.9,3.49.96,1.23.07,2.43-.35,3.57-.47,1.21-.12,2.43-.09,3.56-.4,1.15-.31,2.09-1.17,3.19-1.65,1.08-.47,2.21-.81,3.25-1.42,1.01-.58,2.06-1.14,3.06-1.84,1.04-.72,1.79-1.98,2.9-2.65,1.11-.67,2.24-1.2,3.28-1.93,1.06-.75,2.23-1.23,3.07-2.2.82-.94,1.82-1.82,2.29-3.1.4-1.1.44-2.41.49-3.84.03-.94.64-2.15,1.61-3.09.84-.81,1.87-1.63,2.72-2.22,1.07-.73,2.28-1.11,3.18-1.82,1.02-.81,1.63-1.92,2.43-2.72.91-.91,1.81-1.68,2.46-2.63.71-1.03.74-2.26,1.16-3.38.42-1.11,1.95-1.95,2.11-3.2.15-1.14-.03-2.44-.08-3.73-.05-1.14-.66-2.31-.86-3.59-.17-1.13-.33-2.33-.61-3.59-.29-1.3-.41-2.56-.67-3.74-.28-1.28-1.13-2.38-1.39-3.58-.28-1.26.34-2.67.07-3.9-.26-1.23-.35-2.48-.61-3.75-.25-1.2-1.08-2.31-1.34-3.6-.23-1.19-.7-2.42-.95-3.73.23-1.09,1.1-2.3.96-3.46-.13-1.09-.6-2.26-.99-3.37-.37-1.04-1.35-1.87-1.91-2.89-.53-.98-1.07-1.98-1.73-2.92-.66-.92-.89-2.23-1.64-3.08-.76-.86-2.09-1.18-2.91-1.94-.86-.8-1.67-1.58-2.55-2.23-.96-.72-1.87-1.43-2.8-1.92-1.11-.59-2.2-.98-3.18-1.2-1.3-.28-2.53-.61-3.7-1-1.25-.41-2.48-.78-3.63-1.26-1.2-.5-2.4-.96-3.54-1.47-1.18-.53-2.26-1.23-3.44-1.71-1.18-.48-2.43-.74-3.67-1.11-1.2-.36-2.44-.43-3.74-.62-1.21-.17-2.42-.54-3.77-.51-1.25.02-2.56-.72-3.8-.61-1.24.11-2.37,1.28-3.61,1.46-1.23.18-2.6-.37-3.83-.12-1.22.24-2.43.64-3.65.93-1.21.28-2.47.43-3.69.74-1.21.31-2.34.94-3.55,1.26-1.21.32-2.4.7-3.61,1.02-1.21.32-2.52.22-3.73.53-1.21.31-2.31,1.08-3.52,1.36-.79.18-1.59,1.62-2.13,2.62-.57,1.04-.95,2.2-1.47,3.27-.51,1.08-1.21,2.06-1.73,3.13-.53,1.08-.37,2.53-.98,3.54-.61,1.03-2.16,1.37-2.92,2.29-.78.94-1.41,2-2.13,2.94-.74.97-.68,2.49-1.36,3.47-.69,1-1.83,1.68-2.45,2.69-.63,1.03-1.33,2.02-1.9,3.07-.57,1.06-1.21,2.1-1.71,3.19-.5,1.09-.98,2.22-1.41,3.34-.43,1.12-.73,2.3-1.08,3.46-.35,1.14-.34,2.39-.62,3.57-.27,1.15-1.05,2.23-1.25,3.43-.2,1.17-.44,2.37-.57,3.59-.13,1.17.48,2.44.41,3.66-.07,1.18.12,2.37.11,3.59-.01,1.24-.54,2.43-.45,3.55.1,1.23.37,2.39.59,3.5.23,1.2.97,2.21,1.31,3.29.37,1.15.21,2.46.67,3.51.48,1.09,1.72,1.77,2.29,2.8.57,1.03.44,2.46,1.05,3.47.61.99,1.45,1.86,2.09,2.87.61.98,1.05,2.09,1.66,3.13.58.99.96,2.11,1.52,3.19.53,1.01,1.05,2.04,1.54,3.15.15.35,2.32,1.1,3.94,2.25,1.6,1.14,2.92,3.21,3.33,3.28,1.33.23,2.53-.15,3.49.19,1.21.43,2.32.67,3.31,1.12,1.02.46,1.93,1.15,3.17,1.45ZM882.6,65.04c-.15-1.17-.1-2.37-.24-3.54-.11-.92-.7-1.78-.67-2.92.02-.86-.18-1.81-.18-2.98-.23-1.3.21-2.55.29-3.76.08-1.27-.02-2.54.34-3.73.36-1.19,1.32-2.12,1.89-3.26.55-1.11,1.22-2.12,1.9-3.19.67-1.05.78-2.47,1.52-3.51.72-1.02,1.28-2.17,2.01-3.2.73-1.02,1.93-1.73,2.61-2.78.7-1.08,1.35-2.11,2.12-3,.83-.97,1.41-2.17,2.33-2.93.97-.8,2.35-.98,3.41-1.56,1.09-.59,1.95-1.8,3.13-2.16,1.16-.35,2.56.22,3.81.09,1.19-.13,2.39-.41,3.66-.36,1.19.06,2.37.39,3.63.61.8.14,2.29-.06,2.87-.6,1.17-1.08,2.11-1.7,3.14-2.09,1.39-.52,2.65-1.22,3.84-.81,1.17.41,1.67,2.05,2.73,2.99.95.84,2.33,1.3,3.24,2.29.82.88,1.8,1.63,2.53,2.56.74.95,1.21,2.09,1.86,3.08.66,1,.9,2.23,1.46,3.27.57,1.06,1.44,1.93,1.91,3.03.48,1.1,1.41,2.04,1.79,3.17.38,1.14.04,2.48.32,3.64.28,1.16.52,2.31.69,3.49.17,1.18-.11,2.38-.04,3.57.07,1.19.38,2.34.34,3.54-.04,1.19.38,2.42.23,3.61-.15,1.18-.86,2.27-1.12,3.44-.25,1.16-.17,2.41-.53,3.55-.35,1.13-.99,2.17-1.44,3.28-.45,1.1-.49,2.4-1.04,3.47-.54,1.05-1.32,2.01-1.96,3.03-.63,1.01-1.46,1.83-2.28,2.59-.83.77-1.39,2.03-2.39,2.65-.94.59-2.06,1.05-3.11,1.6-.98.52-2.18.7-3.23,1.27-1.06.57-2.31.8-3.4,1.32-1.1.53-2.11,1.24-3.22,1.67-1.14.45-2.25,1.05-3.4,1.34-1.19.3-2.44.55-3.62.62-1.21.07-2.41-.41-3.61-.64-1.15-.23-2.46-.22-3.58-.8-1.01-.52-1.96-1.37-2.94-2.22-.88-.75-2.09-.64-3.3-.99-1.12-.32-1.99-1.8-3.16-2.09-1.19-.29-2.32-.39-3.34-.95-1.11-.61-2.32-.9-3.13-1.66-.89-.84-1.59-1.82-2.19-2.81-.62-1.01-.97-2.15-1.36-3.27-.38-1.1-1.24-2.13-1.47-3.3-.23-1.15.49-2.47.34-3.65Z"/>
  </g>
</svg>