<svg width="192" height="62" viewBox="0 0 192 62" fill="none" xmlns="http://www.w3.org/2000/svg">
<path d="M13.4775 58.5282C14.9385 57.9992 16.198 57.3986 17.2556 56.7265C17.2648 56.7173 17.2691 56.7061 17.2691 56.6926C17.2691 56.6794 17.2602 56.6725 17.2424 56.6725H16.0457H14.795C14.5799 56.6725 14.3963 56.5942 14.2437 56.4373C14.0914 56.2804 14.0154 56.0988 14.0154 55.8926V52.0336C14.0154 51.8185 14.0914 51.6349 14.2437 51.4823C14.3963 51.33 14.5799 51.254 14.795 51.254H18.1431C18.2148 51.254 18.2507 51.2181 18.2507 51.1464V50.7832C18.2507 50.7115 18.2148 50.6757 18.1431 50.6757H13.8674C13.6522 50.6757 13.4684 50.5971 13.316 50.4405C13.1637 50.2836 13.0874 50.0974 13.0874 49.8823V49.7747C13.0874 49.5595 13.166 49.376 13.3226 49.2234C13.4795 49.071 13.6611 48.995 13.8674 48.995H18.1431C18.2148 48.995 18.2507 48.9592 18.2507 48.8875V48.8066C18.2507 48.5914 18.3293 48.4056 18.4859 48.2486C18.6428 48.0917 18.8244 48.0134 19.0306 48.0134H19.7297C19.9448 48.0134 20.1287 48.0917 20.281 48.2486C20.4336 48.4056 20.5096 48.5914 20.5096 48.8066V48.8875C20.5096 48.9592 20.5455 48.995 20.6172 48.995H24.893C25.1081 48.995 25.292 49.0733 25.4443 49.2302C25.5969 49.3871 25.6729 49.5687 25.6729 49.7747V49.8823C25.6729 50.0974 25.5946 50.2836 25.4377 50.4405C25.2808 50.5971 25.0992 50.6757 24.893 50.6757H20.6172C20.5455 50.6757 20.5096 50.7115 20.5096 50.7832V51.1464C20.5096 51.2181 20.5455 51.254 20.6172 51.254H23.9653C24.1805 51.254 24.3643 51.3323 24.5166 51.4892C24.669 51.6461 24.7453 51.8277 24.7453 52.0336V55.8926C24.7453 56.1077 24.669 56.2916 24.5166 56.4439C24.3643 56.5965 24.1805 56.6725 23.9653 56.6725H21.5182C21.5001 56.6725 21.4912 56.6794 21.4912 56.6926C21.4912 56.7061 21.4958 56.7173 21.5047 56.7265C22.5715 57.3986 23.8308 57.9992 25.2831 58.5282C25.4802 58.5999 25.6213 58.7344 25.7065 58.9315C25.7917 59.1288 25.7894 59.317 25.6999 59.4963L25.5117 59.9131C25.4219 60.1193 25.2719 60.2604 25.0611 60.3367C24.8505 60.4128 24.6466 60.4062 24.4495 60.3164C22.9613 59.6802 21.6751 58.963 20.5902 58.165C20.5366 58.1292 20.5096 58.1472 20.5096 58.2189V59.9535C20.5096 60.1687 20.4313 60.3522 20.2744 60.5048C20.1175 60.6572 19.9359 60.7332 19.7297 60.7332H19.0306C18.8155 60.7332 18.6316 60.6572 18.4793 60.5048C18.327 60.3522 18.2507 60.1687 18.2507 59.9535V58.2189C18.2507 58.1472 18.2194 58.1338 18.1566 58.1785C17.072 58.9762 15.7855 59.6934 14.2976 60.3299C14.0914 60.4197 13.8897 60.4217 13.6927 60.3367C13.4953 60.2516 13.3473 60.1104 13.2489 59.9131L13.0605 59.4963C12.9798 59.2989 12.9798 59.1065 13.0605 58.918C13.1413 58.7298 13.2802 58.5999 13.4775 58.5282ZM20.5096 52.854V53.2438C20.5096 53.3244 20.5455 53.3649 20.6172 53.3649H22.6074C22.688 53.3649 22.7284 53.3244 22.7284 53.2438V52.854C22.7284 52.7731 22.688 52.7284 22.6074 52.7195H20.6172C20.5455 52.7284 20.5096 52.7731 20.5096 52.854ZM20.5096 54.7498V55.1801C20.5096 55.2607 20.5455 55.3011 20.6172 55.3011H22.6074C22.688 55.3011 22.7284 55.2607 22.7284 55.1801V54.7498C22.7284 54.6692 22.688 54.6287 22.6074 54.6287H20.6172C20.5455 54.6287 20.5096 54.6692 20.5096 54.7498ZM16.0457 52.854V53.2438C16.0457 53.3244 16.0816 53.3649 16.1533 53.3649H18.1431C18.2148 53.3649 18.2507 53.3244 18.2507 53.2438V52.854C18.2507 52.7731 18.2148 52.7284 18.1431 52.7195H16.1533C16.0816 52.7284 16.0457 52.7731 16.0457 52.854ZM16.1533 55.3011H18.1431C18.2148 55.3011 18.2507 55.2607 18.2507 55.1801V54.7498C18.2507 54.6692 18.2148 54.6287 18.1431 54.6287H16.1533C16.0816 54.6287 16.0457 54.6692 16.0457 54.7498V55.1801C16.0457 55.2607 16.0816 55.3011 16.1533 55.3011Z" fill="#373737"/>
<path d="M30.8497 57.9097C30.1685 58.6535 29.3842 59.3618 28.4967 60.0341C28.3174 60.1595 28.1181 60.2088 27.8983 60.1821C27.6786 60.1552 27.5016 60.0565 27.3671 59.8861L27.0983 59.5634C26.9727 59.4022 26.9213 59.216 26.9437 59.0055C26.9661 58.7949 27.0625 58.6268 27.2328 58.5012C28.0306 57.9005 28.7566 57.2597 29.4109 56.5785C29.5543 56.4261 29.7336 56.3455 29.9487 56.3364C30.1639 56.3275 30.3477 56.3946 30.5 56.538L30.7826 56.7801C30.9349 56.9324 31.0201 57.1186 31.0379 57.338C31.056 57.5578 30.9931 57.7482 30.8497 57.9097ZM35.5291 58.0575C35.3676 57.9321 35.2758 57.7594 35.2534 57.54C35.2308 57.3202 35.287 57.1344 35.4215 56.9818L35.7173 56.6324C35.8607 56.4709 36.0423 56.3768 36.2617 56.3498C36.4814 56.3229 36.6765 56.3768 36.8466 56.5113C37.5278 57.0222 38.29 57.6854 39.1325 58.5012C39.2848 58.6535 39.3657 58.8397 39.3746 59.0591C39.3835 59.2789 39.3118 59.465 39.1595 59.6173L38.8502 59.9535C38.7068 60.1058 38.5252 60.1841 38.3055 60.1887C38.0861 60.1933 37.8999 60.1193 37.7476 59.967C37.0124 59.2857 36.2729 58.6492 35.5291 58.0575ZM27.6362 50.7293C27.421 50.7293 27.2371 50.651 27.0848 50.4941C26.9325 50.3372 26.8562 50.1556 26.8562 49.9497V49.7747C26.8562 49.5595 26.9348 49.376 27.0914 49.2234C27.2483 49.071 27.4299 48.995 27.6362 48.995H31.9119C31.9836 48.995 32.0195 48.9592 32.0195 48.8875V48.8066C32.0195 48.5914 32.0981 48.4056 32.2547 48.2486C32.4116 48.0917 32.5932 48.0134 32.7994 48.0134H33.4985C33.7136 48.0134 33.8975 48.0917 34.0498 48.2486C34.2024 48.4056 34.2784 48.5914 34.2784 48.8066V48.8875C34.2784 48.9592 34.3143 48.995 34.386 48.995H38.6618C38.8769 48.995 39.0608 49.0733 39.2131 49.2302C39.3657 49.3871 39.4417 49.5687 39.4417 49.7747V49.9497C39.4417 50.1648 39.3634 50.3484 39.2065 50.501C39.0496 50.6533 38.868 50.7293 38.6618 50.7293H27.6362ZM30.0431 59.846L30.0296 59.5499C30.0204 59.344 30.0855 59.1667 30.2244 59.019C30.3635 58.871 30.5405 58.8015 30.7556 58.8104C31.3204 58.8285 31.6073 58.8374 31.6162 58.8374C31.885 58.8374 32.0419 58.8127 32.0869 58.7634C32.1316 58.714 32.154 58.5505 32.154 58.2726V56.2962C32.154 56.2153 32.1182 56.1706 32.0465 56.1617H30.2448H28.8329C28.6177 56.1617 28.4339 56.0854 28.2816 55.933C28.1292 55.7807 28.0529 55.5969 28.0529 55.3817V52.101C28.0529 51.8859 28.1312 51.702 28.2882 51.5497C28.4451 51.3974 28.6266 51.3211 28.8329 51.3211H37.4653C37.6805 51.3211 37.864 51.3994 38.0164 51.5563C38.169 51.7132 38.245 51.8948 38.245 52.101V55.3817C38.245 55.5969 38.1667 55.7807 38.0098 55.933C37.8529 56.0854 37.6713 56.1617 37.4653 56.1617H34.5205C34.4488 56.1617 34.413 56.2064 34.413 56.2962V58.192C34.413 58.6134 34.4061 58.945 34.3929 59.1871C34.3794 59.4292 34.339 59.6532 34.2718 59.8594C34.2044 60.0654 34.1261 60.2157 34.0363 60.3098C33.9468 60.4039 33.8011 60.4822 33.5995 60.545C33.3978 60.6078 33.185 60.646 32.9606 60.6595C32.7366 60.6726 32.4228 60.6795 32.0195 60.6795C31.6162 60.6795 31.2352 60.6706 30.8767 60.6526C30.6527 60.6437 30.4599 60.5631 30.2984 60.4105C30.1372 60.2582 30.052 60.07 30.0431 59.846ZM30.3658 54.6018H35.9324C36.013 54.6018 36.0534 54.557 36.0534 54.4675V53.0017C36.0534 52.93 36.013 52.8942 35.9324 52.8942H30.3658C30.2849 52.8942 30.2448 52.93 30.2448 53.0017V54.4675C30.2448 54.557 30.2849 54.6018 30.3658 54.6018Z" fill="#373737"/>
<path d="M45.9093 51.2406C44.977 51.4916 44.2464 51.9621 43.7175 52.6525C43.1888 53.3427 42.9243 54.1808 42.9243 55.1667C42.9243 55.7852 43.0454 56.3434 43.2872 56.8408C43.5293 57.3382 43.7533 57.5872 43.9596 57.5872C44.0582 57.5872 44.1681 57.5244 44.2892 57.3987C44.4099 57.2734 44.5421 57.0582 44.6856 56.7533C44.829 56.4487 44.9747 56.0631 45.1227 55.597C45.2705 55.1309 45.4231 54.5302 45.58 53.7953C45.7366 53.0601 45.878 52.2354 46.0034 51.3212C46.0122 51.2943 46.0057 51.2719 45.9833 51.2541C45.9609 51.236 45.9362 51.2315 45.9093 51.2406ZM43.9596 59.7116C43.1796 59.7116 42.4605 59.2701 41.8016 58.3872C41.1427 57.5043 40.8131 56.4306 40.8131 55.1667C40.8131 53.3562 41.425 51.8838 42.6487 50.7498C43.8721 49.6159 45.479 49.0488 47.4692 49.0488C49.0735 49.0488 50.4002 49.5554 51.4492 50.5683C52.4979 51.5811 53.0223 52.872 53.0223 54.4407C53.0223 55.9108 52.6815 57.1188 52.0002 58.0645C51.319 59.0102 50.3913 59.6175 49.2169 59.8863C48.9929 59.9313 48.7867 59.8886 48.5985 59.7586C48.4103 59.6287 48.2938 59.456 48.2488 59.2409L48.1412 58.7704C48.0965 58.5642 48.1346 58.3714 48.2557 58.1921C48.3768 58.0129 48.5357 57.8918 48.733 57.829C50.185 57.3629 50.9113 56.2335 50.9113 54.4407C50.9113 53.6071 50.6781 52.8943 50.212 52.3028C49.7459 51.7111 49.1228 51.3258 48.3429 51.1466C48.2804 51.1374 48.2399 51.1732 48.2221 51.2541C47.98 52.9394 47.711 54.3489 47.4152 55.4829C47.1195 56.6168 46.7879 57.4839 46.4201 58.0846C46.0527 58.6852 45.6764 59.1066 45.2908 59.3484C44.9053 59.5905 44.4615 59.7116 43.9596 59.7116Z" fill="#373737"/>
<path d="M55.4559 55.1666C55.2408 55.1666 55.0572 55.0906 54.9046 54.938C54.7523 54.7857 54.6763 54.6018 54.6763 54.3866V54.212C54.6763 53.9968 54.7523 53.8129 54.9046 53.6606C55.0572 53.5083 55.2408 53.432 55.4559 53.432H59.3958C59.4764 53.432 59.5168 53.3873 59.5168 53.2978C59.5435 53.0198 59.557 52.7419 59.557 52.4639V51.7379C59.557 51.6573 59.5211 51.6125 59.4494 51.6033H56.0342C55.8191 51.6033 55.6352 51.5273 55.4829 51.3747C55.3306 51.2224 55.2543 51.0388 55.2543 50.8237V50.5546C55.2543 50.3395 55.3306 50.1536 55.4829 49.9967C55.6352 49.8398 55.8191 49.7612 56.0342 49.7612H59.4494C59.5211 49.7612 59.557 49.721 59.557 49.6404V48.8066C59.557 48.5914 59.6356 48.4056 59.7922 48.2486C59.9491 48.0917 60.1307 48.0134 60.337 48.0134H61.036C61.2511 48.0134 61.435 48.0917 61.5873 48.2486C61.7399 48.4056 61.8159 48.5914 61.8159 48.8066V49.6404C61.8159 49.721 61.8518 49.7612 61.9235 49.7612H65.3387C65.5539 49.7612 65.7377 49.8398 65.8901 49.9967C66.0427 50.1536 66.1187 50.3395 66.1187 50.5546V50.8237C66.1187 51.0388 66.0427 51.2224 65.8901 51.3747C65.7377 51.5273 65.5539 51.6033 65.3387 51.6033H61.9235C61.8518 51.6033 61.8159 51.6484 61.8159 51.7379V52.3428C61.8159 52.352 61.8136 52.3698 61.8093 52.3968C61.8048 52.4237 61.8025 52.4415 61.8025 52.4504V52.4639L61.8159 52.4774C61.8159 52.7642 61.8294 53.0376 61.8564 53.2978C61.8564 53.3784 61.8965 53.4231 61.9774 53.432H65.917C66.1322 53.432 66.316 53.5083 66.4683 53.6606C66.6207 53.8129 66.697 53.9968 66.697 54.212V54.3866C66.697 54.6018 66.6207 54.7857 66.4683 54.938C66.316 55.0906 66.1322 55.1666 65.917 55.1666H62.4613C62.3896 55.1666 62.3719 55.2024 62.4077 55.2742C63.0439 56.5472 64.3081 57.6407 66.1993 58.5551C66.3966 58.6446 66.5266 58.7881 66.5894 58.9854C66.6522 59.1825 66.6341 59.3706 66.5355 59.5499L66.3068 59.9802C66.1993 60.1776 66.0381 60.3075 65.8229 60.3703C65.6078 60.4331 65.4016 60.4151 65.2045 60.3164C63.1965 59.2677 61.7399 57.9591 60.8343 56.3903C60.7985 56.3364 60.7583 56.3409 60.7133 56.4038C59.7632 57.9903 58.2392 59.3035 56.1418 60.3433C55.9444 60.4331 55.7405 60.4443 55.5299 60.3769C55.3194 60.3098 55.1648 60.1776 55.0661 59.9802L54.8375 59.5499C54.7388 59.3706 54.7233 59.1825 54.7904 58.9854C54.8576 58.7881 54.9855 58.6446 55.1737 58.5551C57.074 57.6318 58.3379 56.538 58.9655 55.2742C59.0014 55.2024 58.979 55.1666 58.8981 55.1666H55.4559Z" fill="#373737"/>
<path d="M78.1261 52.1682C78.2067 52.1682 78.2515 52.1323 78.2604 52.0606V51.9531C78.2604 51.8725 78.2156 51.832 78.1261 51.832H73.5543C73.384 51.832 73.2339 51.7672 73.104 51.637C72.974 51.507 72.9089 51.3547 72.9089 51.18C72.9089 51.005 72.9717 50.8573 73.0971 50.7363C73.2227 50.6152 73.3751 50.5547 73.5543 50.5547H78.1261C78.2067 50.5547 78.2515 50.5099 78.2604 50.4201V50.3126C78.2604 50.2409 78.2156 50.205 78.1261 50.205H73.4198C73.2047 50.205 73.0211 50.1267 72.8685 49.9698C72.7162 49.8129 72.6402 49.6313 72.6402 49.4253V49.1833C72.6402 48.9681 72.7185 48.7842 72.8754 48.6319C73.0323 48.4796 73.2138 48.4033 73.4198 48.4033H79.6588C79.8739 48.4033 80.0578 48.4816 80.2101 48.6385C80.3624 48.7954 80.4387 48.977 80.4387 49.1833V52.7465C80.4387 52.9616 80.3624 53.1452 80.2101 53.2978C80.0578 53.4501 79.8739 53.5261 79.6588 53.5261H73.3257C73.1464 53.5261 72.9872 53.459 72.8484 53.3245C72.7096 53.1902 72.6402 53.031 72.6402 52.8472C72.6402 52.6636 72.7096 52.5044 72.8484 52.3699C72.9872 52.2353 73.1464 52.1682 73.3257 52.1682H78.1261ZM68.5657 51.9396C68.3687 51.9396 68.2029 51.8702 68.0684 51.7313C67.9338 51.5922 67.8667 51.4287 67.8667 51.2405V50.9313C67.8667 50.7162 67.943 50.5323 68.0953 50.38C68.2476 50.2274 68.4315 50.1514 68.6466 50.1514H68.7677C68.8483 50.1514 68.8885 50.1155 68.8885 50.0438C68.8976 49.954 68.9131 49.777 68.9355 49.5126C68.9582 49.2481 68.9736 49.0441 68.9828 48.9007C68.9917 48.6856 69.0789 48.5043 69.245 48.3563C69.4108 48.2083 69.6013 48.1388 69.8164 48.1477L70.1122 48.1612C70.3273 48.1704 70.5089 48.2576 70.6566 48.4234C70.8046 48.5892 70.8697 48.7799 70.8516 48.9951C70.8339 49.2369 70.798 49.5866 70.7441 50.0438C70.7441 50.1155 70.7799 50.1514 70.8516 50.1514H71.6852C71.9004 50.1514 72.0865 50.2297 72.2434 50.3866C72.4003 50.5435 72.4787 50.7251 72.4787 50.9313V51.0254C72.4787 52.0652 72.4293 52.9794 72.3306 53.7682C72.3129 53.8489 72.3441 53.8893 72.425 53.8893H80.2775C80.4926 53.8893 80.6785 53.9676 80.8354 54.1245C80.9923 54.2814 81.0706 54.4676 81.0706 54.6827V56.3903C81.0706 56.5068 81.0282 56.6098 80.943 56.6996C80.8578 56.7891 80.7525 56.8341 80.6269 56.8341C80.5821 56.8341 80.5598 56.8565 80.5598 56.9012V57.9098C80.5598 58.4743 80.5486 58.8845 80.5262 59.1401C80.5038 59.3954 80.4163 59.6085 80.264 59.7786C80.1114 59.949 79.9255 60.0477 79.7058 60.0746C79.4864 60.1013 79.1255 60.1148 78.6235 60.1148H78.5564C78.3321 60.1148 78.1462 60.0342 77.9982 59.8727C77.8505 59.7115 77.7719 59.5233 77.763 59.3082V59.2542C77.7541 59.1108 77.8594 58.9651 78.0788 58.8174C78.2985 58.6693 78.4354 58.546 78.489 58.4476C78.5071 58.4206 78.516 58.3355 78.516 58.192V57.7618C78.516 57.69 78.4801 57.6542 78.4084 57.6542H77.4403C77.3597 57.6542 77.3192 57.69 77.3192 57.7618V60.0878C77.3192 60.303 77.2429 60.4891 77.0906 60.646C76.9383 60.8029 76.759 60.8812 76.5528 60.8812H75.9748C75.7596 60.8812 75.5735 60.8029 75.4166 60.646C75.2597 60.4891 75.1814 60.303 75.1814 60.0878V57.7618C75.1814 57.69 75.1455 57.6542 75.0738 57.6542H74.3073C74.2356 57.6542 74.1998 57.69 74.1998 57.7618V59.3483C74.1998 59.5635 74.1214 59.7473 73.9645 59.8996C73.8076 60.052 73.6215 60.1283 73.4063 60.1283H72.976C72.7609 60.1283 72.5773 60.05 72.425 59.893C72.2724 59.7361 72.1964 59.5546 72.1964 59.3483V58.8779C72.1872 58.8598 72.174 58.8509 72.156 58.8509C72.1201 58.9137 72.0573 58.9989 71.9678 59.1065L71.7661 59.3082C71.6405 59.4335 71.4836 59.4829 71.2954 59.4559C71.1072 59.4292 70.9773 59.3305 70.9056 59.1601C70.8875 59.1243 70.8628 59.0684 70.8316 58.9921C70.8 58.9158 70.7756 58.8598 70.7576 58.824C70.7217 58.7703 70.6859 58.7657 70.65 58.8105C70.2556 59.4023 69.794 59.949 69.2651 60.451C69.1217 60.5855 68.9536 60.6368 68.7608 60.6056C68.568 60.5743 68.418 60.469 68.3105 60.2898L68.149 59.9803C67.916 59.55 67.9832 59.1424 68.3506 58.7568C68.8796 58.219 69.3144 57.6542 69.6549 57.0627C69.6999 56.991 69.6954 56.9236 69.6414 56.8608C69.6148 56.816 69.572 56.7555 69.5138 56.6795C69.4555 56.6032 69.422 56.5607 69.4131 56.5515C69.3772 56.5157 69.3503 56.5203 69.3322 56.565C69.2875 56.6907 69.1934 56.7667 69.05 56.7936C68.9065 56.8206 68.7901 56.7759 68.7003 56.6591L68.3239 56.1752C68.0012 55.7808 67.916 55.337 68.0684 54.8439C68.3193 53.9923 68.5167 53.0557 68.6601 52.0337C68.6779 51.9711 68.6466 51.9396 68.5657 51.9396ZM77.3192 55.5699V55.987C77.3192 56.0676 77.3597 56.1078 77.4403 56.1078H78.9058C78.9867 56.1078 79.0268 56.0676 79.0268 55.987V55.5699C79.0268 55.4893 78.9867 55.4492 78.9058 55.4492H77.4403C77.3597 55.4492 77.3192 55.4893 77.3192 55.5699ZM73.5007 55.5699V55.987C73.5007 56.0676 73.5409 56.1078 73.6215 56.1078H75.0738C75.1455 56.1078 75.1814 56.0676 75.1814 55.987V55.5699C75.1814 55.4893 75.1455 55.4492 75.0738 55.4492H73.6215C73.5409 55.4492 73.5007 55.4893 73.5007 55.5699ZM72.1155 56.8341C71.999 56.8341 71.8915 56.7936 71.7928 56.713C71.7303 56.6683 71.6898 56.6815 71.672 56.7532C71.6451 56.816 71.654 56.8877 71.6987 56.9683C71.6987 56.9775 71.8467 57.2552 72.1425 57.8022C72.1514 57.8111 72.1625 57.8157 72.176 57.8157C72.1895 57.8157 72.1964 57.8065 72.1964 57.7887V56.9147C72.1964 56.8608 72.1694 56.8341 72.1155 56.8341ZM69.9911 54.4271C69.9733 54.5077 69.9868 54.5795 70.0315 54.6423C70.175 54.8038 70.2868 54.9291 70.3677 55.0189C70.3855 55.0367 70.4056 55.0413 70.4283 55.0321C70.4506 55.0232 70.4661 55.0054 70.4753 54.9785C70.6993 54.1357 70.8382 53.1633 70.8921 52.0606C70.8921 51.98 70.8562 51.9396 70.7845 51.9396H70.6095C70.5378 51.9396 70.4931 51.98 70.4753 52.0606C70.3497 52.8495 70.1884 53.6383 69.9911 54.4271Z" fill="#373737"/>
<path d="M87.2156 51.2406C86.2833 51.4916 85.5527 51.9621 85.0237 52.6525C84.4951 53.3427 84.2306 54.1808 84.2306 55.1667C84.2306 55.7852 84.3516 56.3434 84.5935 56.8408C84.8356 57.3382 85.0596 57.5872 85.2658 57.5872C85.3645 57.5872 85.4744 57.5244 85.5954 57.3987C85.7162 57.2734 85.8484 57.0582 85.9918 56.7533C86.1353 56.4487 86.281 56.0631 86.429 55.597C86.5767 55.1309 86.7293 54.5302 86.8862 53.7953C87.0429 53.0601 87.1843 52.2354 87.3096 51.3212C87.3185 51.2943 87.3119 51.2719 87.2896 51.2541C87.2672 51.236 87.2425 51.2315 87.2156 51.2406ZM85.2658 59.7116C84.4859 59.7116 83.7668 59.2701 83.1079 58.3872C82.449 57.5043 82.1194 56.4306 82.1194 55.1667C82.1194 53.3562 82.7312 51.8838 83.9549 50.7498C85.1783 49.6159 86.7853 49.0488 88.7754 49.0488C90.3798 49.0488 91.7064 49.5554 92.7555 50.5683C93.8042 51.5811 94.3285 52.872 94.3285 54.4407C94.3285 55.9108 93.9878 57.1188 93.3065 58.0645C92.6252 59.0102 91.6976 59.6175 90.5232 59.8863C90.2992 59.9313 90.0929 59.8886 89.9048 59.7586C89.7166 59.6287 89.6001 59.456 89.5551 59.2409L89.4475 58.7704C89.4028 58.5642 89.4409 58.3714 89.562 58.1921C89.683 58.0129 89.8419 57.8918 90.0393 57.829C91.4913 57.3629 92.2176 56.2335 92.2176 54.4407C92.2176 53.6071 91.9844 52.8943 91.5183 52.3028C91.0521 51.7111 90.4291 51.3258 89.6492 51.1466C89.5866 51.1374 89.5462 51.1732 89.5284 51.2541C89.2863 52.9394 89.0172 54.3489 88.7215 55.4829C88.4258 56.6168 88.0942 57.4839 87.7264 58.0846C87.359 58.6852 86.9826 59.1066 86.5971 59.3484C86.2116 59.5905 85.7678 59.7116 85.2658 59.7116Z" fill="#373737"/>
<path d="M99.3842 55.1531C98.6401 55.6193 98.2727 56.1886 98.2816 56.8607C98.2816 57.2193 98.3645 57.4972 98.5303 57.6946C98.6961 57.8917 98.9316 57.9903 99.2362 57.9903C99.2543 57.9903 99.2767 57.9881 99.3036 57.9835C99.3303 57.9792 99.3484 57.9769 99.3573 57.9769C99.4379 57.9769 99.4829 57.9321 99.4918 57.8423V55.1936C99.4829 55.1219 99.447 55.1084 99.3842 55.1531ZM102.786 54.3061C102.383 54.3061 101.993 54.333 101.616 54.3867C101.544 54.4047 101.509 54.4452 101.509 54.5077V56.686C101.509 56.7041 101.52 56.7173 101.542 56.7265C101.565 56.7354 101.58 56.7308 101.589 56.713C102.19 56.0854 102.696 55.3189 103.109 54.4136C103.118 54.3867 103.113 54.362 103.095 54.3396C103.077 54.3172 103.055 54.3061 103.028 54.3061H102.786ZM99.0076 59.8595C98.1562 59.8595 97.4704 59.6105 96.9506 59.1131C96.4305 58.6157 96.1707 57.941 96.1707 57.0894C96.1707 56.1663 96.4506 55.3436 97.0108 54.6222C97.5713 53.9004 98.3622 53.3514 99.3842 52.9751C99.447 52.9481 99.4829 52.8988 99.4918 52.8271V51.6168C99.4918 51.5451 99.4513 51.5093 99.3707 51.5093H97.5825C97.3674 51.5093 97.1835 51.431 97.0312 51.2741C96.8789 51.1172 96.8026 50.9356 96.8026 50.7293V50.5277C96.8026 50.3125 96.8809 50.1267 97.0378 49.9698C97.1947 49.8129 97.3763 49.7345 97.5825 49.7345H99.3707C99.4425 49.7345 99.4829 49.6987 99.4918 49.627V49.0487C99.4918 48.8335 99.5681 48.652 99.7204 48.5042C99.8727 48.3562 100.057 48.2822 100.272 48.2822H100.729C100.944 48.2822 101.128 48.3562 101.28 48.5042C101.433 48.652 101.509 48.8335 101.509 49.0487V49.627C101.509 49.6987 101.549 49.7345 101.63 49.7345H106.403C106.618 49.7345 106.802 49.8129 106.954 49.9698C107.107 50.1267 107.183 50.3125 107.183 50.5277V50.7293C107.183 50.9445 107.104 51.1283 106.948 51.2807C106.791 51.4333 106.609 51.5093 106.403 51.5093H101.63C101.549 51.5093 101.509 51.5451 101.509 51.6168V52.3833C101.509 52.4461 101.544 52.4774 101.616 52.4774C101.948 52.4415 102.338 52.4237 102.786 52.4237C104.399 52.4237 105.641 52.7754 106.511 53.4791C107.38 54.1827 107.815 55.1396 107.815 56.3499C107.815 57.291 107.528 58.1137 106.954 58.8173C106.381 59.521 105.592 60.0341 104.588 60.3568C104.382 60.4197 104.182 60.395 103.99 60.2828C103.797 60.1707 103.669 60.0118 103.606 59.8055L103.485 59.4157C103.422 59.2183 103.441 59.0279 103.539 58.844C103.638 58.6604 103.786 58.5236 103.983 58.4341C104.503 58.2101 104.92 57.9117 105.233 57.54C105.547 57.1679 105.704 56.7712 105.704 56.3499C105.704 55.7403 105.511 55.2653 105.126 54.9245C105.081 54.8798 105.041 54.8978 105.005 54.9784C104.35 56.5291 103.485 57.7305 102.41 58.5818C101.334 59.4335 100.2 59.8595 99.0076 59.8595Z" fill="#373737"/>
<path d="M115.829 58.4207C115.918 58.1786 115.963 57.968 115.963 57.7887C115.963 57.5466 115.873 57.3697 115.694 57.2575C115.515 57.1456 115.179 57.0894 114.686 57.0894C114.291 57.0894 113.995 57.1522 113.798 57.2779C113.601 57.4032 113.503 57.5601 113.503 57.7483C113.503 58.2773 114.215 58.546 115.641 58.5552C115.641 58.5552 115.645 58.5552 115.654 58.5552L115.681 58.5282C115.752 58.5282 115.802 58.4924 115.829 58.4207ZM110.544 55.1667L110.477 55.0321C110.387 54.8351 110.374 54.6311 110.437 54.4206C110.5 54.2097 110.621 54.0462 110.8 53.9298L116.057 50.8504L116.071 50.837H116.057H111.822C111.607 50.837 111.425 50.7587 111.277 50.6017C111.129 50.4448 111.055 50.2633 111.055 50.0573V49.7882C111.055 49.5731 111.132 49.3895 111.284 49.2369C111.436 49.0846 111.616 49.0083 111.822 49.0083H119.257C119.473 49.0083 119.656 49.0869 119.809 49.2438C119.961 49.4007 120.037 49.582 120.037 49.7882V50.1109C120.037 50.6399 119.813 51.0208 119.365 51.254L115.936 53.0692V53.0827H115.95C116.407 53.0018 116.846 52.9616 117.268 52.9616C118.513 52.9616 119.477 53.2462 120.158 53.8153C120.84 54.3847 121.18 55.1532 121.18 56.1213C121.18 57.4302 120.699 58.4497 119.735 59.1803C118.771 59.9109 117.406 60.2763 115.641 60.2763C112.862 60.2763 111.472 59.4335 111.472 57.7483C111.472 57.1118 111.772 56.5785 112.373 56.1483C112.974 55.718 113.785 55.5028 114.807 55.5028C115.865 55.5028 116.631 55.6755 117.106 56.0206C117.581 56.3657 117.819 56.8835 117.819 57.5736C117.819 57.7799 117.81 57.9322 117.792 58.0308C117.792 58.0486 117.801 58.0644 117.819 58.0779C117.837 58.0911 117.855 58.0934 117.873 58.0845C118.554 57.699 118.89 57.0986 118.881 56.2828C118.881 55.1443 118.016 54.5752 116.286 54.5752C115.416 54.5752 114.628 54.6469 113.919 54.7903C113.211 54.9337 112.44 55.1847 111.607 55.5433C111.401 55.6239 111.194 55.6305 110.988 55.5634C110.782 55.4962 110.634 55.364 110.544 55.1667Z" fill="#373737"/>
<path d="M125.08 60.599C124.864 60.599 124.68 60.5204 124.528 60.3635C124.376 60.2065 124.3 60.0253 124.3 59.819V49.2503C124.3 49.0352 124.378 48.8536 124.535 48.7059C124.692 48.5579 124.873 48.4839 125.08 48.4839H133.981C134.196 48.4839 134.38 48.5602 134.532 48.7125C134.684 48.8648 134.761 49.0441 134.761 49.2503V59.819C134.761 60.0341 134.682 60.218 134.525 60.3703C134.369 60.5227 134.187 60.599 133.981 60.599H133.201C133.031 60.599 132.883 60.5361 132.757 60.4105C132.632 60.2851 132.569 60.1328 132.569 59.9535C132.569 59.8907 132.538 59.8595 132.475 59.8595H126.585C126.523 59.8595 126.491 59.8907 126.491 59.9535C126.491 60.1328 126.429 60.2851 126.303 60.4105C126.178 60.5361 126.03 60.599 125.859 60.599H125.08ZM126.491 50.4336V53.0692C126.491 53.1409 126.532 53.1767 126.612 53.1767H132.448C132.529 53.1767 132.569 53.1409 132.569 53.0692V50.4336C132.569 50.3619 132.529 50.326 132.448 50.326H126.612C126.532 50.326 126.491 50.3619 126.491 50.4336ZM126.491 55.086V57.9499C126.491 58.0216 126.532 58.0621 126.612 58.071H132.448C132.529 58.071 132.569 58.0308 132.569 57.9499V55.086C132.569 55.0054 132.529 54.965 132.448 54.965H126.612C126.532 54.965 126.491 55.0054 126.491 55.086Z" fill="#373737"/>
<path d="M142.29 51.2406C141.358 51.4916 140.628 51.9621 140.099 52.6525C139.57 53.3427 139.306 54.1808 139.306 55.1667C139.306 55.7852 139.427 56.3434 139.668 56.8408C139.911 57.3382 140.135 57.5872 140.341 57.5872C140.439 57.5872 140.549 57.5244 140.67 57.3987C140.791 57.2734 140.923 57.0582 141.067 56.7533C141.21 56.4487 141.356 56.0631 141.504 55.597C141.652 55.1309 141.804 54.5302 141.961 53.7953C142.118 53.0601 142.259 52.2354 142.385 51.3212C142.393 51.2943 142.387 51.2719 142.364 51.2541C142.342 51.236 142.317 51.2315 142.29 51.2406ZM140.341 59.7116C139.561 59.7116 138.842 59.2701 138.183 58.3872C137.524 57.5043 137.194 56.4306 137.194 55.1667C137.194 53.3562 137.806 51.8838 139.03 50.7498C140.253 49.6159 141.86 49.0488 143.85 49.0488C145.455 49.0488 146.781 49.5554 147.83 50.5683C148.879 51.5811 149.403 52.872 149.403 54.4407C149.403 55.9108 149.063 57.1188 148.381 58.0645C147.7 59.0102 146.773 59.6175 145.598 59.8863C145.374 59.9313 145.168 59.8886 144.98 59.7586C144.792 59.6287 144.675 59.456 144.63 59.2409L144.522 58.7704C144.478 58.5642 144.516 58.3714 144.637 58.1921C144.758 58.0129 144.917 57.8918 145.114 57.829C146.566 57.3629 147.293 56.2335 147.293 54.4407C147.293 53.6071 147.059 52.8943 146.593 52.3028C146.127 51.7111 145.504 51.3258 144.724 51.1466C144.662 51.1374 144.621 51.1732 144.603 51.2541C144.361 52.9394 144.092 54.3489 143.796 55.4829C143.501 56.6168 143.169 57.4839 142.801 58.0846C142.434 58.6852 142.058 59.1066 141.672 59.3484C141.287 59.5905 140.843 59.7116 140.341 59.7116Z" fill="#373737"/>
<path d="M150.64 51.4958L150.56 51.1866C150.506 50.9714 150.531 50.7632 150.634 50.5612C150.737 50.3596 150.896 50.223 151.111 50.1513C152.581 49.6046 153.886 49.0174 155.024 48.3898C155.481 48.1388 155.97 48.0134 156.49 48.0134H157.646C158.166 48.0134 158.65 48.1388 159.098 48.3898C160.227 49.0082 161.536 49.5954 163.024 50.1513C163.239 50.223 163.399 50.3596 163.502 50.5612C163.605 50.7632 163.629 50.9714 163.576 51.1866L163.495 51.4958C163.441 51.7109 163.322 51.8655 163.139 51.9596C162.955 52.054 162.764 52.0652 162.567 51.9935C162.253 51.8859 162.016 51.8007 161.854 51.7379C161.792 51.7201 161.76 51.7468 161.76 51.8185V55.6103C161.76 55.6909 161.787 55.7627 161.841 55.8255L162.5 56.4172C162.652 56.5607 162.731 56.7354 162.735 56.9416C162.74 57.1476 162.661 57.3225 162.5 57.466C162.043 57.8515 161.698 58.1338 161.465 58.313C161.447 58.3308 161.444 58.3512 161.458 58.3736C161.471 58.3959 161.487 58.4117 161.505 58.4206C161.873 58.5729 162.271 58.712 162.702 58.8374C162.881 58.8913 163.011 59.0101 163.092 59.1937C163.172 59.3775 163.159 59.5545 163.051 59.7249L162.863 60.0206C162.747 60.2269 162.58 60.3769 162.365 60.471C162.15 60.5651 161.931 60.5809 161.707 60.518C160.299 60.1236 159.035 59.4828 157.915 58.5953C157.879 58.5775 157.852 58.591 157.834 58.6357L157.888 59.1871C157.906 59.4111 157.85 59.6061 157.72 59.7719C157.59 59.9377 157.417 60.0341 157.202 60.0611C155.275 60.3299 153.478 60.5091 151.81 60.5989C151.586 60.6167 151.391 60.5539 151.225 60.4105C151.059 60.2671 150.968 60.0878 150.95 59.8726L150.936 59.6443C150.918 59.4292 150.979 59.2453 151.118 59.093C151.257 58.9404 151.434 58.8555 151.649 58.8374C151.703 58.8285 151.786 58.8239 151.898 58.8239C152.01 58.8239 152.093 58.8196 152.146 58.8104C152.218 58.8104 152.259 58.7703 152.267 58.6894V51.8589C152.267 51.7872 152.227 51.7603 152.146 51.7783C152.084 51.7961 151.99 51.832 151.864 51.8859C151.739 51.9395 151.64 51.9754 151.568 51.9935C151.362 52.0652 151.169 52.054 150.99 51.9596C150.811 51.8655 150.694 51.7109 150.64 51.4958ZM157.431 58.2861C157.449 58.2861 157.462 58.2749 157.471 58.2525C157.48 58.2301 157.48 58.2144 157.471 58.2055C156.915 57.7035 156.445 57.1702 156.059 56.6054C156.015 56.5426 155.956 56.5113 155.885 56.5113H154.58C154.5 56.5113 154.455 56.5515 154.446 56.6324V58.5012C154.446 58.5729 154.49 58.6134 154.58 58.6223C155.53 58.5147 156.481 58.4025 157.431 58.2861ZM154.58 54.9514H159.448C159.528 54.9514 159.569 54.9113 159.569 54.8304V54.4942C159.569 54.4225 159.528 54.3866 159.448 54.3866H154.58C154.5 54.3866 154.455 54.4225 154.446 54.4942V54.8304C154.455 54.9113 154.5 54.9514 154.58 54.9514ZM154.446 52.8942C154.446 52.9751 154.49 53.0152 154.58 53.0152H159.448C159.528 53.0152 159.569 52.9751 159.569 52.8942V52.5984C159.569 52.5178 159.528 52.4774 159.448 52.4774H154.58C154.5 52.4774 154.455 52.5178 154.446 52.5984V52.8942ZM160.725 56.5919C160.743 56.5739 160.75 56.5561 160.745 56.538C160.741 56.5202 160.729 56.5113 160.712 56.5113H158.48C158.462 56.5113 158.448 56.5202 158.439 56.538C158.43 56.5561 158.435 56.5739 158.453 56.5919C158.775 56.9058 159.116 57.1834 159.474 57.4255C159.528 57.4703 159.596 57.466 159.676 57.412C160.142 57.0627 160.492 56.789 160.725 56.5919ZM156.96 49.3849C156.055 49.9497 155.145 50.4471 154.231 50.8773C154.231 50.8954 154.239 50.9086 154.258 50.9178H155.925C156.006 50.9178 156.046 50.8819 156.046 50.8102V50.5951C156.046 50.3799 156.124 50.1938 156.281 50.0369C156.438 49.88 156.624 49.8016 156.839 49.8016H157.296C157.512 49.8016 157.697 49.88 157.854 50.0369C158.011 50.1938 158.09 50.3799 158.09 50.5951V50.8102C158.09 50.8819 158.13 50.9178 158.211 50.9178H159.878C159.896 50.9086 159.905 50.8954 159.905 50.8773C158.999 50.4471 158.09 49.9497 157.175 49.3849C157.104 49.3401 157.032 49.3401 156.96 49.3849Z" fill="#373737"/>
<path d="M165.297 59.5769C165.082 59.5769 164.9 59.5029 164.752 59.3552C164.604 59.2072 164.53 59.0256 164.53 58.8105V58.6894C164.53 58.4743 164.607 58.2907 164.759 58.1384C164.911 57.9858 165.09 57.9098 165.297 57.9098H169.599C169.671 57.9098 169.707 57.8693 169.707 57.7887V57.3045C169.707 57.2328 169.671 57.197 169.599 57.197H167.959H166.547C166.332 57.197 166.148 57.1186 165.996 56.9617C165.843 56.8048 165.767 56.6233 165.767 56.4173V52.1952C165.767 51.98 165.843 51.7962 165.996 51.6438C166.148 51.4915 166.332 51.4152 166.547 51.4152H169.465C169.537 51.4152 169.573 51.3748 169.573 51.2942V48.7665C169.573 48.5513 169.651 48.3698 169.808 48.2217C169.965 48.074 170.146 48 170.352 48H171.038C171.253 48 171.439 48.076 171.596 48.2286C171.753 48.3809 171.831 48.5602 171.831 48.7665V48.9277C171.831 48.9994 171.867 49.0352 171.939 49.0352H176.04C176.255 49.0352 176.439 49.1138 176.591 49.2705C176.744 49.4274 176.82 49.6089 176.82 49.8152V49.9228C176.82 50.1379 176.744 50.3238 176.591 50.4807C176.439 50.6376 176.255 50.7162 176.04 50.7162H171.939C171.867 50.7162 171.831 50.7563 171.831 50.8369V51.2942C171.831 51.3748 171.867 51.4152 171.939 51.4152H175.126C175.341 51.4152 175.525 51.4935 175.677 51.6504C175.83 51.8074 175.906 51.9889 175.906 52.1952V56.4173C175.906 56.6324 175.83 56.816 175.677 56.9683C175.525 57.1209 175.341 57.197 175.126 57.197H172.074C172.002 57.197 171.966 57.2328 171.966 57.3045V57.7887C171.966 57.8693 172.002 57.9098 172.074 57.9098H176.376C176.591 57.9098 176.773 57.9858 176.921 58.1384C177.069 58.2907 177.143 58.4743 177.143 58.6894V58.8105C177.143 59.0256 177.066 59.2072 176.914 59.3552C176.762 59.5029 176.583 59.5769 176.376 59.5769H172.074C172.002 59.5769 171.966 59.6217 171.966 59.7115V60.1148C171.966 60.3299 171.888 60.5138 171.731 60.6661C171.574 60.8184 171.392 60.8947 171.186 60.8947H170.487C170.272 60.8947 170.088 60.8184 169.936 60.6661C169.783 60.5138 169.707 60.3299 169.707 60.1148V59.7115C169.707 59.6309 169.671 59.5858 169.599 59.5769H165.297ZM167.959 53.0153V53.4995C167.959 53.5712 167.995 53.607 168.067 53.607H173.606C173.678 53.607 173.714 53.5712 173.714 53.4995V53.0153C173.714 52.9436 173.678 52.9077 173.606 52.9077H168.067C167.995 52.9077 167.959 52.9436 167.959 53.0153ZM168.067 55.718H173.606C173.678 55.718 173.714 55.6775 173.714 55.5969V55.113C173.714 55.0321 173.678 54.9874 173.606 54.9785H168.067C167.995 54.9785 167.959 55.0232 167.959 55.113V55.5969C167.959 55.6775 167.995 55.718 168.067 55.718Z" fill="#373737"/>
<path d="M15.4246 23.2311V18.7291C15.4246 17.9323 15.0802 17.2284 14.3915 16.6175C13.7027 16.0066 12.8947 15.7012 11.9675 15.7012C9.66272 15.7012 8.51034 17.4675 8.51034 21C8.51034 22.7795 8.815 24.1076 9.4243 24.9841C10.0601 25.8606 10.9078 26.2988 11.9675 26.2988C12.8947 26.2988 13.7027 25.9934 14.3915 25.3825C15.0802 24.745 15.4246 24.0279 15.4246 23.2311ZM20.6302 1C21.266 1 21.8091 1.23904 22.2594 1.71713C22.7363 2.16866 22.9747 2.69987 22.9747 3.31076V29.2869C22.9747 29.9243 22.7363 30.4688 22.2594 30.9203C21.8091 31.3718 21.266 31.5976 20.6302 31.5976H18.087C17.4247 31.5976 16.8552 31.3718 16.3783 30.9203C15.928 30.4688 15.6895 29.9243 15.6631 29.2869V28.9283C15.6631 28.9017 15.6498 28.8884 15.6233 28.8884C15.5968 28.8884 15.5703 28.9017 15.5438 28.9283C13.9014 30.9734 11.7688 31.996 9.14614 31.996C6.7884 31.996 4.84127 31.0398 3.30476 29.1275C1.76825 27.1886 1 24.4794 1 21C1 17.4409 1.72852 14.7185 3.18555 12.8327C4.64258 10.9203 6.62945 9.96414 9.14614 9.96414C11.3184 9.96414 13.3053 10.7742 15.1067 12.3944C15.1332 12.421 15.1597 12.4343 15.1862 12.4343C15.2127 12.4343 15.2259 12.421 15.2259 12.3944V3.31076C15.2259 2.67331 15.4511 2.12882 15.9015 1.67729C16.3783 1.22576 16.9346 1 17.5704 1H20.6302Z" fill="#373737"/>
<path d="M33.6752 10.4024C34.311 10.4024 34.854 10.6282 35.3044 11.0797C35.7812 11.5312 36.0197 12.0757 36.0197 12.7131V29.2869C36.0197 29.9243 35.7812 30.4688 35.3044 30.9203C34.854 31.3718 34.311 31.5976 33.6752 31.5976H30.1783C29.5425 31.5976 28.9994 31.3718 28.5491 30.9203C28.0987 30.4422 27.8735 29.8977 27.8735 29.2869V12.7131C27.8735 12.0757 28.0987 11.5312 28.5491 11.0797C29.0259 10.6282 29.569 10.4024 30.1783 10.4024H33.6752ZM33.6752 1C34.311 1 34.854 1.23904 35.3044 1.71713C35.7812 2.16866 36.0197 2.69987 36.0197 3.31076V4.38645C36.0197 5.0239 35.7812 5.56839 35.3044 6.01992C34.854 6.47145 34.311 6.69721 33.6752 6.69721H30.1783C29.5425 6.69721 28.9994 6.47145 28.5491 6.01992C28.0987 5.56839 27.8735 5.0239 27.8735 4.38645V3.31076C27.8735 2.67331 28.0987 2.12882 28.5491 1.67729C29.0259 1.22576 29.569 1 30.1783 1H33.6752Z" fill="#373737"/>
<path d="M48.3096 13.0319C49.9786 10.9867 52.0449 9.96414 54.5086 9.96414C56.9988 9.96414 58.7737 10.6813 59.8334 12.1155C60.9196 13.5232 61.4626 15.9402 61.4626 19.3665V29.2869C61.4626 29.9243 61.2242 30.4688 60.7474 30.9203C60.297 31.3718 59.7539 31.5976 59.1181 31.5976H56.2571C55.6213 31.5976 55.0649 31.3718 54.5881 30.9203C54.1377 30.4422 53.9126 29.8977 53.9126 29.2869V19.3665C53.9126 18.1182 53.7404 17.2683 53.396 16.8167C53.0516 16.3386 52.4158 16.0996 51.4886 16.0996C50.7203 16.0996 50.0183 16.405 49.3825 17.0159C48.7467 17.6003 48.4288 18.251 48.4288 18.9681V29.2869C48.4288 29.9243 48.1904 30.4688 47.7135 30.9203C47.2632 31.3718 46.7334 31.5976 46.1241 31.5976H43.0245C42.3887 31.5976 41.8457 31.3718 41.3953 30.9203C40.945 30.4422 40.7198 29.8977 40.7198 29.2869V12.7131C40.7198 12.0757 40.945 11.5312 41.3953 11.0797C41.8457 10.6282 42.3887 10.4024 43.0245 10.4024H45.8062C46.4684 10.4024 47.0248 10.6282 47.4751 11.0797C47.9255 11.5046 48.1639 12.0491 48.1904 12.7131V13.0319C48.1904 13.0584 48.2036 13.0717 48.2301 13.0717C48.2831 13.0717 48.3096 13.0584 48.3096 13.0319Z" fill="#373737"/>
<path d="M71.7657 10.4024C72.4015 10.4024 72.9446 10.6282 73.3949 11.0797C73.8718 11.5312 74.1102 12.0757 74.1102 12.7131V29.2869C74.1102 29.9243 73.8718 30.4688 73.3949 30.9203C72.9446 31.3718 72.4015 31.5976 71.7657 31.5976H68.2688C67.633 31.5976 67.09 31.3718 66.6396 30.9203C66.1893 30.4422 65.9641 29.8977 65.9641 29.2869V12.7131C65.9641 12.0757 66.1893 11.5312 66.6396 11.0797C67.1165 10.6282 67.6595 10.4024 68.2688 10.4024H71.7657ZM71.7657 1C72.4015 1 72.9446 1.23904 73.3949 1.71713C73.8718 2.16866 74.1102 2.69987 74.1102 3.31076V4.38645C74.1102 5.0239 73.8718 5.56839 73.3949 6.01992C72.9446 6.47145 72.4015 6.69721 71.7657 6.69721H68.2688C67.633 6.69721 67.09 6.47145 66.6396 6.01992C66.1893 5.56839 65.9641 5.0239 65.9641 4.38645V3.31076C65.9641 2.67331 66.1893 2.12882 66.6396 1.67729C67.1165 1.22576 67.6595 1 68.2688 1H71.7657Z" fill="#373737"/>
<path d="M86.4002 13.0319C88.0691 10.9867 90.1355 9.96414 92.5992 9.96414C95.0894 9.96414 96.8643 10.6813 97.924 12.1155C99.0101 13.5232 99.5532 15.9402 99.5532 19.3665V29.2869C99.5532 29.9243 99.3148 30.4688 98.8379 30.9203C98.3876 31.3718 97.8445 31.5976 97.2087 31.5976H94.3476C93.7118 31.5976 93.1555 31.3718 92.6786 30.9203C92.2283 30.4422 92.0031 29.8977 92.0031 29.2869V19.3665C92.0031 18.1182 91.8309 17.2683 91.4865 16.8167C91.1421 16.3386 90.5063 16.0996 89.5791 16.0996C88.8109 16.0996 88.1089 16.405 87.4731 17.0159C86.8373 17.6003 86.5194 18.251 86.5194 18.9681V29.2869C86.5194 29.9243 86.2809 30.4688 85.8041 30.9203C85.3537 31.3718 84.8239 31.5976 84.2146 31.5976H81.1151C80.4793 31.5976 79.9362 31.3718 79.4859 30.9203C79.0355 30.4422 78.8103 29.8977 78.8103 29.2869V12.7131C78.8103 12.0757 79.0355 11.5312 79.4859 11.0797C79.9362 10.6282 80.4793 10.4024 81.1151 10.4024H83.8967C84.559 10.4024 85.1153 10.6282 85.5657 11.0797C86.016 11.5046 86.2545 12.0491 86.2809 12.7131V13.0319C86.2809 13.0584 86.2942 13.0717 86.3207 13.0717C86.3737 13.0717 86.4002 13.0584 86.4002 13.0319Z" fill="#373737"/>
<path d="M116.055 22.4343V18.9681C116.055 18.012 115.737 17.2284 115.102 16.6175C114.492 16.0066 113.724 15.7012 112.797 15.7012C110.625 15.7012 109.538 17.3347 109.538 20.6016C109.538 22.1421 109.83 23.3108 110.413 24.1076C110.995 24.8778 111.79 25.2629 112.797 25.2629C113.698 25.2629 114.466 24.9841 115.102 24.4263C115.737 23.8685 116.055 23.2045 116.055 22.4343ZM121.261 10.4024C121.897 10.4024 122.44 10.6282 122.89 11.0797C123.367 11.5312 123.605 12.0757 123.605 12.7131V29.5657C123.605 33.2045 122.493 36.0199 120.267 38.012C118.069 40.004 114.969 41 110.969 41C109.432 41 107.883 40.8672 106.32 40.6016C105.657 40.4954 105.114 40.1766 104.69 39.6454C104.267 39.1142 104.055 38.5166 104.055 37.8526V36.1793C104.055 35.595 104.28 35.1434 104.73 34.8247C105.181 34.5325 105.684 34.4529 106.24 34.5857C107.459 34.9044 108.903 35.0637 110.572 35.0637C112.479 35.0637 113.87 34.6388 114.744 33.7888C115.618 32.9655 116.055 31.5578 116.055 29.5657V28.5299C116.055 28.5033 116.042 28.49 116.016 28.49C115.963 28.49 115.936 28.5033 115.936 28.5299C114.479 30.1501 112.558 30.9734 110.174 31C107.816 31 105.869 30.0704 104.333 28.2112C102.796 26.3254 102.028 23.7888 102.028 20.6016C102.028 17.2284 102.757 14.6122 104.214 12.753C105.697 10.8938 107.684 9.96414 110.174 9.96414C112.532 9.96414 114.532 10.9867 116.174 13.0319C116.201 13.0584 116.227 13.0717 116.254 13.0717C116.28 13.0717 116.294 13.0584 116.294 13.0319V12.7131C116.32 12.0491 116.559 11.5046 117.009 11.0797C117.486 10.6282 118.055 10.4024 118.718 10.4024H121.261Z" fill="#373737"/>
<path d="M134.942 23.0319C135.577 23.0319 136.12 23.2709 136.571 23.749C137.021 24.2005 137.246 24.7317 137.246 25.3426V29.2869C137.246 29.9243 137.008 30.4688 136.531 30.9203C136.081 31.3718 135.551 31.5976 134.942 31.5976H130.61C129.974 31.5976 129.431 31.3718 128.981 30.9203C128.531 30.4422 128.305 29.8977 128.305 29.2869V25.3426C128.305 24.7052 128.531 24.1607 128.981 23.7092C129.458 23.2576 130.001 23.0319 130.61 23.0319H134.942Z" fill="#373737"/>
<path d="M154.384 1.59761C155.047 1.67729 155.576 1.98274 155.974 2.51394C156.398 3.04515 156.61 3.65604 156.61 4.34661V5.18327C156.61 5.7676 156.384 6.24568 155.934 6.61753C155.484 6.96282 154.98 7.09562 154.424 7.01594C153.947 6.96282 153.59 6.92297 153.351 6.89641C152.08 6.89641 151.245 7.1089 150.848 7.53386C150.477 7.95883 150.291 8.91501 150.291 10.4024V10.8406C150.291 11.0797 150.424 11.1992 150.689 11.1992H153.868C154.503 11.1992 155.047 11.4382 155.497 11.9163C155.974 12.3679 156.212 12.8991 156.212 13.51V14.1873C156.212 14.8247 155.974 15.3692 155.497 15.8207C155.047 16.2722 154.503 16.498 153.868 16.498H150.689C150.45 16.498 150.318 16.6175 150.291 16.8566V29.2869C150.291 29.9243 150.066 30.4688 149.616 30.9203C149.165 31.3718 148.622 31.5976 147.987 31.5976H144.688C144.053 31.5976 143.509 31.3718 143.059 30.9203C142.609 30.4422 142.384 29.8977 142.384 29.2869V16.8566C142.384 16.6175 142.251 16.498 141.986 16.498H140.198C139.562 16.498 139.019 16.2722 138.569 15.8207C138.118 15.3426 137.893 14.7981 137.893 14.1873V13.51C137.893 12.8725 138.118 12.328 138.569 11.8765C139.046 11.425 139.589 11.1992 140.198 11.1992H141.986C142.225 11.1992 142.357 11.0797 142.384 10.8406V10.4024C142.384 7.29482 143.099 5.0239 144.529 3.58964C145.96 2.12882 148.225 1.39841 151.324 1.39841C152.278 1.39841 153.298 1.46481 154.384 1.59761Z" fill="#373737"/>
<path d="M183.284 9.96414C185.616 9.96414 187.311 10.6016 188.371 11.8765C189.457 13.1514 190 15.2364 190 18.1315V29.2869C190 29.9243 189.762 30.4688 189.285 30.9203C188.834 31.3718 188.291 31.5976 187.655 31.5976H184.794C184.159 31.5976 183.616 31.3718 183.165 30.9203C182.715 30.4422 182.49 29.8977 182.49 29.2869V18.1315C182.49 17.2019 182.357 16.5777 182.092 16.259C181.827 15.9402 181.337 15.7809 180.622 15.7809C180.092 15.7809 179.589 15.9535 179.112 16.2988C178.635 16.6441 178.397 16.9894 178.397 17.3347V29.2869C178.397 29.9243 178.158 30.4688 177.681 30.9203C177.231 31.3718 176.701 31.5976 176.092 31.5976H173.191C172.555 31.5976 172.012 31.3718 171.562 30.9203C171.112 30.4422 170.886 29.8977 170.886 29.2869V18.1315C170.886 17.2019 170.754 16.5777 170.489 16.259C170.224 15.9402 169.734 15.7809 169.019 15.7809C168.489 15.7809 167.986 15.9535 167.509 16.2988C167.032 16.6441 166.793 16.9894 166.793 17.3347V29.2869C166.793 29.9243 166.555 30.4688 166.078 30.9203C165.628 31.3718 165.098 31.5976 164.489 31.5976H161.389C160.753 31.5976 160.21 31.3718 159.76 30.9203C159.31 30.4422 159.084 29.8977 159.084 29.2869V12.7131C159.084 12.0757 159.31 11.5312 159.76 11.0797C160.21 10.6282 160.753 10.4024 161.389 10.4024H163.853C164.515 10.4024 165.071 10.6282 165.522 11.0797C165.999 11.5046 166.264 12.0491 166.317 12.7131L166.356 13.1912C166.356 13.2178 166.37 13.2311 166.396 13.2311C166.449 13.2311 166.476 13.2178 166.476 13.1912C167.217 12.1819 168.092 11.3984 169.098 10.8406C170.105 10.2563 171.098 9.96414 172.078 9.96414C173.324 9.96414 174.317 10.1899 175.059 10.6414C175.827 11.0664 176.542 11.8499 177.205 12.992C177.205 13.0186 177.218 13.0319 177.244 13.0319C177.297 13.0319 177.337 13.0186 177.364 12.992C179.377 10.9734 181.351 9.96414 183.284 9.96414Z" fill="#373737"/>
<rect x="-28.5" y="-18.5" width="389" height="1225" stroke="black" stroke-opacity="0.5"/>
</svg>
