<svg width="176" height="60" viewBox="0 0 176 60" fill="none" xmlns="http://www.w3.org/2000/svg">
<path d="M1.77905 57.5282C3.33166 56.9992 4.67026 56.3986 5.79424 55.7265C5.804 55.7173 5.80857 55.7061 5.80857 55.6926C5.80857 55.6794 5.79912 55.6725 5.78022 55.6725H4.50838H3.17923C2.95059 55.6725 2.75549 55.5942 2.5933 55.4373C2.43143 55.2804 2.35065 55.0988 2.35065 54.8926V51.0336C2.35065 50.8185 2.43143 50.6349 2.5933 50.4823C2.75549 50.33 2.95059 50.254 3.17923 50.254H6.73745C6.81366 50.254 6.85177 50.2181 6.85177 50.1464V49.7832C6.85177 49.7115 6.81366 49.6757 6.73745 49.6757H2.19334C1.9647 49.6757 1.76929 49.5971 1.60742 49.4405C1.44554 49.2836 1.36445 49.0974 1.36445 48.8823V48.7747C1.36445 48.5595 1.44798 48.376 1.61443 48.2234C1.78118 48.071 1.97415 47.995 2.19334 47.995H6.73745C6.81366 47.995 6.85177 47.9592 6.85177 47.8875V47.8066C6.85177 47.5914 6.9353 47.4056 7.10175 47.2486C7.2685 47.0917 7.46148 47.0134 7.68067 47.0134H8.42359C8.65222 47.0134 8.84763 47.0917 9.00951 47.2486C9.17169 47.4056 9.25247 47.5914 9.25247 47.8066V47.8875C9.25247 47.9592 9.29058 47.995 9.36679 47.995H13.9109C14.1395 47.995 14.335 48.0733 14.4968 48.2302C14.659 48.3871 14.7398 48.5687 14.7398 48.7747V48.8823C14.7398 49.0974 14.6566 49.2836 14.4898 49.4405C14.3231 49.5971 14.1301 49.6757 13.9109 49.6757H9.36679C9.29058 49.6757 9.25247 49.7115 9.25247 49.7832V50.1464C9.25247 50.2181 9.29058 50.254 9.36679 50.254H12.925C13.1537 50.254 13.3491 50.3323 13.511 50.4892C13.6728 50.6461 13.7539 50.8277 13.7539 51.0336V54.8926C13.7539 55.1077 13.6728 55.2916 13.511 55.4439C13.3491 55.5965 13.1537 55.6725 12.925 55.6725H10.3243C10.3051 55.6725 10.2957 55.6794 10.2957 55.6926C10.2957 55.7061 10.3006 55.7173 10.31 55.7265C11.4438 56.3986 12.782 56.9992 14.3255 57.5282C14.5349 57.5999 14.6849 57.7344 14.7755 57.9315C14.866 58.1288 14.8636 58.317 14.7685 58.4963L14.5685 58.9131C14.4731 59.1193 14.3136 59.2604 14.0896 59.3367C13.8658 59.4128 13.649 59.4062 13.4396 59.3164C11.858 58.6802 10.4911 57.963 9.33814 57.165C9.28113 57.1292 9.25247 57.1472 9.25247 57.2189V58.9535C9.25247 59.1687 9.16926 59.3522 9.0025 59.5048C8.83575 59.6572 8.64277 59.7332 8.42359 59.7332H7.68067C7.45203 59.7332 7.25662 59.6572 7.09475 59.5048C6.93287 59.3522 6.85177 59.1687 6.85177 58.9535V57.2189C6.85177 57.1472 6.81855 57.1338 6.75179 57.1785C5.59914 57.9762 4.23188 58.6934 2.65062 59.3299C2.43143 59.4197 2.21712 59.4217 2.00769 59.3367C1.79795 59.2516 1.64065 59.1104 1.53608 58.9131L1.33579 58.4963C1.25013 58.2989 1.25013 58.1065 1.33579 57.918C1.42176 57.7298 1.56931 57.5999 1.77905 57.5282ZM9.25247 51.854V52.2438C9.25247 52.3244 9.29058 52.3649 9.36679 52.3649H11.4819C11.5675 52.3649 11.6105 52.3244 11.6105 52.2438V51.854C11.6105 51.7731 11.5675 51.7284 11.4819 51.7195H9.36679C9.29058 51.7284 9.25247 51.7731 9.25247 51.854ZM9.25247 53.7498V54.1801C9.25247 54.2607 9.29058 54.3011 9.36679 54.3011H11.4819C11.5675 54.3011 11.6105 54.2607 11.6105 54.1801V53.7498C11.6105 53.6692 11.5675 53.6287 11.4819 53.6287H9.36679C9.29058 53.6287 9.25247 53.6692 9.25247 53.7498ZM4.50838 51.854V52.2438C4.50838 52.3244 4.54649 52.3649 4.6227 52.3649H6.73745C6.81366 52.3649 6.85177 52.3244 6.85177 52.2438V51.854C6.85177 51.7731 6.81366 51.7284 6.73745 51.7195H4.6227C4.54649 51.7284 4.50838 51.7731 4.50838 51.854ZM4.6227 54.3011H6.73745C6.81366 54.3011 6.85177 54.2607 6.85177 54.1801V53.7498C6.85177 53.6692 6.81366 53.6287 6.73745 53.6287H4.6227C4.54649 53.6287 4.50838 53.6692 4.50838 53.7498V54.1801C4.50838 54.2607 4.54649 54.3011 4.6227 54.3011Z" fill="#373737"/>
<path d="M20.2415 56.9097C19.5174 57.6535 18.684 58.3618 17.7408 59.0341C17.5502 59.1595 17.3384 59.2088 17.1048 59.1821C16.8713 59.1552 16.6832 59.0565 16.5403 58.8861L16.2546 58.5634C16.1211 58.4022 16.0665 58.216 16.0903 58.0055C16.1141 57.7949 16.2165 57.6268 16.3976 57.5012C17.2454 56.9005 18.017 56.2597 18.7123 55.5785C18.8647 55.4261 19.0553 55.3455 19.2839 55.3364C19.5126 55.3275 19.708 55.3946 19.8698 55.538L20.1701 55.7801C20.332 55.9324 20.4225 56.1186 20.4414 56.338C20.4606 56.5578 20.3939 56.7482 20.2415 56.9097ZM25.2145 57.0575C25.0429 56.9321 24.9453 56.7594 24.9215 56.54C24.8975 56.3202 24.9572 56.1344 25.1002 55.9818L25.4145 55.6324C25.5669 55.4709 25.7599 55.3768 25.9931 55.3498C26.2266 55.3229 26.4339 55.3768 26.6147 55.5113C27.3387 56.0222 28.1487 56.6854 29.044 57.5012C29.2059 57.6535 29.2919 57.8397 29.3013 58.0591C29.3108 58.2789 29.2346 58.465 29.0727 58.6173L28.7441 58.9535C28.5916 59.1058 28.3987 59.1841 28.1651 59.1887C27.9319 59.1933 27.7341 59.1193 27.5722 58.967C26.7909 58.2857 26.005 57.6492 25.2145 57.0575ZM16.8262 49.7293C16.5976 49.7293 16.4022 49.651 16.2403 49.4941C16.0784 49.3372 15.9973 49.1556 15.9973 48.9497V48.7747C15.9973 48.5595 16.0808 48.376 16.2473 48.2234C16.414 48.071 16.607 47.995 16.8262 47.995H21.3703C21.4465 47.995 21.4846 47.9592 21.4846 47.8875V47.8066C21.4846 47.5914 21.5682 47.4056 21.7346 47.2486C21.9014 47.0917 22.0943 47.0134 22.3135 47.0134H23.0565C23.2851 47.0134 23.4805 47.0917 23.6424 47.2486C23.8046 47.4056 23.8853 47.5914 23.8853 47.8066V47.8875C23.8853 47.9592 23.9234 47.995 23.9997 47.995H28.5438C28.7724 47.995 28.9678 48.0733 29.1297 48.2302C29.2919 48.3871 29.3727 48.5687 29.3727 48.7747V48.9497C29.3727 49.1648 29.2894 49.3484 29.1227 49.501C28.9559 49.6533 28.763 49.7293 28.5438 49.7293H16.8262ZM19.3842 58.846L19.3699 58.5499C19.3601 58.344 19.4293 58.1667 19.5769 58.019C19.7247 57.871 19.9128 57.8015 20.1415 57.8104C20.7417 57.8285 21.0466 57.8374 21.056 57.8374C21.3417 57.8374 21.5084 57.8127 21.5563 57.7634C21.6038 57.714 21.6276 57.5505 21.6276 57.2726V55.2962C21.6276 55.2153 21.5895 55.1706 21.5133 55.1617H19.5985H18.0981C17.8694 55.1617 17.674 55.0854 17.5121 54.933C17.3503 54.7807 17.2692 54.5969 17.2692 54.3817V51.101C17.2692 50.8859 17.3524 50.702 17.5191 50.5497C17.6859 50.3974 17.8789 50.3211 18.0981 50.3211H27.2722C27.5009 50.3211 27.696 50.3994 27.8579 50.5563C28.02 50.7132 28.1008 50.8948 28.1008 51.101V54.3817C28.1008 54.5969 28.0176 54.7807 27.8509 54.933C27.6841 55.0854 27.4911 55.1617 27.2722 55.1617H24.1426C24.0664 55.1617 24.0283 55.2064 24.0283 55.2962V57.192C24.0283 57.6134 24.021 57.945 24.007 58.1871C23.9927 58.4292 23.9497 58.6532 23.8783 58.8594C23.8067 59.0654 23.7235 59.2157 23.628 59.3098C23.5329 59.4039 23.3781 59.4822 23.1638 59.545C22.9495 59.6078 22.7233 59.646 22.4849 59.6595C22.2468 59.6726 21.9133 59.6795 21.4846 59.6795C21.056 59.6795 20.6512 59.6706 20.2701 59.6526C20.032 59.6437 19.8272 59.5631 19.6555 59.4105C19.4842 59.2582 19.3937 59.07 19.3842 58.846ZM19.7272 53.6018H25.6431C25.7288 53.6018 25.7718 53.557 25.7718 53.4675V52.0017C25.7718 51.93 25.7288 51.8942 25.6431 51.8942H19.7272C19.6412 51.8942 19.5985 51.93 19.5985 52.0017V53.4675C19.5985 53.557 19.6412 53.6018 19.7272 53.6018Z" fill="#373737"/>
<path d="M36.2461 50.2406C35.2554 50.4916 34.4789 50.9621 33.9168 51.6525C33.3549 52.3427 33.0738 53.1808 33.0738 54.1667C33.0738 54.7852 33.2025 55.3434 33.4595 55.8408C33.7168 56.3382 33.9549 56.5872 34.1741 56.5872C34.2789 56.5872 34.3957 56.5244 34.5243 56.3987C34.6527 56.2734 34.7932 56.0582 34.9456 55.7533C35.0981 55.4487 35.2529 55.0631 35.4102 54.597C35.5672 54.1309 35.7294 53.5302 35.8962 52.7953C36.0626 52.0601 36.2129 51.2354 36.3461 50.3212C36.3556 50.2943 36.3486 50.2719 36.3248 50.2541C36.301 50.236 36.2748 50.2315 36.2461 50.2406ZM34.1741 58.7116C33.3452 58.7116 32.5809 58.2701 31.8807 57.3872C31.1804 56.5043 30.8301 55.4306 30.8301 54.1667C30.8301 52.3562 31.4804 50.8838 32.7809 49.7498C34.0811 48.6159 35.7889 48.0488 37.9039 48.0488C39.6089 48.0488 41.0189 48.5554 42.1337 49.5683C43.2483 50.5811 43.8055 51.872 43.8055 53.4407C43.8055 54.9108 43.4434 56.1188 42.7193 57.0645C41.9953 58.0102 41.0094 58.6175 39.7614 58.8863C39.5233 58.9313 39.3041 58.8886 39.1041 58.7586C38.9041 58.6287 38.7804 58.456 38.7325 58.2409L38.6182 57.7704C38.5706 57.5642 38.6112 57.3714 38.7398 57.1921C38.8685 57.0129 39.0373 56.8918 39.2471 56.829C40.7902 56.3629 41.5621 55.2335 41.5621 53.4407C41.5621 52.6071 41.3143 51.8943 40.8189 51.3028C40.3235 50.7111 39.6614 50.3258 38.8325 50.1466C38.766 50.1374 38.723 50.1732 38.7041 50.2541C38.4469 51.9394 38.1609 53.3489 37.8466 54.4829C37.5323 55.6168 37.1799 56.4839 36.7891 57.0846C36.3986 57.6852 35.9986 58.1066 35.5889 58.3484C35.1792 58.5905 34.7075 58.7116 34.1741 58.7116Z" fill="#373737"/>
<path d="M46.3919 54.1666C46.1633 54.1666 45.9682 54.0906 45.806 53.938C45.6441 53.7857 45.5634 53.6018 45.5634 53.3866V53.212C45.5634 52.9968 45.6441 52.8129 45.806 52.6606C45.9682 52.5083 46.1633 52.432 46.3919 52.432H50.5791C50.6647 52.432 50.7077 52.3873 50.7077 52.2978C50.7361 52.0198 50.7504 51.7419 50.7504 51.4639V50.7379C50.7504 50.6573 50.7123 50.6125 50.6361 50.6033H47.0065C46.7779 50.6033 46.5825 50.5273 46.4206 50.3747C46.2587 50.2224 46.1776 50.0388 46.1776 49.8237V49.5546C46.1776 49.3395 46.2587 49.1536 46.4206 48.9967C46.5825 48.8398 46.7779 48.7612 47.0065 48.7612H50.6361C50.7123 48.7612 50.7504 48.721 50.7504 48.6404V47.8066C50.7504 47.5914 50.8339 47.4056 51.0004 47.2486C51.1671 47.0917 51.3601 47.0134 51.5793 47.0134H52.3222C52.5508 47.0134 52.7463 47.0917 52.9081 47.2486C53.0703 47.4056 53.1511 47.5914 53.1511 47.8066V48.6404C53.1511 48.721 53.1892 48.7612 53.2654 48.7612H56.895C57.1236 48.7612 57.319 48.8398 57.4809 48.9967C57.6431 49.1536 57.7239 49.3395 57.7239 49.5546V49.8237C57.7239 50.0388 57.6431 50.2224 57.4809 50.3747C57.319 50.5273 57.1236 50.6033 56.895 50.6033H53.2654C53.1892 50.6033 53.1511 50.6484 53.1511 50.7379V51.3428C53.1511 51.352 53.1487 51.3698 53.1441 51.3968C53.1392 51.4237 53.1368 51.4415 53.1368 51.4504V51.4639L53.1511 51.4774C53.1511 51.7642 53.1654 52.0376 53.1941 52.2978C53.1941 52.3784 53.2368 52.4231 53.3227 52.432H57.5096C57.7382 52.432 57.9336 52.5083 58.0955 52.6606C58.2574 52.8129 58.3385 52.9968 58.3385 53.212V53.3866C58.3385 53.6018 58.2574 53.7857 58.0955 53.938C57.9336 54.0906 57.7382 54.1666 57.5096 54.1666H53.837C53.7608 54.1666 53.7419 54.2024 53.78 54.2742C54.4562 55.5472 55.7996 56.6407 57.8095 57.5551C58.0193 57.6446 58.1574 57.7881 58.2241 57.9854C58.2909 58.1825 58.2717 58.3706 58.1668 58.5499L57.9239 58.9802C57.8095 59.1776 57.6382 59.3075 57.4096 59.3703C57.1809 59.4331 56.9617 59.4151 56.7523 59.3164C54.6184 58.2677 53.0703 56.9591 52.1079 55.3903C52.0698 55.3364 52.0271 55.3409 51.9793 55.4038C50.9696 56.9903 49.3499 58.3035 47.1208 59.3433C46.9111 59.4331 46.6943 59.4443 46.4706 59.3769C46.2468 59.3098 46.0825 59.1776 45.9777 58.9802L45.7347 58.5499C45.6298 58.3706 45.6134 58.1825 45.6847 57.9854C45.756 57.7881 45.892 57.6446 46.092 57.5551C48.1116 56.6318 49.4548 55.538 50.1218 54.2742C50.1599 54.2024 50.1361 54.1666 50.0502 54.1666H46.3919Z" fill="#373737"/>
<path d="M70.4849 51.1682C70.5705 51.1682 70.6181 51.1323 70.6275 51.0606V50.9531C70.6275 50.8725 70.58 50.832 70.4849 50.832H65.6262C65.4451 50.832 65.2856 50.7672 65.1475 50.637C65.0094 50.507 64.9402 50.3547 64.9402 50.18C64.9402 50.005 65.007 49.8573 65.1402 49.7363C65.2737 49.6152 65.4356 49.5547 65.6262 49.5547H70.4849C70.5705 49.5547 70.6181 49.5099 70.6275 49.4201V49.3126C70.6275 49.2409 70.58 49.205 70.4849 49.205H65.4832C65.2545 49.205 65.0594 49.1267 64.8973 48.9698C64.7354 48.8129 64.6546 48.6313 64.6546 48.4253V48.1833C64.6546 47.9681 64.7378 47.7842 64.9046 47.6319C65.0713 47.4796 65.2643 47.4033 65.4832 47.4033H72.1137C72.3423 47.4033 72.5377 47.4816 72.6996 47.6385C72.8615 47.7954 72.9426 47.977 72.9426 48.1833V51.7465C72.9426 51.9616 72.8615 52.1452 72.6996 52.2978C72.5377 52.4501 72.3423 52.5261 72.1137 52.5261H65.3832C65.1927 52.5261 65.0235 52.459 64.8759 52.3245C64.7284 52.1902 64.6546 52.031 64.6546 51.8472C64.6546 51.6636 64.7284 51.5044 64.8759 51.3699C65.0235 51.2353 65.1927 51.1682 65.3832 51.1682H70.4849ZM60.3245 50.9396C60.1151 50.9396 59.9389 50.8702 59.7959 50.7313C59.6529 50.5922 59.5816 50.4287 59.5816 50.2405V49.9313C59.5816 49.7162 59.6627 49.5323 59.8245 49.38C59.9864 49.2274 60.1818 49.1514 60.4105 49.1514H60.5391C60.6248 49.1514 60.6674 49.1155 60.6674 49.0438C60.6772 48.954 60.6937 48.777 60.7174 48.5126C60.7415 48.2481 60.758 48.0441 60.7677 47.9007C60.7772 47.6856 60.8699 47.5043 61.0464 47.3563C61.2226 47.2083 61.425 47.1388 61.6536 47.1477L61.968 47.1612C62.1966 47.1704 62.3896 47.2576 62.5466 47.4234C62.7039 47.5892 62.7731 47.7799 62.7538 47.9951C62.7349 48.2369 62.6968 48.5866 62.6395 49.0438C62.6395 49.1155 62.6776 49.1514 62.7538 49.1514H63.6397C63.8684 49.1514 64.0662 49.2297 64.233 49.3866C64.3997 49.5435 64.483 49.7251 64.483 49.9313V50.0254C64.483 51.0652 64.4305 51.9794 64.3257 52.7682C64.3068 52.8489 64.34 52.8893 64.426 52.8893H72.7713C72.9999 52.8893 73.1974 52.9676 73.3642 53.1245C73.531 53.2814 73.6142 53.4676 73.6142 53.6827V55.3903C73.6142 55.5068 73.5691 55.6098 73.4785 55.6996C73.388 55.7891 73.2761 55.8341 73.1426 55.8341C73.095 55.8341 73.0712 55.8565 73.0712 55.9012V56.9098C73.0712 57.4743 73.0594 57.8845 73.0356 58.1401C73.0118 58.3954 72.9188 58.6085 72.7569 58.7786C72.5948 58.949 72.3972 59.0477 72.1637 59.0746C71.9305 59.1013 71.547 59.1148 71.0135 59.1148H70.9422C70.7038 59.1148 70.5062 59.0342 70.3489 58.8727C70.1919 58.7115 70.1084 58.5233 70.0989 58.3082V58.2542C70.0895 58.1108 70.2014 57.9651 70.4346 57.8174C70.6681 57.6693 70.8135 57.546 70.8705 57.4476C70.8897 57.4206 70.8992 57.3355 70.8992 57.192V56.7618C70.8992 56.69 70.8611 56.6542 70.7849 56.6542H69.756C69.6703 56.6542 69.6273 56.69 69.6273 56.7618V59.0878C69.6273 59.303 69.5462 59.4891 69.3844 59.646C69.2225 59.8029 69.032 59.8812 68.8128 59.8812H68.1985C67.9699 59.8812 67.772 59.8029 67.6053 59.646C67.4385 59.4891 67.3553 59.303 67.3553 59.0878V56.7618C67.3553 56.69 67.3172 56.6542 67.241 56.6542H66.4264C66.3502 56.6542 66.3121 56.69 66.3121 56.7618V58.3483C66.3121 58.5635 66.2289 58.7473 66.0621 58.8996C65.8953 59.052 65.6975 59.1283 65.4689 59.1283H65.0116C64.7829 59.1283 64.5878 59.05 64.426 58.893C64.2638 58.7361 64.183 58.5546 64.183 58.3483V57.8779C64.1732 57.8598 64.1592 57.8509 64.14 57.8509C64.1019 57.9137 64.0351 57.9989 63.94 58.1065L63.7257 58.3082C63.5922 58.4335 63.4254 58.4829 63.2255 58.4559C63.0255 58.4292 62.8874 58.3305 62.8112 58.1601C62.792 58.1243 62.7657 58.0684 62.7325 57.9921C62.699 57.9158 62.6731 57.8598 62.6539 57.824C62.6158 57.7703 62.5777 57.7657 62.5395 57.8105C62.1204 58.4023 61.6299 58.949 61.0677 59.451C60.9153 59.5855 60.7366 59.6368 60.5318 59.6056C60.3269 59.5743 60.1675 59.469 60.0532 59.2898L59.8815 58.9803C59.634 58.55 59.7053 58.1424 60.0959 57.7568C60.658 57.219 61.1202 56.6542 61.482 56.0627C61.5299 55.991 61.525 55.9236 61.4677 55.8608C61.4393 55.816 61.3939 55.7555 61.332 55.6795C61.2701 55.6032 61.2345 55.5607 61.225 55.5515C61.1869 55.5157 61.1583 55.5203 61.1391 55.565C61.0915 55.6907 60.9915 55.7667 60.8391 55.7936C60.6867 55.8206 60.5629 55.7759 60.4675 55.6591L60.0675 55.1752C59.7245 54.7808 59.634 54.337 59.7959 53.8439C60.0626 52.9923 60.2724 52.0557 60.4248 51.0337C60.4437 50.9711 60.4105 50.9396 60.3245 50.9396ZM69.6273 54.5699V54.987C69.6273 55.0676 69.6703 55.1078 69.756 55.1078H71.3135C71.3994 55.1078 71.4421 55.0676 71.4421 54.987V54.5699C71.4421 54.4893 71.3994 54.4492 71.3135 54.4492H69.756C69.6703 54.4492 69.6273 54.4893 69.6273 54.5699ZM65.5692 54.5699V54.987C65.5692 55.0676 65.6118 55.1078 65.6975 55.1078H67.241C67.3172 55.1078 67.3553 55.0676 67.3553 54.987V54.5699C67.3553 54.4893 67.3172 54.4492 67.241 54.4492H65.6975C65.6118 54.4492 65.5692 54.4893 65.5692 54.5699ZM64.097 55.8341C63.9733 55.8341 63.8589 55.7936 63.7541 55.713C63.6876 55.6683 63.6446 55.6815 63.6257 55.7532C63.5971 55.816 63.6065 55.8877 63.6541 55.9683C63.6541 55.9775 63.8114 56.2552 64.1257 56.8022C64.1351 56.8111 64.147 56.8157 64.1613 56.8157C64.1757 56.8157 64.183 56.8065 64.183 56.7887V55.9147C64.183 55.8608 64.1543 55.8341 64.097 55.8341ZM61.8393 53.4271C61.8204 53.5077 61.8347 53.5795 61.8823 53.6423C62.0347 53.8038 62.1536 53.9291 62.2396 54.0189C62.2585 54.0367 62.2798 54.0413 62.3039 54.0321C62.3277 54.0232 62.3441 54.0054 62.3539 53.9785C62.592 53.1357 62.7395 52.1633 62.7968 51.0606C62.7968 50.98 62.7587 50.9396 62.6825 50.9396H62.4966C62.4203 50.9396 62.3728 50.98 62.3539 51.0606C62.2204 51.8495 62.049 52.6383 61.8393 53.4271Z" fill="#373737"/>
<path d="M80.1448 50.2406C79.154 50.4916 78.3775 50.9621 77.8154 51.6525C77.2535 52.3427 76.9725 53.1808 76.9725 54.1667C76.9725 54.7852 77.1011 55.3434 77.3581 55.8408C77.6154 56.3382 77.8535 56.5872 78.0727 56.5872C78.1775 56.5872 78.2943 56.5244 78.423 56.3987C78.5513 56.2734 78.6918 56.0582 78.8443 55.7533C78.9967 55.4487 79.1515 55.0631 79.3089 54.597C79.4658 54.1309 79.628 53.5302 79.7948 52.7953C79.9612 52.0601 80.1115 51.2354 80.2447 50.3212C80.2542 50.2943 80.2472 50.2719 80.2234 50.2541C80.1996 50.236 80.1734 50.2315 80.1448 50.2406ZM78.0727 58.7116C77.2438 58.7116 76.4795 58.2701 75.7793 57.3872C75.079 56.5043 74.7288 55.4306 74.7288 54.1667C74.7288 52.3562 75.379 50.8838 76.6795 49.7498C77.9797 48.6159 79.6875 48.0488 81.8025 48.0488C83.5076 48.0488 84.9175 48.5554 86.0323 49.5683C87.1469 50.5811 87.7041 51.872 87.7041 53.4407C87.7041 54.9108 87.342 56.1187 86.618 57.0645C85.8939 58.0102 84.908 58.6175 83.66 58.8863C83.4219 58.9313 83.2027 58.8886 83.0027 58.7586C82.8027 58.6287 82.679 58.456 82.6311 58.2409L82.5168 57.7704C82.4692 57.5642 82.5098 57.3714 82.6384 57.1921C82.7671 57.0129 82.936 56.8918 83.1457 56.829C84.6889 56.3629 85.4607 55.2335 85.4607 53.4407C85.4607 52.6071 85.2129 51.8943 84.7175 51.3028C84.2221 50.7111 83.56 50.3258 82.7311 50.1466C82.6646 50.1374 82.6217 50.1732 82.6028 50.2541C82.3455 51.9394 82.0595 53.3489 81.7452 54.4829C81.4309 55.6168 81.0785 56.4839 80.6877 57.0846C80.2972 57.6852 79.8972 58.1066 79.4875 58.3484C79.0778 58.5905 78.6062 58.7116 78.0727 58.7116Z" fill="#373737"/>
<path d="M93.0771 54.1531C92.2863 54.6193 91.8958 55.1886 91.9053 55.8607C91.9053 56.2193 91.9934 56.4972 92.1696 56.6946C92.3458 56.8917 92.5961 56.9903 92.9198 56.9903C92.939 56.9903 92.9628 56.9881 92.9914 56.9835C93.0198 56.9792 93.039 56.9769 93.0485 56.9769C93.1341 56.9769 93.182 56.9321 93.1914 56.8423V54.1936C93.182 54.1219 93.1439 54.1084 93.0771 54.1531ZM96.6923 53.3061C96.2637 53.3061 95.8494 53.333 95.4492 53.3867C95.373 53.4047 95.3348 53.4452 95.3348 53.5077V55.686C95.3348 55.7041 95.3467 55.7173 95.3705 55.7265C95.3943 55.7354 95.4111 55.7308 95.4205 55.713C96.0589 55.0854 96.5972 54.3189 97.0353 53.4136C97.0451 53.3867 97.0402 53.362 97.021 53.3396C97.0021 53.3172 96.9783 53.3061 96.9496 53.3061H96.6923ZM92.6768 58.8595C91.7721 58.8595 91.0431 58.6105 90.4908 58.1131C89.9381 57.6157 89.6619 56.941 89.6619 56.0894C89.6619 55.1663 89.9594 54.3436 90.5548 53.6222C91.1505 52.9004 91.9909 52.3514 93.0771 51.9751C93.1439 51.9481 93.182 51.8988 93.1914 51.8271V50.6168C93.1914 50.5451 93.1485 50.5093 93.0628 50.5093H91.1623C90.9337 50.5093 90.7383 50.431 90.5764 50.2741C90.4145 50.1172 90.3335 49.9356 90.3335 49.7293V49.5277C90.3335 49.3125 90.4167 49.1267 90.5834 48.9698C90.7502 48.8129 90.9432 48.7345 91.1623 48.7345H93.0628C93.139 48.7345 93.182 48.6987 93.1914 48.627V48.0487C93.1914 47.8335 93.2725 47.652 93.4344 47.5042C93.5963 47.3562 93.7917 47.2822 94.0203 47.2822H94.506C94.7346 47.2822 94.93 47.3562 95.0919 47.5042C95.2541 47.652 95.3348 47.8335 95.3348 48.0487V48.627C95.3348 48.6987 95.3778 48.7345 95.4635 48.7345H100.537C100.765 48.7345 100.96 48.8129 101.122 48.9698C101.284 49.1267 101.365 49.3125 101.365 49.5277V49.7293C101.365 49.9445 101.282 50.1283 101.115 50.2807C100.948 50.4333 100.755 50.5093 100.537 50.5093H95.4635C95.3778 50.5093 95.3348 50.5451 95.3348 50.6168V51.3833C95.3348 51.4461 95.373 51.4774 95.4492 51.4774C95.8016 51.4415 96.2162 51.4237 96.6923 51.4237C98.4071 51.4237 99.7265 51.7754 100.651 52.4791C101.575 53.1827 102.037 54.1396 102.037 55.3499C102.037 56.291 101.732 57.1137 101.122 57.8173C100.513 58.521 99.6744 59.0341 98.6074 59.3568C98.3882 59.4197 98.1761 59.395 97.9715 59.2828C97.7666 59.1707 97.6307 59.0118 97.5642 58.8055L97.4356 58.4157C97.3688 58.2183 97.388 58.0279 97.4926 57.844C97.5975 57.6604 97.7548 57.5236 97.9642 57.4341C98.5169 57.2101 98.9598 56.9117 99.2933 56.54C99.6265 56.1679 99.7933 55.7712 99.7933 55.3499C99.7933 54.7403 99.5884 54.2653 99.179 53.9245C99.1312 53.8798 99.0885 53.8978 99.0504 53.9784C98.3547 55.5291 97.4356 56.7305 96.2924 57.5818C95.1492 58.4335 93.9441 58.8595 92.6768 58.8595Z" fill="#373737"/>
<path d="M110.554 57.4207C110.649 57.1786 110.697 56.968 110.697 56.7887C110.697 56.5466 110.601 56.3697 110.411 56.2575C110.22 56.1456 109.863 56.0894 109.339 56.0894C108.92 56.0894 108.605 56.1522 108.396 56.2779C108.186 56.4032 108.082 56.5601 108.082 56.7483C108.082 57.2773 108.839 57.546 110.354 57.5552C110.354 57.5552 110.358 57.5552 110.368 57.5552L110.396 57.5282C110.473 57.5282 110.525 57.4924 110.554 57.4207ZM104.938 54.1667L104.866 54.0321C104.771 53.8351 104.757 53.6311 104.823 53.4206C104.89 53.2097 105.019 53.0462 105.209 52.9298L110.797 49.8504L110.811 49.837H110.797H106.295C106.067 49.837 105.874 49.7587 105.717 49.6017C105.559 49.4448 105.481 49.2633 105.481 49.0573V48.7882C105.481 48.5731 105.562 48.3895 105.724 48.2369C105.886 48.0846 106.076 48.0083 106.295 48.0083H114.198C114.426 48.0083 114.622 48.0869 114.783 48.2438C114.945 48.4007 115.026 48.582 115.026 48.7882V49.1109C115.026 49.6399 114.788 50.0208 114.312 50.254L110.668 52.0692V52.0827H110.682C111.168 52.0018 111.635 51.9616 112.083 51.9616C113.407 51.9616 114.431 52.2462 115.155 52.8153C115.879 53.3847 116.241 54.1532 116.241 55.1213C116.241 56.4302 115.729 57.4496 114.705 58.1803C113.681 58.9109 112.23 59.2763 110.354 59.2763C107.4 59.2763 105.924 58.4335 105.924 56.7483C105.924 56.1118 106.243 55.5785 106.881 55.1483C107.519 54.718 108.382 54.5028 109.468 54.5028C110.592 54.5028 111.406 54.6755 111.911 55.0206C112.416 55.3657 112.669 55.8835 112.669 56.5736C112.669 56.7799 112.659 56.9322 112.64 57.0308C112.64 57.0486 112.649 57.0644 112.669 57.0779C112.688 57.0911 112.707 57.0934 112.726 57.0845C113.45 56.699 113.807 56.0986 113.798 55.2828C113.798 54.1443 112.878 53.5752 111.04 53.5752C110.116 53.5752 109.277 53.6469 108.525 53.7903C107.772 53.9337 106.953 54.1847 106.067 54.5433C105.848 54.6239 105.628 54.6305 105.409 54.5634C105.19 54.4962 105.033 54.364 104.938 54.1667Z" fill="#373737"/>
<path d="M120.385 59.599C120.156 59.599 119.961 59.5204 119.799 59.3635C119.637 59.2065 119.556 59.0253 119.556 58.819V48.2503C119.556 48.0352 119.64 47.8536 119.806 47.7059C119.973 47.5579 120.166 47.4839 120.385 47.4839H129.845C130.074 47.4839 130.269 47.5602 130.431 47.7125C130.593 47.8648 130.674 48.0441 130.674 48.2503V58.819C130.674 59.0341 130.591 59.218 130.424 59.3703C130.257 59.5227 130.064 59.599 129.845 59.599H129.016C128.835 59.599 128.678 59.5361 128.545 59.4105C128.411 59.2851 128.344 59.1328 128.344 58.9535C128.344 58.8907 128.311 58.8595 128.244 58.8595H121.986C121.919 58.8595 121.886 58.8907 121.886 58.9535C121.886 59.1328 121.819 59.2851 121.686 59.4105C121.552 59.5361 121.395 59.599 121.214 59.599H120.385ZM121.886 49.4336V52.0692C121.886 52.1409 121.929 52.1767 122.014 52.1767H128.216C128.302 52.1767 128.344 52.1409 128.344 52.0692V49.4336C128.344 49.3619 128.302 49.326 128.216 49.326H122.014C121.929 49.326 121.886 49.3619 121.886 49.4336ZM121.886 54.086V56.9499C121.886 57.0216 121.929 57.0621 122.014 57.071H128.216C128.302 57.071 128.344 57.0308 128.344 56.9499V54.086C128.344 54.0054 128.302 53.965 128.216 53.965H122.014C121.929 53.965 121.886 54.0054 121.886 54.086Z" fill="#373737"/>
<path d="M138.676 50.2406C137.685 50.4916 136.909 50.9621 136.347 51.6525C135.785 52.3427 135.504 53.1808 135.504 54.1667C135.504 54.7852 135.632 55.3434 135.889 55.8408C136.147 56.3382 136.385 56.5872 136.604 56.5872C136.709 56.5872 136.826 56.5244 136.954 56.3987C137.083 56.2734 137.223 56.0582 137.376 55.7533C137.528 55.4487 137.683 55.0631 137.84 54.597C137.997 54.1309 138.159 53.5302 138.326 52.7953C138.493 52.0601 138.643 51.2354 138.776 50.3212C138.786 50.2943 138.779 50.2719 138.755 50.2541C138.731 50.236 138.705 50.2315 138.676 50.2406ZM136.604 58.7116C135.775 58.7116 135.011 58.2701 134.311 57.3872C133.61 56.5043 133.26 55.4306 133.26 54.1667C133.26 52.3562 133.91 50.8838 135.211 49.7498C136.511 48.6159 138.219 48.0488 140.334 48.0488C142.039 48.0488 143.449 48.5554 144.564 49.5683C145.678 50.5811 146.236 51.872 146.236 53.4407C146.236 54.9108 145.873 56.1188 145.149 57.0645C144.425 58.0102 143.439 58.6175 142.191 58.8863C141.953 58.9313 141.734 58.8886 141.534 58.7586C141.334 58.6287 141.21 58.456 141.162 58.2409L141.048 57.7704C141.001 57.5642 141.041 57.3714 141.17 57.1921C141.298 57.0129 141.467 56.8918 141.677 56.829C143.22 56.3629 143.992 55.2335 143.992 53.4407C143.992 52.6071 143.744 51.8943 143.249 51.3028C142.754 50.7111 142.091 50.3258 141.262 50.1466C141.196 50.1374 141.153 50.1732 141.134 50.2541C140.877 51.9394 140.591 53.3489 140.277 54.4829C139.962 55.6168 139.61 56.4839 139.219 57.0846C138.829 57.6852 138.429 58.1066 138.019 58.3484C137.609 58.5905 137.138 58.7116 136.604 58.7116Z" fill="#373737"/>
<path d="M147.55 50.4958L147.464 50.1866C147.407 49.9714 147.434 49.7632 147.543 49.5612C147.652 49.3596 147.822 49.223 148.05 49.1513C149.613 48.6046 150.999 48.0174 152.209 47.3898C152.694 47.1388 153.214 47.0134 153.766 47.0134H154.995C155.548 47.0134 156.062 47.1388 156.539 47.3898C157.739 48.0082 159.13 48.5954 160.711 49.1513C160.94 49.223 161.109 49.3596 161.218 49.5612C161.328 49.7632 161.354 49.9714 161.297 50.1866L161.211 50.4958C161.154 50.7109 161.028 50.8655 160.833 50.9596C160.637 51.054 160.435 51.0652 160.225 50.9935C159.892 50.8859 159.639 50.8007 159.468 50.7379C159.401 50.7201 159.368 50.7468 159.368 50.8185V54.6103C159.368 54.6909 159.397 54.7627 159.454 54.8255L160.154 55.4172C160.316 55.5607 160.399 55.7354 160.404 55.9416C160.409 56.1476 160.325 56.3225 160.154 56.466C159.668 56.8515 159.301 57.1338 159.054 57.313C159.034 57.3308 159.032 57.3512 159.046 57.3736C159.061 57.3959 159.077 57.4117 159.096 57.4206C159.487 57.5729 159.911 57.712 160.368 57.8374C160.559 57.8913 160.697 58.0101 160.783 58.1937C160.868 58.3775 160.854 58.5545 160.74 58.7249L160.54 59.0206C160.416 59.2269 160.239 59.3769 160.011 59.471C159.782 59.5651 159.549 59.5809 159.311 59.518C157.815 59.1236 156.472 58.4828 155.281 57.5953C155.243 57.5775 155.214 57.591 155.195 57.6357L155.252 58.1871C155.272 58.4111 155.212 58.6061 155.074 58.7719C154.936 58.9377 154.752 59.0341 154.523 59.0611C152.475 59.3299 150.565 59.5091 148.793 59.5989C148.555 59.6167 148.348 59.5539 148.172 59.4105C147.995 59.2671 147.898 59.0878 147.879 58.8726L147.865 58.6443C147.845 58.4292 147.91 58.2453 148.057 58.093C148.205 57.9404 148.393 57.8555 148.622 57.8374C148.679 57.8285 148.767 57.8239 148.886 57.8239C149.005 57.8239 149.093 57.8196 149.15 57.8104C149.227 57.8104 149.27 57.7703 149.279 57.6894V50.8589C149.279 50.7872 149.236 50.7603 149.15 50.7783C149.084 50.7961 148.984 50.832 148.851 50.8859C148.717 50.9395 148.612 50.9754 148.536 50.9935C148.317 51.0652 148.112 51.054 147.922 50.9596C147.731 50.8655 147.607 50.7109 147.55 50.4958ZM154.766 57.2861C154.786 57.2861 154.8 57.2749 154.809 57.2525C154.819 57.2301 154.819 57.2144 154.809 57.2055C154.219 56.7035 153.719 56.1702 153.309 55.6054C153.261 55.5426 153.2 55.5113 153.123 55.5113H151.737C151.651 55.5113 151.604 55.5515 151.594 55.6324V57.5012C151.594 57.5729 151.642 57.6134 151.737 57.6223C152.747 57.5147 153.757 57.4025 154.766 57.2861ZM151.737 53.9514H156.91C156.996 53.9514 157.039 53.9113 157.039 53.8304V53.4942C157.039 53.4225 156.996 53.3866 156.91 53.3866H151.737C151.651 53.3866 151.604 53.4225 151.594 53.4942V53.8304C151.604 53.9113 151.651 53.9514 151.737 53.9514ZM151.594 51.8942C151.594 51.9751 151.642 52.0152 151.737 52.0152H156.91C156.996 52.0152 157.039 51.9751 157.039 51.8942V51.5984C157.039 51.5178 156.996 51.4774 156.91 51.4774H151.737C151.651 51.4774 151.604 51.5178 151.594 51.5984V51.8942ZM158.268 55.5919C158.287 55.5739 158.294 55.5561 158.289 55.538C158.284 55.5202 158.272 55.5113 158.253 55.5113H155.881C155.862 55.5113 155.848 55.5202 155.838 55.538C155.829 55.5561 155.833 55.5739 155.853 55.5919C156.196 55.9058 156.557 56.1834 156.939 56.4255C156.996 56.4703 157.067 56.466 157.153 56.412C157.648 56.0627 158.02 55.789 158.268 55.5919ZM154.266 48.3849C153.304 48.9497 152.337 49.4471 151.366 49.8773C151.366 49.8954 151.375 49.9086 151.394 49.9178H153.166C153.252 49.9178 153.295 49.8819 153.295 49.8102V49.5951C153.295 49.3799 153.378 49.1938 153.545 49.0369C153.711 48.88 153.909 48.8016 154.138 48.8016H154.624C154.852 48.8016 155.05 48.88 155.217 49.0369C155.383 49.1938 155.467 49.3799 155.467 49.5951V49.8102C155.467 49.8819 155.51 49.9178 155.595 49.9178H157.367C157.386 49.9086 157.396 49.8954 157.396 49.8773C156.434 49.4471 155.467 48.9497 154.495 48.3849C154.419 48.3401 154.343 48.3401 154.266 48.3849Z" fill="#373737"/>
<path d="M163.126 58.5769C162.898 58.5769 162.705 58.5029 162.548 58.3552C162.39 58.2072 162.312 58.0256 162.312 57.8105V57.6894C162.312 57.4743 162.393 57.2907 162.555 57.1384C162.716 56.9858 162.907 56.9098 163.126 56.9098H167.699C167.775 56.9098 167.813 56.8693 167.813 56.7887V56.3045C167.813 56.2328 167.775 56.197 167.699 56.197H165.956H164.455C164.227 56.197 164.031 56.1186 163.869 55.9617C163.707 55.8048 163.626 55.6233 163.626 55.4173V51.1952C163.626 50.98 163.707 50.7962 163.869 50.6438C164.031 50.4915 164.227 50.4152 164.455 50.4152H167.556C167.632 50.4152 167.67 50.3748 167.67 50.2942V47.7665C167.67 47.5513 167.754 47.3698 167.921 47.2217C168.087 47.074 168.28 47 168.499 47H169.228C169.457 47 169.654 47.076 169.821 47.2286C169.988 47.3809 170.071 47.5602 170.071 47.7665V47.9277C170.071 47.9994 170.109 48.0352 170.185 48.0352H174.544C174.772 48.0352 174.968 48.1138 175.13 48.2705C175.292 48.4274 175.373 48.6089 175.373 48.8152V48.9227C175.373 49.1379 175.292 49.3238 175.13 49.4807C174.968 49.6376 174.772 49.7162 174.544 49.7162H170.185C170.109 49.7162 170.071 49.7563 170.071 49.8369V50.2942C170.071 50.3748 170.109 50.4152 170.185 50.4152H173.572C173.801 50.4152 173.996 50.4935 174.158 50.6504C174.32 50.8074 174.401 50.9889 174.401 51.1952V55.4173C174.401 55.6324 174.32 55.816 174.158 55.9683C173.996 56.1209 173.801 56.197 173.572 56.197H170.328C170.252 56.197 170.214 56.2328 170.214 56.3045V56.7887C170.214 56.8693 170.252 56.9098 170.328 56.9098H174.901C175.13 56.9098 175.323 56.9858 175.48 57.1384C175.637 57.2907 175.716 57.4743 175.716 57.6894V57.8105C175.716 58.0256 175.635 58.2072 175.473 58.3552C175.311 58.5029 175.12 58.5769 174.901 58.5769H170.328C170.252 58.5769 170.214 58.6217 170.214 58.7115V59.1148C170.214 59.3299 170.131 59.5138 169.964 59.6661C169.797 59.8184 169.604 59.8947 169.385 59.8947H168.642C168.414 59.8947 168.218 59.8184 168.056 59.6661C167.894 59.5138 167.813 59.3299 167.813 59.1148V58.7115C167.813 58.6309 167.775 58.5858 167.699 58.5769H163.126ZM165.956 52.0153V52.4995C165.956 52.5712 165.994 52.607 166.07 52.607H171.957C172.034 52.607 172.072 52.5712 172.072 52.4995V52.0153C172.072 51.9436 172.034 51.9077 171.957 51.9077H166.07C165.994 51.9077 165.956 51.9436 165.956 52.0153ZM166.07 54.718H171.957C172.034 54.718 172.072 54.6775 172.072 54.5969V54.113C172.072 54.0321 172.034 53.9874 171.957 53.9785H166.07C165.994 53.9785 165.956 54.0232 165.956 54.113V54.5969C165.956 54.6775 165.994 54.718 166.07 54.718Z" fill="#373737"/>
<path d="M11.6327 14.5938C8.97646 14.5938 7.64834 16.599 7.64834 20.6094C7.64834 22.6406 7.9999 24.151 8.70303 25.1406C9.43219 26.1042 10.4088 26.5859 11.6327 26.5859C12.7004 26.5859 13.6249 26.2344 14.4062 25.5312C15.2134 24.8021 15.6171 23.9818 15.6171 23.0703V18.1094C15.6171 17.1979 15.2134 16.3906 14.4062 15.6875C13.6249 14.9583 12.7004 14.5938 11.6327 14.5938ZM9.44521 31.3906C7.07542 31.3906 5.1223 30.4401 3.58584 28.5391C2.07542 26.638 1.32021 23.9948 1.32021 20.6094C1.32021 17.1458 2.04938 14.4766 3.50771 12.6016C4.99209 10.7266 6.97125 9.78906 9.44521 9.78906C11.6327 9.78906 13.6119 10.6094 15.3827 12.25C15.4088 12.276 15.4348 12.2891 15.4608 12.2891C15.4869 12.2891 15.4999 12.276 15.4999 12.25V3.26562C15.4999 2.64062 15.7213 2.10677 16.164 1.66406C16.6067 1.22135 17.1405 1 17.7655 1H19.7187C20.3437 1 20.8645 1.23438 21.2812 1.70312C21.7239 2.14583 21.9452 2.66667 21.9452 3.26562V28.7344C21.9452 29.3594 21.7239 29.8932 21.2812 30.3359C20.8384 30.7786 20.3176 31 19.7187 31H18.1952C17.5442 31 16.9973 30.7786 16.5546 30.3359C16.1379 29.8932 15.9166 29.3594 15.8905 28.7344V28.3828C15.8905 28.3568 15.8775 28.3438 15.8515 28.3438L15.7733 28.4219C14.0806 30.401 11.9713 31.3906 9.44521 31.3906ZM28.6952 31C28.0702 31 27.5233 30.7786 27.0546 30.3359C26.6119 29.8672 26.3905 29.3333 26.3905 28.7344V12.4844C26.3905 11.8594 26.6119 11.3255 27.0546 10.8828C27.5233 10.4401 28.0702 10.2188 28.6952 10.2188H30.9218C31.5468 10.2188 32.0806 10.4401 32.5233 10.8828C32.966 11.3255 33.1874 11.8594 33.1874 12.4844V28.7344C33.1874 29.3594 32.953 29.8932 32.4843 30.3359C32.0416 30.7786 31.5207 31 30.9218 31H28.6952ZM28.6952 6.19531C28.0702 6.19531 27.5233 5.97396 27.0546 5.53125C26.6119 5.0625 26.3905 4.52865 26.3905 3.92969V3.26562C26.3905 2.64062 26.6119 2.10677 27.0546 1.66406C27.5233 1.22135 28.0702 1 28.6952 1H30.9218C31.5468 1 32.0806 1.23438 32.5233 1.70312C32.966 2.14583 33.1874 2.66667 33.1874 3.26562V3.92969C33.1874 4.55469 32.953 5.08854 32.4843 5.53125C32.0416 5.97396 31.5207 6.19531 30.9218 6.19531H28.6952ZM39.703 31C39.078 31 38.5442 30.7786 38.1015 30.3359C37.6848 29.8672 37.4765 29.3333 37.4765 28.7344V12.4844C37.4765 11.8594 37.6848 11.3255 38.1015 10.8828C38.5442 10.4401 39.078 10.2188 39.703 10.2188H41.3437C41.9947 10.2188 42.5285 10.4401 42.9452 10.8828C43.3879 11.2995 43.6223 11.8333 43.6483 12.4844L43.6874 12.7969C43.6874 12.8229 43.7004 12.8359 43.7265 12.8359L43.8046 12.7578C45.5494 10.7786 47.6327 9.78906 50.0546 9.78906C52.4765 9.78906 54.2213 10.4792 55.289 11.8594C56.3567 13.2396 56.8905 15.5833 56.8905 18.8906V28.7344C56.8905 29.3594 56.6692 29.8932 56.2265 30.3359C55.7838 30.7786 55.2629 31 54.664 31H52.9062C52.2812 31 51.7343 30.7786 51.2655 30.3359C50.8228 29.8672 50.6015 29.3333 50.6015 28.7344V19.0859C50.6015 17.4974 50.3931 16.4036 49.9765 15.8047C49.5598 15.1797 48.7916 14.8672 47.6718 14.8672C46.7343 14.8672 45.8619 15.2578 45.0546 16.0391C44.2733 16.7943 43.8827 17.6016 43.8827 18.4609V28.7344C43.8827 29.3594 43.6614 29.8932 43.2187 30.3359C42.802 30.7786 42.2812 31 41.6562 31H39.703ZM63.2499 31C62.6249 31 62.078 30.7786 61.6093 30.3359C61.1666 29.8672 60.9452 29.3333 60.9452 28.7344V12.4844C60.9452 11.8594 61.1666 11.3255 61.6093 10.8828C62.078 10.4401 62.6249 10.2188 63.2499 10.2188H65.4765C66.1015 10.2188 66.6353 10.4401 67.078 10.8828C67.5207 11.3255 67.7421 11.8594 67.7421 12.4844V28.7344C67.7421 29.3594 67.5077 29.8932 67.039 30.3359C66.5963 30.7786 66.0754 31 65.4765 31H63.2499ZM63.2499 6.19531C62.6249 6.19531 62.078 5.97396 61.6093 5.53125C61.1666 5.0625 60.9452 4.52865 60.9452 3.92969V3.26562C60.9452 2.64062 61.1666 2.10677 61.6093 1.66406C62.078 1.22135 62.6249 1 63.2499 1H65.4765C66.1015 1 66.6353 1.23438 67.078 1.70312C67.5207 2.14583 67.7421 2.66667 67.7421 3.26562V3.92969C67.7421 4.55469 67.5077 5.08854 67.039 5.53125C66.5963 5.97396 66.0754 6.19531 65.4765 6.19531H63.2499ZM74.2577 31C73.6327 31 73.0989 30.7786 72.6562 30.3359C72.2395 29.8672 72.0312 29.3333 72.0312 28.7344V12.4844C72.0312 11.8594 72.2395 11.3255 72.6562 10.8828C73.0989 10.4401 73.6327 10.2188 74.2577 10.2188H75.8983C76.5494 10.2188 77.0832 10.4401 77.4999 10.8828C77.9426 11.2995 78.177 11.8333 78.203 12.4844L78.2421 12.7969C78.2421 12.8229 78.2551 12.8359 78.2812 12.8359L78.3593 12.7578C80.1041 10.7786 82.1874 9.78906 84.6093 9.78906C87.0312 9.78906 88.7759 10.4792 89.8437 11.8594C90.9114 13.2396 91.4452 15.5833 91.4452 18.8906V28.7344C91.4452 29.3594 91.2239 29.8932 90.7812 30.3359C90.3384 30.7786 89.8176 31 89.2187 31H87.4608C86.8358 31 86.289 30.7786 85.8202 30.3359C85.3775 29.8672 85.1562 29.3333 85.1562 28.7344V19.0859C85.1562 17.4974 84.9478 16.4036 84.5312 15.8047C84.1145 15.1797 83.3463 14.8672 82.2265 14.8672C81.289 14.8672 80.4166 15.2578 79.6093 16.0391C78.828 16.7943 78.4374 17.6016 78.4374 18.4609V28.7344C78.4374 29.3594 78.216 29.8932 77.7733 30.3359C77.3567 30.7786 76.8358 31 76.2108 31H74.2577ZM103.43 14.5938C100.904 14.5938 99.6405 16.4688 99.6405 20.2188C99.6405 22.0938 99.9791 23.5 100.656 24.4375C101.333 25.349 102.258 25.8047 103.43 25.8047C104.471 25.8047 105.357 25.4531 106.086 24.75C106.841 24.0469 107.219 23.2266 107.219 22.2891V18.3828C107.219 17.3151 106.841 16.4167 106.086 15.6875C105.357 14.9583 104.471 14.5938 103.43 14.5938ZM101.32 30.6094C99.0025 30.6094 97.0884 29.6849 95.578 27.8359C94.0676 25.9609 93.3124 23.4219 93.3124 20.2188C93.3124 16.9115 94.0285 14.3464 95.4608 12.5234C96.8931 10.7005 98.8463 9.78906 101.32 9.78906C103.664 9.78906 105.669 10.7786 107.336 12.7578L107.414 12.8359C107.44 12.8359 107.453 12.8229 107.453 12.7969V12.4844C107.479 11.8333 107.713 11.2995 108.156 10.8828C108.625 10.4401 109.185 10.2188 109.836 10.2188H111.32C111.945 10.2188 112.479 10.4401 112.922 10.8828C113.364 11.3255 113.586 11.8594 113.586 12.4844V29.2031C113.586 32.7969 112.583 35.5312 110.578 37.4062C108.599 39.2812 105.734 40.2188 101.984 40.2188C100.396 40.2188 98.9504 40.1016 97.6483 39.8672C96.9973 39.763 96.4634 39.4375 96.0468 38.8906C95.6301 38.3698 95.4218 37.7839 95.4218 37.1328V36.3125C95.4218 35.7917 95.6431 35.362 96.0858 35.0234C96.5546 34.7109 97.0494 34.6198 97.5702 34.75C99.0025 35.0885 100.383 35.2708 101.711 35.2969C103.638 35.2969 105.031 34.8281 105.891 33.8906C106.776 32.9792 107.219 31.4427 107.219 29.2812V28.1484C107.219 28.1224 107.206 28.1094 107.18 28.1094C107.154 28.1094 107.128 28.1224 107.101 28.1484C105.591 29.7891 103.664 30.6094 101.32 30.6094ZM119.906 31C119.281 31 118.747 30.7786 118.305 30.3359C117.862 29.8672 117.641 29.3333 117.641 28.7344V25.6875C117.641 25.0625 117.862 24.5286 118.305 24.0859C118.773 23.6172 119.307 23.3828 119.906 23.3828H122.953C123.578 23.3828 124.112 23.6172 124.555 24.0859C125.023 24.5286 125.258 25.0625 125.258 25.6875V28.7344C125.258 29.3594 125.023 29.8932 124.555 30.3359C124.112 30.7786 123.578 31 122.953 31H119.906ZM127.555 15.5312C126.93 15.5312 126.396 15.3099 125.953 14.8672C125.51 14.4245 125.289 13.9036 125.289 13.3047C125.289 12.6797 125.51 12.1458 125.953 11.7031C126.422 11.2344 126.956 11 127.555 11H129.391C129.599 11 129.703 10.8828 129.703 10.6484V9.90625C129.703 6.9375 130.367 4.77604 131.695 3.42188C133.049 2.06771 135.172 1.39062 138.062 1.39062C139 1.39062 139.82 1.44271 140.523 1.54688C141.174 1.625 141.708 1.9375 142.125 2.48438C142.568 3.00521 142.789 3.60417 142.789 4.28125V4.39844C142.789 4.97135 142.555 5.42708 142.086 5.76562C141.643 6.07812 141.135 6.19531 140.562 6.11719C140.354 6.09115 140.055 6.07812 139.664 6.07812C138.362 6.07812 137.489 6.33854 137.047 6.85938C136.604 7.35417 136.383 8.35677 136.383 9.86719V10.6484C136.383 10.8828 136.5 11 136.734 11H140.094C140.719 11 141.253 11.2344 141.695 11.7031C142.138 12.1458 142.359 12.6797 142.359 13.3047C142.359 13.9036 142.138 14.4245 141.695 14.8672C141.253 15.3099 140.719 15.5312 140.094 15.5312H136.734C136.5 15.5312 136.383 15.6484 136.383 15.8828V28.7344C136.383 29.3594 136.148 29.8932 135.68 30.3359C135.237 30.7786 134.703 31 134.078 31H131.969C131.344 31 130.81 30.7786 130.367 30.3359C129.924 29.8672 129.703 29.3333 129.703 28.7344V15.8828C129.703 15.6484 129.599 15.5312 129.391 15.5312H127.555ZM146.922 31C146.297 31 145.763 30.7786 145.32 30.3359C144.878 29.8672 144.656 29.3333 144.656 28.7344V12.4844C144.656 11.8594 144.878 11.3255 145.32 10.8828C145.763 10.4401 146.297 10.2188 146.922 10.2188H148.406C149.057 10.2188 149.591 10.4401 150.008 10.8828C150.45 11.2995 150.698 11.8333 150.75 12.4844L150.789 12.8359C150.789 12.862 150.802 12.875 150.828 12.875C150.88 12.875 150.906 12.862 150.906 12.8359C152.469 10.8047 154.279 9.78906 156.336 9.78906C157.56 9.78906 158.523 10.0104 159.226 10.4531C159.956 10.8958 160.633 11.6771 161.258 12.7969C161.258 12.849 161.284 12.875 161.336 12.875L161.414 12.7969C163.263 10.7917 165.177 9.78906 167.156 9.78906C169.422 9.78906 171.062 10.401 172.078 11.625C173.094 12.8229 173.601 14.8802 173.601 17.7969V28.7344C173.601 29.3594 173.367 29.8932 172.898 30.3359C172.456 30.7786 171.935 31 171.336 31H169.578C168.953 31 168.406 30.7786 167.937 30.3359C167.495 29.8672 167.273 29.3333 167.273 28.7344V18.1875C167.273 16.7552 167.117 15.8047 166.805 15.3359C166.492 14.8672 165.893 14.6328 165.008 14.6328C164.383 14.6328 163.784 14.8932 163.211 15.4141C162.638 15.9089 162.351 16.4036 162.351 16.8984V28.7344C162.351 29.3594 162.117 29.8932 161.648 30.3359C161.206 30.7786 160.685 31 160.086 31H158.328C157.703 31 157.156 30.7786 156.687 30.3359C156.245 29.8672 156.023 29.3333 156.023 28.7344V18.1875C156.023 16.7552 155.867 15.8047 155.555 15.3359C155.268 14.8672 154.682 14.6328 153.797 14.6328C153.172 14.6328 152.56 14.8932 151.961 15.4141C151.388 15.9089 151.101 16.4036 151.101 16.8984V28.7344C151.101 29.3594 150.88 29.8932 150.437 30.3359C149.995 30.7786 149.461 31 148.836 31H146.922Z" fill="#373737"/>
</svg>
