<svg width="161" height="41" viewBox="0 0 161 41" fill="none" xmlns="http://www.w3.org/2000/svg">
<rect x="0.5" y="0.25" width="160" height="40" rx="7" fill="black"/>
<rect x="0.5" y="0.25" width="160" height="40" rx="7" fill="black"/>
<path fill-rule="evenodd" clip-rule="evenodd" d="M48.5087 10.2486C48.2266 10.2486 47.9808 10.0315 47.9808 9.75362C47.9808 9.47576 48.2266 9.25 48.5087 9.25C48.8 9.25 49.0366 9.47576 49.0366 9.75362C49.0366 10.0315 48.8 10.2486 48.5087 10.2486ZM43.5 15.1458V9.3542H44.4102V14.3817H47.1681V15.1458H43.5ZM48.1082 10.9519V15.1458H48.9274V10.9519H48.1082ZM49.8039 14.5988L50.1952 14.0257C50.4956 14.3383 51.0781 14.6248 51.6698 14.6248C52.2887 14.6248 52.6163 14.3817 52.6163 14.0257C52.6163 13.6089 52.1157 13.47 51.5514 13.3484L51.5462 13.3473C50.801 13.1825 49.9313 12.9903 49.9313 12.0894C49.9313 11.4208 50.532 10.8477 51.606 10.8477C52.3615 10.8477 52.9076 11.1082 53.2808 11.4468L52.9167 11.9939C52.6619 11.6986 52.1704 11.4816 51.6151 11.4816C51.0599 11.4816 50.7141 11.6899 50.7141 12.0286C50.7141 12.3933 51.1874 12.5148 51.7335 12.6364C52.498 12.8014 53.4082 13.0011 53.4082 13.9649C53.4082 14.6856 52.7893 15.25 51.6333 15.25C50.8961 15.25 50.2499 15.0329 49.8039 14.5988ZM54.5668 14.2167C54.5668 14.8766 54.9218 15.25 55.6136 15.25C56.0413 15.25 56.2962 15.1371 56.4691 14.9808L56.2598 14.3904C56.1779 14.4772 56.0049 14.5553 55.8138 14.5553C55.5316 14.5553 55.386 14.3383 55.386 14.043V11.6378H56.278V10.9519H55.386V9.80571H54.5668V10.9519H53.8387V11.6378H54.5668V14.2167ZM56.8723 13.0445C56.8723 11.8289 57.7916 10.8477 59.0749 10.8477C60.3947 10.8477 61.2139 11.8289 61.2139 13.114V13.305H57.737C57.8007 14.017 58.3468 14.6075 59.2297 14.6075C59.6939 14.6075 60.2036 14.4338 60.5312 14.1125L60.9135 14.6248C60.4766 15.0329 59.8577 15.25 59.1478 15.25C57.8371 15.25 56.8723 14.3643 56.8723 13.0445ZM57.7279 12.7406C57.7734 12.1675 58.1921 11.4902 59.075 11.4902C60.0033 11.4902 60.3947 12.1849 60.4129 12.7406H57.7279ZM65.1668 15.1458V12.4627C65.1668 11.7681 64.7936 11.5423 64.2293 11.5423C63.7196 11.5423 63.2554 11.8376 63.0187 12.1501V15.1458H62.1996V10.9519H63.0187V11.5423C63.31 11.2037 63.8925 10.8477 64.5752 10.8477C65.5036 10.8477 65.986 11.3166 65.986 12.2022V15.1458H65.1668ZM69.2771 13.0445C69.2771 14.2601 70.1327 15.25 71.498 15.25C72.8723 15.25 73.7188 14.2601 73.7188 13.0445C73.7188 11.8376 72.8723 10.8477 71.498 10.8477C70.1327 10.8477 69.2771 11.8376 69.2771 13.0445ZM71.498 14.5554C72.3808 14.5554 72.8632 13.8433 72.8632 13.0445C72.8632 12.2543 72.3808 11.5423 71.498 11.5423C70.6242 11.5423 70.1327 12.2543 70.1327 13.0445C70.1327 13.8433 70.6242 14.5554 71.498 14.5554ZM77.6808 12.4627V15.1458H78.5V12.2022C78.5 11.3166 78.0176 10.8477 77.0892 10.8477C76.4066 10.8477 75.824 11.2037 75.5328 11.5423V10.9519H74.7136V15.1458H75.5328V12.1501C75.7694 11.8376 76.2336 11.5423 76.7433 11.5423C77.3076 11.5423 77.6808 11.7681 77.6808 12.4627Z" fill="white"/>
<path fill-rule="evenodd" clip-rule="evenodd" d="M48.5087 10.2486C48.2266 10.2486 47.9808 10.0315 47.9808 9.75362C47.9808 9.47576 48.2266 9.25 48.5087 9.25C48.8 9.25 49.0366 9.47576 49.0366 9.75362C49.0366 10.0315 48.8 10.2486 48.5087 10.2486ZM43.5 15.1458V9.3542H44.4102V14.3817H47.1681V15.1458H43.5ZM48.1082 10.9519V15.1458H48.9274V10.9519H48.1082ZM49.8039 14.5988L50.1952 14.0257C50.4956 14.3383 51.0781 14.6248 51.6698 14.6248C52.2887 14.6248 52.6163 14.3817 52.6163 14.0257C52.6163 13.6089 52.1157 13.47 51.5514 13.3484L51.5462 13.3473C50.801 13.1825 49.9313 12.9903 49.9313 12.0894C49.9313 11.4208 50.532 10.8477 51.606 10.8477C52.3615 10.8477 52.9076 11.1082 53.2808 11.4468L52.9167 11.9939C52.6619 11.6986 52.1704 11.4816 51.6151 11.4816C51.0599 11.4816 50.7141 11.6899 50.7141 12.0286C50.7141 12.3933 51.1874 12.5148 51.7335 12.6364C52.498 12.8014 53.4082 13.0011 53.4082 13.9649C53.4082 14.6856 52.7893 15.25 51.6333 15.25C50.8961 15.25 50.2499 15.0329 49.8039 14.5988ZM54.5668 14.2167C54.5668 14.8766 54.9218 15.25 55.6136 15.25C56.0413 15.25 56.2962 15.1371 56.4691 14.9808L56.2598 14.3904C56.1779 14.4772 56.0049 14.5553 55.8138 14.5553C55.5316 14.5553 55.386 14.3383 55.386 14.043V11.6378H56.278V10.9519H55.386V9.80571H54.5668V10.9519H53.8387V11.6378H54.5668V14.2167ZM56.8723 13.0445C56.8723 11.8289 57.7916 10.8477 59.0749 10.8477C60.3947 10.8477 61.2139 11.8289 61.2139 13.114V13.305H57.737C57.8007 14.017 58.3468 14.6075 59.2297 14.6075C59.6939 14.6075 60.2036 14.4338 60.5312 14.1125L60.9135 14.6248C60.4766 15.0329 59.8577 15.25 59.1478 15.25C57.8371 15.25 56.8723 14.3643 56.8723 13.0445ZM57.7279 12.7406C57.7734 12.1675 58.1921 11.4902 59.075 11.4902C60.0033 11.4902 60.3947 12.1849 60.4129 12.7406H57.7279ZM65.1668 15.1458V12.4627C65.1668 11.7681 64.7936 11.5423 64.2293 11.5423C63.7196 11.5423 63.2554 11.8376 63.0187 12.1501V15.1458H62.1996V10.9519H63.0187V11.5423C63.31 11.2037 63.8925 10.8477 64.5752 10.8477C65.5036 10.8477 65.986 11.3166 65.986 12.2022V15.1458H65.1668ZM69.2771 13.0445C69.2771 14.2601 70.1327 15.25 71.498 15.25C72.8723 15.25 73.7188 14.2601 73.7188 13.0445C73.7188 11.8376 72.8723 10.8477 71.498 10.8477C70.1327 10.8477 69.2771 11.8376 69.2771 13.0445ZM71.498 14.5554C72.3808 14.5554 72.8632 13.8433 72.8632 13.0445C72.8632 12.2543 72.3808 11.5423 71.498 11.5423C70.6242 11.5423 70.1327 12.2543 70.1327 13.0445C70.1327 13.8433 70.6242 14.5554 71.498 14.5554ZM77.6808 12.4627V15.1458H78.5V12.2022C78.5 11.3166 78.0176 10.8477 77.0892 10.8477C76.4066 10.8477 75.824 11.2037 75.5328 11.5423V10.9519H74.7136V15.1458H75.5328V12.1501C75.7694 11.8376 76.2336 11.5423 76.7433 11.5423C77.3076 11.5423 77.6808 11.7681 77.6808 12.4627Z" fill="white"/>
<path d="M46.6719 31.25V26.6328L42.7031 19.9766H44.6484L47.5234 24.9531H47.5781L50.4531 19.9766H52.3984L48.4219 26.6328V31.25H46.6719ZM55.3984 31.4141C53.0391 31.4141 51.5 29.7812 51.5 27.1406V27.125C51.5 24.5 53.0547 22.875 55.3906 22.875C57.7344 22.875 59.2969 24.4922 59.2969 27.125V27.1406C59.2969 29.7891 57.75 31.4141 55.3984 31.4141ZM55.4062 30C56.7266 30 57.5703 28.9531 57.5703 27.1406V27.125C57.5703 25.3281 56.7109 24.2891 55.3906 24.2891C54.0938 24.2891 53.2266 25.3281 53.2266 27.125V27.1406C53.2266 28.9609 54.0859 30 55.4062 30ZM63.3984 31.4141C61.5938 31.4141 60.5625 30.25 60.5625 28.3594V23.0312H62.25V28.0312C62.25 29.2734 62.8281 29.9609 64 29.9609C65.1875 29.9609 65.9531 29.1094 65.9531 27.8281V23.0312H67.6484V31.25H65.9531V30.0156H65.9141C65.4844 30.8438 64.6484 31.4141 63.3984 31.4141ZM70.8516 31.25V21.4844H67.3984V19.9766H76.0469V21.4844H72.6016V31.25H70.8516ZM78.5703 31.4141C76.7656 31.4141 75.7344 30.25 75.7344 28.3594V23.0312H77.4219V28.0312C77.4219 29.2734 78 29.9609 79.1719 29.9609C80.3594 29.9609 81.125 29.1094 81.125 27.8281V23.0312H82.8203V31.25H81.125V30.0156H81.0859C80.6562 30.8438 79.8203 31.4141 78.5703 31.4141ZM88.8594 31.4141C87.6797 31.4141 86.7656 30.8203 86.2812 29.8594H86.2422V31.25H84.5547V19.9766H86.2422V24.4297H86.2812C86.7734 23.4609 87.7109 22.875 88.875 22.875C90.9375 22.875 92.2969 24.5156 92.2969 27.1328V27.1406C92.2969 29.7578 90.9453 31.4141 88.8594 31.4141ZM88.4141 29.9609C89.7422 29.9609 90.5703 28.8906 90.5703 27.1406V27.1328C90.5703 25.3984 89.7422 24.3203 88.4141 24.3203C87.1406 24.3203 86.2344 25.4297 86.2344 27.1328V27.1406C86.2344 28.8516 87.1328 29.9609 88.4141 29.9609ZM97.1094 31.4141C94.6953 31.4141 93.2344 29.7656 93.2344 27.1719V27.1641C93.2344 24.5938 94.7188 22.875 97.0234 22.875C99.3281 22.875 100.742 24.5312 100.742 27V27.5703H94.9219C94.9531 29.125 95.8047 30.0312 97.1484 30.0312C98.1484 30.0312 98.8125 29.5156 99.0234 28.8984L99.0469 28.8359H100.648L100.633 28.9219C100.367 30.2266 99.1016 31.4141 97.1094 31.4141ZM97.0312 24.2578C95.9375 24.2578 95.0938 25 94.9453 26.375H99.0703C98.9297 24.9531 98.1328 24.2578 97.0312 24.2578Z" fill="white"/>
<path d="M97.1094 31.4141C94.6953 31.4141 93.2344 29.7656 93.2344 27.1719V27.1641C93.2344 24.5938 94.7188 22.875 97.0234 22.875C99.3281 22.875 100.742 24.5312 100.742 27V27.5703H94.9219C94.9531 29.125 95.8047 30.0312 97.1484 30.0312C98.1484 30.0312 98.8125 29.5156 99.0234 28.8984L99.0469 28.8359H100.648L100.633 28.9219C100.367 30.2266 99.1016 31.4141 97.1094 31.4141ZM97.0312 24.2578C95.9375 24.2578 95.0938 25 94.9453 26.375H99.0703C98.9297 24.9531 98.1328 24.2578 97.0312 24.2578Z" fill="white"/>
<path d="M88.8594 31.4141C87.6797 31.4141 86.7656 30.8203 86.2812 29.8594H86.2422V31.25H84.5547V19.9766H86.2422V24.4297H86.2812C86.7734 23.4609 87.7109 22.875 88.875 22.875C90.9375 22.875 92.2969 24.5156 92.2969 27.1328V27.1406C92.2969 29.7578 90.9453 31.4141 88.8594 31.4141ZM88.4141 29.9609C89.7422 29.9609 90.5703 28.8906 90.5703 27.1406V27.1328C90.5703 25.3984 89.7422 24.3203 88.4141 24.3203C87.1406 24.3203 86.2344 25.4297 86.2344 27.1328V27.1406C86.2344 28.8516 87.1328 29.9609 88.4141 29.9609Z" fill="white"/>
<path d="M78.5703 31.4141C76.7656 31.4141 75.7344 30.25 75.7344 28.3594V23.0312H77.4219V28.0312C77.4219 29.2734 78 29.9609 79.1719 29.9609C80.3594 29.9609 81.125 29.1094 81.125 27.8281V23.0312H82.8203V31.25H81.125V30.0156H81.0859C80.6562 30.8438 79.8203 31.4141 78.5703 31.4141Z" fill="white"/>
<path d="M70.8516 31.25V21.4844H67.3984V19.9766H76.0469V21.4844H72.6016V31.25H70.8516Z" fill="white"/>
<path d="M63.3984 31.4141C61.5938 31.4141 60.5625 30.25 60.5625 28.3594V23.0312H62.25V28.0312C62.25 29.2734 62.8281 29.9609 64 29.9609C65.1875 29.9609 65.9531 29.1094 65.9531 27.8281V23.0312H67.6484V31.25H65.9531V30.0156H65.9141C65.4844 30.8438 64.6484 31.4141 63.3984 31.4141Z" fill="white"/>
<path d="M55.3984 31.4141C53.0391 31.4141 51.5 29.7812 51.5 27.1406V27.125C51.5 24.5 53.0547 22.875 55.3906 22.875C57.7344 22.875 59.2969 24.4922 59.2969 27.125V27.1406C59.2969 29.7891 57.75 31.4141 55.3984 31.4141ZM55.4062 30C56.7266 30 57.5703 28.9531 57.5703 27.1406V27.125C57.5703 25.3281 56.7109 24.2891 55.3906 24.2891C54.0938 24.2891 53.2266 25.3281 53.2266 27.125V27.1406C53.2266 28.9609 54.0859 30 55.4062 30Z" fill="white"/>
<path d="M46.6719 31.25V26.6328L42.7031 19.9766H44.6484L47.5234 24.9531H47.5781L50.4531 19.9766H52.3984L48.4219 26.6328V31.25H46.6719Z" fill="white"/>
<path d="M34.9752 13.983C34.6871 12.9067 33.8413 12.0608 32.765 11.7727C30.8161 11.25 22.9979 11.25 22.9979 11.25C22.9979 11.25 15.1798 11.25 13.2309 11.7727C12.1567 12.0608 11.3088 12.9067 11.0207 13.983C10.5 15.9318 10.5 20.0004 10.5 20.0004C10.5 20.0004 10.5 24.069 11.0227 26.0179C11.3108 27.0942 12.1567 27.94 13.233 28.2281C15.1818 28.7508 23 28.7508 23 28.7508C23 28.7508 30.8182 28.7508 32.767 28.2281C33.8434 27.94 34.6892 27.0942 34.9772 26.0179C35.5 24.069 35.5 20.0004 35.5 20.0004C35.5 20.0004 35.4979 15.9318 34.9752 13.983Z" fill="#FF0000"/>
<path d="M20.4995 23.7503L26.9923 20.0008L20.4995 16.2512V23.7503Z" fill="white"/>
<path d="M34.9752 13.983C34.6871 12.9067 33.8413 12.0608 32.765 11.7727C30.8161 11.25 22.9979 11.25 22.9979 11.25C22.9979 11.25 15.1798 11.25 13.2309 11.7727C12.1567 12.0608 11.3088 12.9067 11.0207 13.983C10.5 15.9318 10.5 20.0004 10.5 20.0004C10.5 20.0004 10.5 24.069 11.0227 26.0179C11.3108 27.0942 12.1567 27.94 13.233 28.2281C15.1818 28.7508 23 28.7508 23 28.7508C23 28.7508 30.8182 28.7508 32.767 28.2281C33.8434 27.94 34.6892 27.0942 34.9772 26.0179C35.5 24.069 35.5 20.0004 35.5 20.0004C35.5 20.0004 35.4979 15.9318 34.9752 13.983Z" fill="#FF0000"/>
<path d="M20.4995 23.7503L26.9923 20.0008L20.4995 16.2512V23.7503Z" fill="white"/>
</svg>
